999
dxflib 2.2.0.0
  0
SECTION
  2
HEADER
  9
$ACADVER
  1
AC1015
  9
$HANDSEED
  5
FFFF
  9
$DIMASZ
 40
2.5
  9
$GRIDMODE
 70
1
  9
$PLIMMIN
 10
0.0
 20
0.0
  9
$DIMEXE
 40
1.25
  9
$DIMGAP
 40
0.625
  9
$PLIMMAX
 10
210.0
 20
297.0
  9
$INSUNITS
 70
4
  9
$DIMSTYLE
  2
Standard
  9
$MEASUREMENT
 70
1
  9
$DIMEXO
 40
0.625
  9
$DIMTXT
 40
2.5
  0
ENDSEC
  0
SECTION
  2
TABLES
  0
TABLE
  2
VPORT
  5
8
100
AcDbSymbolTable
 70
1
  0
VPORT
  5
30
100
AcDbSymbolTableRecord
100
AcDbViewportTableRecord
  2
*Active
 70
0
 10
0.0
 20
0.0
 11
1.0
 21
1.0
 12
286.3055555555554861
 22
148.5
 13
0.0
 23
0.0
 14
10.0
 24
10.0
 15
10.0
 25
10.0
 16
0.0
 26
0.0
 36
1.0
 17
0.0
 27
0.0
 37
0.0
 40
297.0
 41
1.92798353909465
 42
50.0
 43
0.0
 44
0.0
 50
0.0
 51
0.0
 71
0
 72
100
 73
1
 74
3
 75
1
 76
1
 77
0
 78
0
281
0
 65
1
110
0.0
120
0.0
130
0.0
111
1.0
121
0.0
131
0.0
112
0.0
122
1.0
132
0.0
 79
0
146
0.0
  0
ENDTAB
  0
TABLE
  2
LTYPE
  5
5
100
AcDbSymbolTable
 70
21
  0
LTYPE
  5
14
100
AcDbSymbolTableRecord
100
AcDbLinetypeTableRecord
  2
ByBlock
 70
0
  3

 72
65
 73
0
 40
0.0
  0
LTYPE
  5
15
100
AcDbSymbolTableRecord
100
AcDbLinetypeTableRecord
  2
ByLayer
 70
0
  3

 72
65
 73
0
 40
0.0
  0
LTYPE
  5
16
100
AcDbSymbolTableRecord
100
AcDbLinetypeTableRecord
  2
CONTINUOUS
 70
0
  3
Solid line
 72
65
 73
0
 40
0.0
  0
LTYPE
  5
31
100
AcDbSymbolTableRecord
100
AcDbLinetypeTableRecord
  2
DOT
 70
0
  3
Dot . . . . . . . . . . . . . . . . . . . . . .
 72
65
 73
2
 40
6.3499999999999996
 49
0.0
 74
0
 49
-6.3499999999999996
 74
0
  0
LTYPE
  5
32
100
AcDbSymbolTableRecord
100
AcDbLinetypeTableRecord
  2
DOT2
 70
0
  3
Dot (.5x) .....................................
 72
65
 73
2
 40
3.1749999999999998
 49
0.0
 74
0
 49
-3.1749999999999998
 74
0
  0
LTYPE
  5
33
100
AcDbSymbolTableRecord
100
AcDbLinetypeTableRecord
  2
DOTX2
 70
0
  3
Dot (2x) .  .  .  .  .  .  .  .  .  .  .  .  .
 72
65
 73
2
 40
12.6999999999999993
 49
0.0
 74
0
 49
-12.6999999999999993
 74
0
  0
LTYPE
  5
34
100
AcDbSymbolTableRecord
100
AcDbLinetypeTableRecord
  2
DASHED
 70
0
  3
Dashed __ __ __ __ __ __ __ __ __ __ __ __ __ _
 72
65
 73
2
 40
19.0500000000000007
 49
12.6999999999999993
 74
0
 49
-6.3499999999999996
 74
0
  0
LTYPE
  5
35
100
AcDbSymbolTableRecord
100
AcDbLinetypeTableRecord
  2
DASHED2
 70
0
  3
Dashed (.5x) _ _ _ _ _ _ _ _ _ _ _ _ _ _ _ _ _
 72
65
 73
2
 40
9.5250000000000004
 49
6.3499999999999996
 74
0
 49
-3.1749999999999998
 74
0
  0
LTYPE
  5
36
100
AcDbSymbolTableRecord
100
AcDbLinetypeTableRecord
  2
DASHEDX2
 70
0
  3
Dashed (2x) ____  ____  ____  ____  ____  ___
 72
65
 73
2
 40
38.1000000000000014
 49
25.3999999999999986
 74
0
 49
-12.6999999999999993
 74
0
  0
LTYPE
  5
37
100
AcDbSymbolTableRecord
100
AcDbLinetypeTableRecord
  2
DASHDOT
 70
0
  3
Dash dot __ . __ . __ . __ . __ . __ . __ . __
 72
65
 73
4
 40
25.3999999999999986
 49
12.6999999999999993
 74
0
 49
-6.3499999999999996
 74
0
 49
0.0
 74
0
 49
-6.3499999999999996
 74
0
  0
LTYPE
  5
38
100
AcDbSymbolTableRecord
100
AcDbLinetypeTableRecord
  2
DASHDOT2
 70
0
  3
Dash dot (.5x) _._._._._._._._._._._._._._._.
 72
65
 73
4
 40
12.6999999999999993
 49
6.3499999999999996
 74
0
 49
-3.1749999999999998
 74
0
 49
0.0
 74
0
 49
-3.1749999999999998
 74
0
  0
LTYPE
  5
39
100
AcDbSymbolTableRecord
100
AcDbLinetypeTableRecord
  2
DASHDOTX2
 70
0
  3
Dash dot (2x) ____  .  ____  .  ____  .  ___
 72
65
 73
4
 40
50.7999999999999972
 49
25.3999999999999986
 74
0
 49
-12.6999999999999993
 74
0
 49
0.0
 74
0
 49
-12.6999999999999993
 74
0
  0
LTYPE
  5
3A
100
AcDbSymbolTableRecord
100
AcDbLinetypeTableRecord
  2
DIVIDE
 70
0
  3
Divide ____ . . ____ . . ____ . . ____ . . ____
 72
65
 73
6
 40
31.75
 49
12.6999999999999993
 74
0
 49
-6.3499999999999996
 74
0
 49
0.0
 74
0
 49
-6.3499999999999996
 74
0
 49
0.0
 74
0
 49
-6.3499999999999996
 74
0
  0
LTYPE
  5
3B
100
AcDbSymbolTableRecord
100
AcDbLinetypeTableRecord
  2
DIVIDE2
 70
0
  3
Divide (.5x) __..__..__..__..__..__..__..__.._
 72
65
 73
6
 40
15.875
 49
6.3499999999999996
 74
0
 49
-3.1749999999999998
 74
0
 49
0.0
 74
0
 49
-3.1749999999999998
 74
0
 49
0.0
 74
0
 49
-3.1749999999999998
 74
0
  0
LTYPE
  5
3C
100
AcDbSymbolTableRecord
100
AcDbLinetypeTableRecord
  2
DIVIDEX2
 70
0
  3
Divide (2x) ________  .  .  ________  .  .  _
 72
65
 73
6
 40
63.5
 49
25.3999999999999986
 74
0
 49
-12.6999999999999993
 74
0
 49
0.0
 74
0
 49
-12.6999999999999993
 74
0
 49
0.0
 74
0
 49
-12.6999999999999993
 74
0
  0
LTYPE
  5
3D
100
AcDbSymbolTableRecord
100
AcDbLinetypeTableRecord
  2
CENTER
 70
0
  3
Center ____ _ ____ _ ____ _ ____ _ ____ _ ____
 72
65
 73
4
 40
50.7999999999999972
 49
31.75
 74
0
 49
-6.3499999999999996
 74
0
 49
6.3499999999999996
 74
0
 49
-6.3499999999999996
 74
0
  0
LTYPE
  5
3E
100
AcDbSymbolTableRecord
100
AcDbLinetypeTableRecord
  2
CENTER2
 70
0
  3
Center (.5x) ___ _ ___ _ ___ _ ___ _ ___ _ ___
 72
65
 73
4
 40
28.5749999999999993
 49
19.0500000000000007
 74
0
 49
-3.1749999999999998
 74
0
 49
3.1749999999999998
 74
0
 49
-3.1749999999999998
 74
0
  0
LTYPE
  5
3F
100
AcDbSymbolTableRecord
100
AcDbLinetypeTableRecord
  2
CENTERX2
 70
0
  3
Center (2x) ________  __  ________  __  _____
 72
65
 73
4
 40
101.5999999999999943
 49
63.5
 74
0
 49
-12.6999999999999993
 74
0
 49
12.6999999999999993
 74
0
 49
-12.6999999999999993
 74
0
  0
LTYPE
  5
40
100
AcDbSymbolTableRecord
100
AcDbLinetypeTableRecord
  2
BORDER
 70
0
  3
Border __ __ . __ __ . __ __ . __ __ . __ __ .
 72
65
 73
6
 40
44.4500000000000028
 49
12.6999999999999993
 74
0
 49
-6.3499999999999996
 74
0
 49
12.6999999999999993
 74
0
 49
-6.3499999999999996
 74
0
 49
0.0
 74
0
 49
-6.3499999999999996
 74
0
  0
LTYPE
  5
41
100
AcDbSymbolTableRecord
100
AcDbLinetypeTableRecord
  2
BORDER2
 70
0
  3
Border (.5x) __.__.__.__.__.__.__.__.__.__.__.
 72
65
 73
6
 40
22.2250000000000014
 49
6.3499999999999996
 74
0
 49
-3.1749999999999998
 74
0
 49
6.3499999999999996
 74
0
 49
-3.1749999999999998
 74
0
 49
0.0
 74
0
 49
-3.1749999999999998
 74
0
  0
LTYPE
  5
42
100
AcDbSymbolTableRecord
100
AcDbLinetypeTableRecord
  2
BORDERX2
 70
0
  3
Border (2x) ____  ____  .  ____  ____  .  ___
 72
65
 73
6
 40
88.9000000000000057
 49
25.3999999999999986
 74
0
 49
-12.6999999999999993
 74
0
 49
25.3999999999999986
 74
0
 49
-12.6999999999999993
 74
0
 49
0.0
 74
0
 49
-12.6999999999999993
 74
0
  0
ENDTAB
  0
TABLE
  2
LAYER
  5
2
100
AcDbSymbolTable
 70
1
  0
LAYER
  5
10
100
AcDbSymbolTableRecord
100
AcDbLayerTableRecord
  2
0
 70
0
 62
7
  6
CONTINUOUS
390
F
  0
ENDTAB
  0
TABLE
  2
STYLE
  5
3
100
AcDbSymbolTable
 70
1
  0
STYLE
  5
11
100
AcDbSymbolTableRecord
100
AcDbTextStyleTableRecord
  2
Standard
 70
0
 40
0.0
 41
0.75
 50
0.0
 71
0
 42
2.5
  3
txt
  4

  0
ENDTAB
  0
TABLE
  2
VIEW
  5
6
100
AcDbSymbolTable
 70
0
  0
ENDTAB
  0
TABLE
  2
UCS
  5
7
100
AcDbSymbolTable
 70
0
  0
ENDTAB
  0
TABLE
  2
APPID
  5
9
100
AcDbSymbolTable
 70
1
  0
APPID
  5
12
100
AcDbSymbolTableRecord
100
AcDbRegAppTableRecord
  2
ACAD
 70
0
  0
ENDTAB
  0
TABLE
  2
DIMSTYLE
  5
A
100
AcDbSymbolTable
 70
1
100
AcDbDimStyleTable
 71
0
  0
DIMSTYLE
105
27
100
AcDbSymbolTableRecord
100
AcDbDimStyleTableRecord
  2
Standard
 41
2.5
 42
0.625
 43
3.75
 44
1.25
 70
0
 73
0
 74
0
 77
1
 78
8
140
2.5
141
2.5
143
0.03937007874016
147
0.625
171
3
172
1
271
2
272
2
274
3
278
44
283
0
284
8
340
11
  0
ENDTAB
  0
TABLE
  2
BLOCK_RECORD
  5
1
100
AcDbSymbolTable
 70
1
  0
BLOCK_RECORD
  5
1F
100
AcDbSymbolTableRecord
100
AcDbBlockTableRecord
  2
*Model_Space
340
22
  0
BLOCK_RECORD
  5
1B
100
AcDbSymbolTableRecord
100
AcDbBlockTableRecord
  2
*Paper_Space
340
1E
  0
BLOCK_RECORD
  5
23
100
AcDbSymbolTableRecord
100
AcDbBlockTableRecord
  2
*Paper_Space0
340
26
  0
ENDTAB
  0
ENDSEC
  0
SECTION
  2
BLOCKS
  0
BLOCK
  5
20
100
AcDbEntity
  8
0
100
AcDbBlockBegin
  2
*Model_Space
 70
0
 10
0.0
 20
0.0
 30
0.0
  3
*Model_Space
  1

  0
ENDBLK
  5
21
100
AcDbEntity
  8
0
100
AcDbBlockEnd
  0
BLOCK
  5
1C
100
AcDbEntity
 67
1
  8
0
100
AcDbBlockBegin
  2
*Paper_Space
 70
0
 10
0.0
 20
0.0
 30
0.0
  3
*Paper_Space
  1

  0
ENDBLK
  5
1D
100
AcDbEntity
 67
1
  8
0
100
AcDbBlockEnd
  0
BLOCK
  5
24
100
AcDbEntity
  8
0
100
AcDbBlockBegin
  2
*Paper_Space0
 70
0
 10
0.0
 20
0.0
 30
0.0
  3
*Paper_Space0
  1

  0
ENDBLK
  5
25
100
AcDbEntity
  8
0
100
AcDbBlockEnd
  0
ENDSEC
  0
SECTION
  2
ENTITIES
  0
LWPOLYLINE
  5
43
  8
0
 62
7
370
-1
  6
ByLayer
100
AcDbEntity
100
AcDbPolyline
 90
18
 70
0
 10
1.8646499999999973
 20
5.3281840000000003
 10
1.8646499999999973
 20
1.4676109999999998
 10
1.9229770000000028
 20
1.2926009999999994
 10
2.0620839999999987
 20
1.21922
 10
4.0
 20
1.21922
 10
4.0
 20
0.0
 10
2.0620839999999987
 20
0.0
 10
1.6088900000000022
 20
0.1128260000000001
 10
1.2364770000000005
 20
0.4289159999999992
 10
0.9852360000000002
 20
0.8974480000000007
 10
0.8955550000000014
 20
1.4676109999999998
 10
0.8955550000000014
 20
5.0801379999999998
 10
0.8955550000000014
 20
8.6923200000000005
 10
1.8646499999999973
 20
8.6923200000000005
 10
1.8646499999999973
 20
6.5474049999999995
 10
4.0
 20
6.5474049999999995
 10
4.0
 20
5.3281840000000003
 10
1.8646499999999973
 20
5.3281840000000003
  0
LWPOLYLINE
  5
44
  8
0
 62
7
370
-1
  6
ByLayer
100
AcDbEntity
100
AcDbPolyline
 90
19
 70
0
 10
8.8806280000000015
 20
6.5474049999999995
 10
9.3155010000000011
 20
6.4345790000000012
 10
9.6728590000000025
 20
6.1184890000000021
 10
9.9139450000000018
 20
5.6499579999999998
 10
10.0
 20
5.0801370000000006
 10
10.0
 20
0.0
 10
6.0393700000000017
 20
0.0
 10
5.6044970000000021
 20
0.1128260000000001
 10
5.2471390000000007
 20
0.428916000000001
 10
5.0060540000000024
 20
0.8974480000000007
 10
4.9199990000000007
 20
1.4676110000000016
 10
4.9199990000000007
 20
3.8833130000000011
 10
9.0700810000000018
 20
3.8833130000000011
 10
9.0700810000000018
 20
5.0801370000000006
 10
9.0141120000000008
 20
5.254976000000001
 10
8.8806280000000015
 20
5.328183000000001
 10
4.9199990000000007
 20
5.328183000000001
 10
4.9199990000000007
 20
6.5474049999999995
 10
8.8806280000000015
 20
6.5474049999999995
  0
LWPOLYLINE
  5
45
  8
0
 62
7
370
-1
  6
ByLayer
100
AcDbEntity
100
AcDbPolyline
 90
7
 70
0
 10
9.0700810000000018
 20
2.6640920000000001
 10
5.8499180000000024
 20
2.6640920000000001
 10
5.8499180000000024
 20
1.4676110000000016
 10
5.9058870000000034
 20
1.2926000000000002
 10
6.0393700000000017
 20
1.2192180000000015
 10
9.0700810000000018
 20
1.2192180000000015
 10
9.0700810000000018
 20
2.6640920000000001
  0
LWPOLYLINE
  5
46
  8
0
 62
7
370
-1
  6
ByLayer
100
AcDbEntity
100
AcDbPolyline
 90
15
 70
0
 10
15.0
 20
6.5474060000000005
 10
15.4347190000000012
 20
6.4345770000000009
 10
15.7920589999999983
 20
6.1184919999999998
 10
16.0331310000000009
 20
5.6499580000000016
 10
16.1193129999999982
 20
5.0801389999999991
 10
16.1193129999999982
 20
1.4676130000000001
 10
16.0331310000000009
 20
0.8974480000000007
 10
15.7920589999999983
 20
0.4289140000000007
 10
15.4347190000000012
 20
0.1128289999999996
 10
15.0
 20
0.0
 10
11.9691839999999985
 20
0.0
 10
11.9691839999999985
 20
-2.5965679999999995
 10
11.0393129999999999
 20
-2.5965679999999995
 10
11.0393129999999999
 20
6.5474060000000005
 10
15.0
 20
6.5474060000000005
  0
LWPOLYLINE
  5
47
  8
0
 62
7
370
-1
  6
ByLayer
100
AcDbEntity
100
AcDbPolyline
 90
13
 70
0
 10
15.1894419999999997
 20
5.0801389999999991
 10
15.1334769999999992
 20
5.2549759999999992
 10
15.0
 20
5.3281850000000013
 10
12.1586259999999982
 20
5.3281850000000013
 10
12.02515
 20
5.2549759999999992
 10
11.9691839999999985
 20
5.0801389999999991
 10
11.9691839999999985
 20
1.4676130000000001
 10
12.02515
 20
1.2926009999999994
 10
12.1586259999999982
 20
1.21922
 10
15.0
 20
1.21922
 10
15.1334769999999992
 20
1.2926009999999994
 10
15.1894419999999997
 20
1.4676130000000001
 10
15.1894419999999997
 20
5.0801389999999991
  0
LWPOLYLINE
  5
48
  8
0
 62
7
370
-1
  6
ByLayer
100
AcDbEntity
100
AcDbPolyline
 90
53
 70
0
 10
21.9606290000000008
 20
4.831748000000001
 10
21.0307099999999991
 20
4.831748000000001
 10
21.0307099999999991
 20
5.0801370000000006
 10
20.9747419999999991
 20
5.254976000000001
 10
20.8412579999999998
 20
5.328183000000001
 10
18.0
 20
5.328183000000001
 10
17.8665170000000018
 20
5.254976000000001
 10
17.8105480000000007
 20
5.0801370000000006
 10
17.8105480000000007
 20
4.1317020000000007
 10
17.8665170000000018
 20
3.9566920000000003
 10
18.0
 20
3.8833130000000011
 10
20.8412579999999998
 20
3.8833130000000011
 10
21.2761309999999995
 20
3.7704840000000015
 10
21.6334890000000009
 20
3.4543970000000002
 10
21.8745740000000026
 20
2.9858660000000006
 10
21.9606290000000008
 20
2.4157030000000006
 10
21.9606290000000008
 20
1.4676110000000016
 10
21.8745740000000026
 20
0.8974480000000007
 10
21.6334890000000009
 20
0.428916000000001
 10
21.2761309999999995
 20
0.1128260000000001
 10
20.8412579999999998
 20
0.0
 10
18.0
 20
0.0
 10
17.5651270000000004
 20
0.1128260000000001
 10
17.207768999999999
 20
0.428916000000001
 10
16.9666840000000008
 20
0.8974480000000007
 10
16.880628999999999
 20
1.4676110000000016
 10
16.880628999999999
 20
1.7160030000000006
 10
17.8105480000000007
 20
1.7160030000000006
 10
17.8105480000000007
 20
1.4676110000000016
 10
17.8665170000000018
 20
1.2926000000000002
 10
18.0
 20
1.2192180000000015
 10
20.8412579999999998
 20
1.2192180000000015
 10
20.9747419999999991
 20
1.2926000000000002
 10
21.0307099999999991
 20
1.4676110000000016
 10
21.0307099999999991
 20
2.4157030000000006
 10
20.9747419999999991
 20
2.5907130000000009
 10
20.8412579999999998
 20
2.6640920000000001
 10
18.0
 20
2.6640920000000001
 10
17.5651270000000004
 20
2.7770920000000014
 10
17.207768999999999
 20
3.093179000000001
 10
16.9666840000000008
 20
3.5615390000000016
 10
16.880628999999999
 20
4.1317020000000007
 10
16.880628999999999
 20
5.0801370000000006
 10
16.9666840000000008
 20
5.6499579999999998
 10
17.207768999999999
 20
6.1184890000000021
 10
17.5651270000000004
 20
6.4345790000000012
 10
18.0
 20
6.5474049999999995
 10
20.8412579999999998
 20
6.5474049999999995
 10
21.2761309999999995
 20
6.4345790000000012
 10
21.6334890000000009
 20
6.1184890000000021
 10
21.8745740000000026
 20
5.6499579999999998
 10
21.9606290000000008
 20
5.0801370000000006
 10
21.9606290000000008
 20
4.831748000000001
  0
LWPOLYLINE
  5
49
  8
0
 62
7
370
-1
  6
ByLayer
100
AcDbEntity
100
AcDbPolyline
 90
18
 70
0
 10
23.864650000000001
 20
5.3281840000000003
 10
23.864650000000001
 20
1.4676109999999998
 10
23.9229769999999995
 20
1.2926009999999994
 10
24.0620840000000022
 20
1.21922
 10
26.0
 20
1.21922
 10
26.0
 20
0.0
 10
24.0620840000000022
 20
0.0
 10
23.6088899999999988
 20
0.1128260000000001
 10
23.2364770000000007
 20
0.4289159999999992
 10
22.9852360000000004
 20
0.8974480000000007
 10
22.8955549999999981
 20
1.4676109999999998
 10
22.8955549999999981
 20
5.0801379999999998
 10
22.8955549999999981
 20
8.6923200000000005
 10
23.864650000000001
 20
8.6923200000000005
 10
23.864650000000001
 20
6.5474049999999995
 10
26.0
 20
6.5474049999999995
 10
26.0
 20
5.3281840000000003
 10
23.864650000000001
 20
5.3281840000000003
  0
LWPOLYLINE
  5
4A
  8
0
 62
7
370
-1
  6
ByLayer
100
AcDbEntity
100
AcDbPolyline
 90
23
 70
0
 10
30.880628999999999
 20
6.5474049999999995
 10
31.3155020000000022
 20
6.4345790000000012
 10
31.67286
 20
6.1184890000000021
 10
31.9139450000000053
 20
5.6499579999999998
 10
32.0
 20
5.0801370000000006
 10
32.0
 20
2.6640920000000001
 10
27.8499189999999999
 20
2.6640920000000001
 10
27.8499189999999999
 20
1.4676110000000016
 10
27.9058880000000009
 20
1.2926000000000002
 10
28.0393710000000027
 20
1.2192180000000015
 10
32.0
 20
1.2192180000000015
 10
32.0
 20
0.0
 10
28.0393710000000027
 20
0.0
 10
27.6044979999999995
 20
0.1128260000000001
 10
27.2472720000000024
 20
0.428916000000001
 10
27.0061870000000006
 20
0.8974480000000007
 10
26.9200000000000017
 20
1.4676110000000016
 10
26.9200000000000017
 20
5.0801370000000006
 10
27.0061870000000006
 20
5.6499579999999998
 10
27.2472720000000024
 20
6.1184890000000021
 10
27.6044979999999995
 20
6.4345790000000012
 10
28.0393710000000027
 20
6.5474049999999995
 10
30.880628999999999
 20
6.5474049999999995
  0
LWPOLYLINE
  5
4B
  8
0
 62
7
370
-1
  6
ByLayer
100
AcDbEntity
100
AcDbPolyline
 90
9
 70
0
 10
31.0700810000000018
 20
3.8833130000000011
 10
31.0700810000000018
 20
5.0801370000000006
 10
31.0141130000000018
 20
5.254976000000001
 10
30.880628999999999
 20
5.328183000000001
 10
28.0393710000000027
 20
5.328183000000001
 10
27.9058880000000009
 20
5.254976000000001
 10
27.8499189999999999
 20
5.0801370000000006
 10
27.8499189999999999
 20
3.8833130000000011
 10
31.0700810000000018
 20
3.8833130000000011
  0
LWPOLYLINE
  5
4C
  8
0
 62
7
370
-1
  6
ByLayer
100
AcDbEntity
100
AcDbPolyline
 90
14
 70
0
 10
37.0112049999999968
 20
6.5474040000000002
 10
37.0112049999999968
 20
5.3281849999999995
 10
34.1914870000000022
 20
5.3281849999999995
 10
34.0565700000000007
 20
5.254975
 10
34.0
 20
5.0801389999999991
 10
34.0
 20
0.0
 10
33.0600939999999994
 20
0.0
 10
33.0600939999999994
 20
1.4676089999999995
 10
33.0600939999999994
 20
5.0801389999999991
 10
33.1470729999999989
 20
5.6499549999999985
 10
33.3907480000000021
 20
6.1184879999999993
 10
33.7519440000000017
 20
6.4345749999999988
 10
34.1914870000000022
 20
6.5474040000000002
 10
37.0112049999999968
 20
6.5474040000000002
  0
ENDSEC
  0
SECTION
  2
OBJECTS
  0
DICTIONARY
  5
C
100
AcDbDictionary
280
0
281
1
  3
ACAD_GROUP
350
D
  3
ACAD_LAYOUT
350
1A
  3
ACAD_MLINESTYLE
350
17
  3
ACAD_PLOTSETTINGS
350
19
  3
ACAD_PLOTSTYLENAME
350
E
  3
AcDbVariableDictionary
350
4D
  0
DICTIONARY
  5
D
100
AcDbDictionary
280
0
281
1
  0
ACDBDICTIONARYWDFLT
  5
E
100
AcDbDictionary
281
1
  3
Normal
350
F
100
AcDbDictionaryWithDefault
340
F
  0
ACDBPLACEHOLDER
  5
F
  0
DICTIONARY
  5
17
100
AcDbDictionary
280
0
281
1
  3
Standard
350
18
  0
MLINESTYLE
  5
18
100
AcDbMlineStyle
  2
STANDARD
 70
0
  3

 62
256
 51
90.0
 52
90.0
 71
2
 49
0.5
 62
256
  6
BYLAYER
 49
-0.5
 62
256
  6
BYLAYER
  0
DICTIONARY
  5
19
100
AcDbDictionary
280
0
281
1
  0
DICTIONARY
  5
1A
100
AcDbDictionary
281
1
  3
Layout1
350
1E
  3
Layout2
350
26
  3
Model
350
22
  0
LAYOUT
  5
1E
100
AcDbPlotSettings
  1

  2
C:\Program Files\AutoCAD 2002\plotters\DWF ePlot (optimized for plotting).pc3
  4

  6

 40
0.0
 41
0.0
 42
0.0
 43
0.0
 44
0.0
 45
0.0
 46
0.0
 47
0.0
 48
0.0
 49
0.0
140
0.0
141
0.0
142
1.0
143
1.0
 70
688
 72
0
 73
0
 74
5
  7

 75
16
147
1.0
148
0.0
149
0.0
100
AcDbLayout
  1
Layout1
 70
1
 71
1
 10
0.0
 20
0.0
 11
420.0
 21
297.0
 12
0.0
 22
0.0
 32
0.0
 14
100000000000000000000.0
 24
100000000000000000000.0
 34
100000000000000000000.0
 15
-100000000000000000000.0
 25
-100000000000000000000.0
 35
-100000000000000000000.0
146
0.0
 13
0.0
 23
0.0
 33
0.0
 16
1.0
 26
0.0
 36
0.0
 17
0.0
 27
1.0
 37
0.0
 76
0
330
1B
  0
LAYOUT
  5
22
100
AcDbPlotSettings
  1

  2
C:\Program Files\AutoCAD 2002\plotters\DWF ePlot (optimized for plotting).pc3
  4

  6

 40
0.0
 41
0.0
 42
0.0
 43
0.0
 44
0.0
 45
0.0
 46
0.0
 47
0.0
 48
0.0
 49
0.0
140
0.0
141
0.0
142
1.0
143
1.0
 70
1712
 72
0
 73
0
 74
0
  7

 75
0
147
1.0
148
0.0
149
0.0
100
AcDbLayout
  1
Model
 70
1
 71
0
 10
0.0
 20
0.0
 11
12.0
 21
9.0
 12
0.0
 22
0.0
 32
0.0
 14
0.0
 24
0.0
 34
0.0
 15
0.0
 25
0.0
 35
0.0
146
0.0
 13
0.0
 23
0.0
 33
0.0
 16
1.0
 26
0.0
 36
0.0
 17
0.0
 27
1.0
 37
0.0
 76
0
330
1F
  0
LAYOUT
  5
26
100
AcDbPlotSettings
  1

  2
C:\Program Files\AutoCAD 2002\plotters\DWF ePlot (optimized for plotting).pc3
  4

  6

 40
0.0
 41
0.0
 42
0.0
 43
0.0
 44
0.0
 45
0.0
 46
0.0
 47
0.0
 48
0.0
 49
0.0
140
0.0
141
0.0
142
1.0
143
1.0
 70
688
 72
0
 73
0
 74
5
  7

 75
16
147
1.0
148
0.0
149
0.0
100
AcDbLayout
  1
Layout2
 70
1
 71
2
 10
0.0
 20
0.0
 11
12.0
 21
9.0
 12
0.0
 22
0.0
 32
0.0
 14
0.0
 24
0.0
 34
0.0
 15
0.0
 25
0.0
 35
0.0
146
0.0
 13
0.0
 23
0.0
 33
0.0
 16
1.0
 26
0.0
 36
0.0
 17
0.0
 27
1.0
 37
0.0
 76
0
330
23
  0
DICTIONARY
  5
4D
100
AcDbDictionary
281
1
  3
DIMASSOC
350
4F
  3
HIDETEXT
350
4E
  0
DICTIONARYVAR
  5
4E
100
DictionaryVariables
280
0
  1
2
  0
DICTIONARYVAR
  5
4F
100
DictionaryVariables
280
0
  1
1
  0
ENDSEC
  0
EOF
