999
DXF created by Inkscape
  0
SECTION
  2
HEADER
  9
$ACADVER
  1
AC1014
  9
$HANDSEED
  5
FFFF
  9
$MEASUREMENT
 70
     1
  0
ENDSEC
  0
SECTION
  2
TABLES
  0
TABLE
  2
VPORT
  5
8
330
0
100
AcDbSymbolTable
 70
     4
  0
VPORT
  5
2E
330
8
100
AcDbSymbolTableRecord
100
AcDbViewportTableRecord
  2
*ACTIVE
 70
     0
 10
0.0
 20
0.0
 11
1.0
 21
1.0
 12
210.0
 22
148.5
 13
0.0
 23
0.0
 14
10.0
 24
10.0
 15
10.0
 25
10.0
 16
0.0
 26
0.0
 36
1.0
 17
0.0
 27
0.0
 37
0.0
 40
341.0
 41
1.24
 42
50.0
 43
0.0
 44
0.0
 50
0.0
 51
0.0
 71
     0
 72
   100
 73
     1
 74
     3
 75
     0
 76
     0
 77
     0
 78
     0
  0
ENDTAB
  0
TABLE
  2
LTYPE
  5
5
330
0
100
AcDbSymbolTable
 70
     1
  0
LTYPE
  5
14
330
5
100
AcDbSymbolTableRecord
100
AcDbLinetypeTableRecord
  2
BYBLOCK
 70
     0
  3

 72
    65
 73
     0
 40
0.0
  0
LTYPE
  5
15
330
5
100
AcDbSymbolTableRecord
100
AcDbLinetypeTableRecord
  2
BYLAYER
 70
     0
  3

 72
    65
 73
     0
 40
0.0
  0
LTYPE
  5
16
330
5
100
AcDbSymbolTableRecord
100
AcDbLinetypeTableRecord
  2
CONTINUOUS
 70
     0
  3
Solid line
 72
    65
 73
     0
 40
0.0
  0
ENDTAB
  0
TABLE
  2
LAYER
  5
2
100
AcDbSymbolTable
 70
1
  0
LAYER
  5
50
100
AcDbSymbolTableRecord
100
AcDbLayerTableRecord
  2
0
 70
0
  6
CONTINUOUS
  0
ENDTAB
  0
TABLE
  2
STYLE
  5
3
330
0
100
AcDbSymbolTable
 70
     1
  0
STYLE
  5
11
330
3
100
AcDbSymbolTableRecord
100
AcDbTextStyleTableRecord
  2
STANDARD
 70
     0
 40
0.0
 41
1.0
 50
0.0
 71
     0
 42
2.5
  3
txt
  4

  0
ENDTAB
  0
TABLE
  2
VIEW
  5
6
330
0
100
AcDbSymbolTable
 70
     0
  0
ENDTAB
  0
TABLE
  2
UCS
  5
7
330
0
100
AcDbSymbolTable
 70
     0
  0
ENDTAB
  0
TABLE
  2
APPID
  5
9
330
0
100
AcDbSymbolTable
 70
     2
  0
APPID
  5
12
330
9
100
AcDbSymbolTableRecord
100
AcDbRegAppTableRecord
  2
ACAD
 70
     0
  0
ENDTAB
  0
TABLE
  2
DIMSTYLE
  5
A
330
0
100
AcDbSymbolTable
 70
     1
  0
DIMSTYLE
105
27
330
A
100
AcDbSymbolTableRecord
100
AcDbDimStyleTableRecord
  2
ISO-25
 70
     0
  3

  4

  5

  6

  7

 40
1.0
 41
2.5
 42
0.625
 43
3.75
 44
1.25
 45
0.0
 46
0.0
 47
0.0
 48
0.0
140
2.5
141
2.5
142
0.0
143
0.03937007874016
144
1.0
145
0.0
146
1.0
147
0.625
 71
     0
 72
     0
 73
     0
 74
     0
 75
     0
 76
     0
 77
     1
 78
     8
170
     0
171
     3
172
     1
173
     0
174
     0
175
     0
176
     0
177
     0
178
     0
270
     2
271
     2
272
     2
273
     2
274
     3
340
11
275
     0
280
     0
281
     0
282
     0
283
     0
284
     8
285
     0
286
     0
287
     3
288
     0
  0
ENDTAB
  0
TABLE
  2
BLOCK_RECORD
  5
1
330
0
100
AcDbSymbolTable
 70
     1
  0
BLOCK_RECORD
  5
1F
330
1
100
AcDbSymbolTableRecord
100
AcDbBlockTableRecord
  2
*MODEL_SPACE
  0
BLOCK_RECORD
  5
1B
330
1
100
AcDbSymbolTableRecord
100
AcDbBlockTableRecord
  2
*PAPER_SPACE
  0
ENDTAB
  0
ENDSEC
  0
SECTION
  2
BLOCKS
  0
BLOCK
  5
20
330
1F
100
AcDbEntity
  8
0
100
AcDbBlockBegin
  2
*MODEL_SPACE
 70
     0
 10
0.0
 20
0.0
 30
0.0
  3
*MODEL_SPACE
  1

  0
ENDBLK
  5
21
330
1F
100
AcDbEntity
  8
0
100
AcDbBlockEnd
  0
BLOCK
  5
1C
330
1B
100
AcDbEntity
 67
     1
  8
0
100
AcDbBlockBegin
  2
*PAPER_SPACE
  1

  0
ENDBLK
  5
1D
330
1B
100
AcDbEntity
 67
     1
  8
0
100
AcDbBlockEnd
  0
ENDSEC
  0
SECTION
  2
ENTITIES
  0
LWPOLYLINE
  5
100
100
AcDbEntity
  8
0
 62
7
100
AcDbPolyline
 90
18
 70
0
 10
-21.365309
 20
2.850381
 30
0.0
 10
-21.365309
 20
-1.975337
 30
0.0
 10
-21.292401
 20
-2.194094
 30
0.0
 10
-21.118517
 20
-2.285817
 30
0.0
 10
-18.696122
 20
-2.285817
 30
0.0
 10
-18.696122
 20
-3.809852
 30
0.0
 10
-21.118517
 20
-3.809852
 30
0.0
 10
-21.685010
 20
-3.668811
 30
0.0
 10
-22.150526
 20
-3.273700
 30
0.0
 10
-22.464577
 20
-2.688054
 30
0.0
 10
-22.576678
 20
-1.975337
 30
0.0
 10
-22.576678
 20
2.540324
 30
0.0
 10
-22.576678
 20
7.055563
 30
0.0
 10
-21.365309
 20
7.055563
 30
0.0
 10
-21.365309
 20
4.374416
 30
0.0
 10
-18.696122
 20
4.374416
 30
0.0
 10
-18.696122
 20
2.850381
 30
0.0
 10
-21.365309
 20
2.850381
 30
0.0
  0
LWPOLYLINE
  5
101
100
AcDbEntity
  8
0
 62
7
100
AcDbPolyline
 90
19
 70
0
 10
-12.595337
 20
4.374416
 30
0.0
 10
-12.051746
 20
4.233376
 30
0.0
 10
-11.605048
 20
3.838264
 30
0.0
 10
-11.303691
 20
3.252583
 30
0.0
 10
-11.196122
 20
2.540324
 30
0.0
 10
-11.196122
 20
-3.809852
 30
0.0
 10
-16.146909
 20
-3.809852
 30
0.0
 10
-16.690501
 20
-3.668811
 30
0.0
 10
-17.137198
 20
-3.273700
 30
0.0
 10
-17.438554
 20
-2.688054
 30
0.0
 10
-17.546123
 20
-1.975337
 30
0.0
 10
-17.546123
 20
1.044300
 30
0.0
 10
-12.358521
 20
1.044300
 30
0.0
 10
-12.358521
 20
2.540324
 30
0.0
 10
-12.428482
 20
2.758870
 30
0.0
 10
-12.595337
 20
2.850381
 30
0.0
 10
-17.546123
 20
2.850381
 30
0.0
 10
-17.546123
 20
4.374416
 30
0.0
 10
-12.595337
 20
4.374416
 30
0.0
  0
LWPOLYLINE
  5
102
100
AcDbEntity
  8
0
 62
7
100
AcDbPolyline
 90
7
 70
0
 10
-12.358521
 20
-0.479736
 30
0.0
 10
-16.383724
 20
-0.479736
 30
0.0
 10
-16.383724
 20
-1.975337
 30
0.0
 10
-16.313763
 20
-2.194094
 30
0.0
 10
-16.146909
 20
-2.285817
 30
0.0
 10
-12.358521
 20
-2.285817
 30
0.0
 10
-12.358521
 20
-0.479736
 30
0.0
  0
LWPOLYLINE
  5
103
100
AcDbEntity
  8
0
 62
7
100
AcDbPolyline
 90
15
 70
0
 10
-4.946122
 20
4.374416
 30
0.0
 10
-4.402723
 20
4.233376
 30
0.0
 10
-3.956048
 20
3.838264
 30
0.0
 10
-3.654708
 20
3.252583
 30
0.0
 10
-3.546981
 20
2.540324
 30
0.0
 10
-3.546981
 20
-1.975337
 30
0.0
 10
-3.654708
 20
-2.688054
 30
0.0
 10
-3.956048
 20
-3.273700
 30
0.0
 10
-4.402723
 20
-3.668811
 30
0.0
 10
-4.946122
 20
-3.809852
 30
0.0
 10
-8.734642
 20
-3.809852
 30
0.0
 10
-8.734642
 20
-7.055549
 30
0.0
 10
-9.896981
 20
-7.055549
 30
0.0
 10
-9.896981
 20
4.374416
 30
0.0
 10
-4.946122
 20
4.374416
 30
0.0
  0
LWPOLYLINE
  5
104
100
AcDbEntity
  8
0
 62
7
100
AcDbPolyline
 90
13
 70
0
 10
-4.709320
 20
2.540324
 30
0.0
 10
-4.779276
 20
2.758870
 30
0.0
 10
-4.946122
 20
2.850381
 30
0.0
 10
-8.497839
 20
2.850381
 30
0.0
 10
-8.664685
 20
2.758870
 30
0.0
 10
-8.734642
 20
2.540324
 30
0.0
 10
-8.734642
 20
-1.975337
 30
0.0
 10
-8.664685
 20
-2.194094
 30
0.0
 10
-8.497839
 20
-2.285817
 30
0.0
 10
-4.946122
 20
-2.285817
 30
0.0
 10
-4.779276
 20
-2.194094
 30
0.0
 10
-4.709320
 20
-1.975337
 30
0.0
 10
-4.709320
 20
2.540324
 30
0.0
  0
LWPOLYLINE
  5
105
100
AcDbEntity
  8
0
 62
7
100
AcDbPolyline
 90
53
 70
0
 10
3.754664
 20
2.229845
 30
0.0
 10
2.592266
 20
2.229845
 30
0.0
 10
2.592266
 20
2.540324
 30
0.0
 10
2.522306
 20
2.758870
 30
0.0
 10
2.355450
 20
2.850381
 30
0.0
 10
-1.196122
 20
2.850381
 30
0.0
 10
-1.362976
 20
2.758870
 30
0.0
 10
-1.432937
 20
2.540324
 30
0.0
 10
-1.432937
 20
1.354779
 30
0.0
 10
-1.362976
 20
1.136022
 30
0.0
 10
-1.196122
 20
1.044300
 30
0.0
 10
2.355450
 20
1.044300
 30
0.0
 10
2.899042
 20
0.903259
 30
0.0
 10
3.345739
 20
0.508148
 30
0.0
 10
3.647095
 20
-0.077534
 30
0.0
 10
3.754664
 20
-0.790215
 30
0.0
 10
3.754664
 20
-1.975337
 30
0.0
 10
3.647095
 20
-2.688054
 30
0.0
 10
3.345739
 20
-3.273700
 30
0.0
 10
2.899042
 20
-3.668811
 30
0.0
 10
2.355450
 20
-3.809852
 30
0.0
 10
-1.196122
 20
-3.809852
 30
0.0
 10
-1.739713
 20
-3.668811
 30
0.0
 10
-2.186411
 20
-3.273700
 30
0.0
 10
-2.487767
 20
-2.688054
 30
0.0
 10
-2.595336
 20
-1.975337
 30
0.0
 10
-2.595336
 20
-1.664857
 30
0.0
 10
-1.432937
 20
-1.664857
 30
0.0
 10
-1.432937
 20
-1.975337
 30
0.0
 10
-1.362976
 20
-2.194094
 30
0.0
 10
-1.196122
 20
-2.285817
 30
0.0
 10
2.355450
 20
-2.285817
 30
0.0
 10
2.522306
 20
-2.194094
 30
0.0
 10
2.592266
 20
-1.975337
 30
0.0
 10
2.592266
 20
-0.790215
 30
0.0
 10
2.522306
 20
-0.571458
 30
0.0
 10
2.355450
 20
-0.479736
 30
0.0
 10
-1.196122
 20
-0.479736
 30
0.0
 10
-1.739713
 20
-0.338483
 30
0.0
 10
-2.186411
 20
0.056628
 30
0.0
 10
-2.487767
 20
0.642063
 30
0.0
 10
-2.595336
 20
1.354779
 30
0.0
 10
-2.595336
 20
2.540324
 30
0.0
 10
-2.487767
 20
3.252583
 30
0.0
 10
-2.186411
 20
3.838264
 30
0.0
 10
-1.739713
 20
4.233376
 30
0.0
 10
-1.196122
 20
4.374416
 30
0.0
 10
2.355450
 20
4.374416
 30
0.0
 10
2.899042
 20
4.233376
 30
0.0
 10
3.345739
 20
3.838264
 30
0.0
 10
3.647095
 20
3.252583
 30
0.0
 10
3.754664
 20
2.540324
 30
0.0
 10
3.754664
 20
2.229845
 30
0.0
  0
LWPOLYLINE
  5
106
100
AcDbEntity
  8
0
 62
7
100
AcDbPolyline
 90
18
 70
0
 10
6.134690
 20
2.850381
 30
0.0
 10
6.134690
 20
-1.975337
 30
0.0
 10
6.207599
 20
-2.194094
 30
0.0
 10
6.381483
 20
-2.285817
 30
0.0
 10
8.803878
 20
-2.285817
 30
0.0
 10
8.803878
 20
-3.809852
 30
0.0
 10
6.381483
 20
-3.809852
 30
0.0
 10
5.814990
 20
-3.668811
 30
0.0
 10
5.349474
 20
-3.273700
 30
0.0
 10
5.035423
 20
-2.688054
 30
0.0
 10
4.923322
 20
-1.975337
 30
0.0
 10
4.923322
 20
2.540324
 30
0.0
 10
4.923322
 20
7.055563
 30
0.0
 10
6.134690
 20
7.055563
 30
0.0
 10
6.134690
 20
4.374416
 30
0.0
 10
8.803878
 20
4.374416
 30
0.0
 10
8.803878
 20
2.850381
 30
0.0
 10
6.134690
 20
2.850381
 30
0.0
  0
LWPOLYLINE
  5
107
100
AcDbEntity
  8
0
 62
7
100
AcDbPolyline
 90
23
 70
0
 10
14.904664
 20
4.374416
 30
0.0
 10
15.448255
 20
4.233376
 30
0.0
 10
15.894953
 20
3.838264
 30
0.0
 10
16.196310
 20
3.252583
 30
0.0
 10
16.303879
 20
2.540324
 30
0.0
 10
16.303879
 20
-0.479736
 30
0.0
 10
11.116277
 20
-0.479736
 30
0.0
 10
11.116277
 20
-1.975337
 30
0.0
 10
11.186238
 20
-2.194094
 30
0.0
 10
11.353092
 20
-2.285817
 30
0.0
 10
16.303879
 20
-2.285817
 30
0.0
 10
16.303879
 20
-3.809852
 30
0.0
 10
11.353092
 20
-3.809852
 30
0.0
 10
10.809500
 20
-3.668811
 30
0.0
 10
10.362968
 20
-3.273700
 30
0.0
 10
10.061612
 20
-2.688054
 30
0.0
 10
9.953878
 20
-1.975337
 30
0.0
 10
9.953878
 20
2.540324
 30
0.0
 10
10.061612
 20
3.252583
 30
0.0
 10
10.362968
 20
3.838264
 30
0.0
 10
10.809500
 20
4.233376
 30
0.0
 10
11.353092
 20
4.374416
 30
0.0
 10
14.904664
 20
4.374416
 30
0.0
  0
LWPOLYLINE
  5
108
100
AcDbEntity
  8
0
 62
7
100
AcDbPolyline
 90
9
 70
0
 10
15.141480
 20
1.044300
 30
0.0
 10
15.141480
 20
2.540324
 30
0.0
 10
15.071521
 20
2.758870
 30
0.0
 10
14.904664
 20
2.850381
 30
0.0
 10
11.353092
 20
2.850381
 30
0.0
 10
11.186238
 20
2.758870
 30
0.0
 10
11.116277
 20
2.540324
 30
0.0
 10
11.116277
 20
1.044300
 30
0.0
 10
15.141480
 20
1.044300
 30
0.0
  0
LWPOLYLINE
  5
109
100
AcDbEntity
  8
0
 62
7
100
AcDbPolyline
 90
14
 70
0
 10
22.567883
 20
4.374416
 30
0.0
 10
22.567883
 20
2.850381
 30
0.0
 10
19.043237
 20
2.850381
 30
0.0
 10
18.874592
 20
2.758870
 30
0.0
 10
18.803878
 20
2.540324
 30
0.0
 10
18.803878
 20
-3.809852
 30
0.0
 10
17.628997
 20
-3.809852
 30
0.0
 10
17.628997
 20
-1.975337
 30
0.0
 10
17.628997
 20
2.540324
 30
0.0
 10
17.737720
 20
3.252583
 30
0.0
 10
18.042312
 20
3.838264
 30
0.0
 10
18.493807
 20
4.233376
 30
0.0
 10
19.043237
 20
4.374416
 30
0.0
 10
22.567883
 20
4.374416
 30
0.0
  0
ENDSEC
  0
SECTION
  2
OBJECTS
  0
DICTIONARY
  5
C
330
0
100
AcDbDictionary
  3
ACAD_GROUP
350
D
  3
ACAD_MLINESTYLE
350
17
  0
DICTIONARY
  5
D
330
C
100
AcDbDictionary
  0
DICTIONARY
  5
1A
330
C
100
AcDbDictionary
  0
DICTIONARY
  5
17
330
C
100
AcDbDictionary
  3
STANDARD
350
18
  0
DICTIONARY
  5
19
330
C
100
AcDbDictionary
  0
ENDSEC
  0
EOF
