  0
SECTION
  2
BLOCKS
  0
ENDSEC
  0
SECTION
  2
ENTITIES
  0
LINE
  8
0
 10
1.47
 11
1.47
 20
3.68
 21
4.32
  0
LINE
  8
0
 10
1.47
 11
1.629
 20
4.32
 21
4.939
  0
LINE
  8
0
 10
1.629
 11
1.937
 20
4.939
 21
5.499
  0
LINE
  8
0
 10
1.937
 11
2.375
 20
5.499
 21
5.965
  0
LINE
  8
0
 10
2.375
 11
2.914
 20
5.965
 21
6.307
  0
LINE
  8
0
 10
2.914
 11
3.522
 20
6.307
 21
6.505
  0
LINE
  8
0
 10
3.522
 11
4.16
 20
6.505
 21
6.545
  0
LINE
  8
0
 10
4.16
 11
4.788
 20
6.545
 21
6.425
  0
LINE
  8
0
 10
4.788
 11
5.366
 20
6.425
 21
6.153
  0
LINE
  8
0
 10
5.366
 11
5.859
 20
6.153
 21
5.746
  0
LINE
  8
0
 10
5.859
 11
6.235
 20
5.746
 21
5.228
  0
LINE
  8
0
 10
6.235
 11
6.47
 20
5.228
 21
4.634
  0
LINE
  8
0
 10
6.47
 11
6.55
 20
4.634
 21
4
  0
LINE
  8
0
 10
6.55
 11
6.47
 20
4
 21
3.366
  0
LINE
  8
0
 10
6.47
 11
6.235
 20
3.366
 21
2.772
  0
LINE
  8
0
 10
6.235
 11
5.859
 20
2.772
 21
2.254
  0
LINE
  8
0
 10
5.859
 11
5.366
 20
2.254
 21
1.847
  0
LINE
  8
0
 10
5.366
 11
4.788
 20
1.847
 21
1.575
  0
LINE
  8
0
 10
4.788
 11
4.16
 20
1.575
 21
1.455
  0
LINE
  8
0
 10
4.16
 11
3.522
 20
1.455
 21
1.495
  0
LINE
  8
0
 10
3.522
 11
2.914
 20
1.495
 21
1.693
  0
LINE
  8
0
 10
2.914
 11
2.375
 20
1.693
 21
2.035
  0
LINE
  8
0
 10
2.375
 11
1.937
 20
2.035
 21
2.501
  0
LINE
  8
0
 10
1.937
 11
1.629
 20
2.501
 21
3.061
  0
LINE
  8
0
 10
1.629
 11
1.47
 20
3.061
 21
3.68
  0
LINE
  8
0
 10
1.47
 11
1.47
 20
67.68
 21
68.32
  0
LINE
  8
0
 10
1.47
 11
1.629
 20
68.32
 21
68.939
  0
LINE
  8
0
 10
1.629
 11
1.937
 20
68.939
 21
69.499
  0
LINE
  8
0
 10
1.937
 11
2.375
 20
69.499
 21
69.965
  0
LINE
  8
0
 10
2.375
 11
2.914
 20
69.965
 21
70.307
  0
LINE
  8
0
 10
2.914
 11
3.522
 20
70.307
 21
70.505
  0
LINE
  8
0
 10
3.522
 11
4.16
 20
70.505
 21
70.545
  0
LINE
  8
0
 10
4.16
 11
4.788
 20
70.545
 21
70.425
  0
LINE
  8
0
 10
4.788
 11
5.366
 20
70.425
 21
70.153
  0
LINE
  8
0
 10
5.366
 11
5.859
 20
70.153
 21
69.746
  0
LINE
  8
0
 10
5.859
 11
6.235
 20
69.746
 21
69.228
  0
LINE
  8
0
 10
6.235
 11
6.47
 20
69.228
 21
68.634
  0
LINE
  8
0
 10
6.47
 11
6.55
 20
68.634
 21
68
  0
LINE
  8
0
 10
6.55
 11
6.47
 20
68
 21
67.366
  0
LINE
  8
0
 10
6.47
 11
6.235
 20
67.366
 21
66.772
  0
LINE
  8
0
 10
6.235
 11
5.859
 20
66.772
 21
66.254
  0
LINE
  8
0
 10
5.859
 11
5.366
 20
66.254
 21
65.847
  0
LINE
  8
0
 10
5.366
 11
4.788
 20
65.847
 21
65.575
  0
LINE
  8
0
 10
4.788
 11
4.16
 20
65.575
 21
65.455
  0
LINE
  8
0
 10
4.16
 11
3.522
 20
65.455
 21
65.495
  0
LINE
  8
0
 10
3.522
 11
2.914
 20
65.495
 21
65.693
  0
LINE
  8
0
 10
2.914
 11
2.375
 20
65.693
 21
66.035
  0
LINE
  8
0
 10
2.375
 11
1.937
 20
66.035
 21
66.501
  0
LINE
  8
0
 10
1.937
 11
1.629
 20
66.501
 21
67.061
  0
LINE
  8
0
 10
1.629
 11
1.47
 20
67.061
 21
67.68
  0
LINE
  8
0
 10
9.47
 11
9.47
 20
3.68
 21
4.32
  0
LINE
  8
0
 10
9.47
 11
9.629
 20
4.32
 21
4.939
  0
LINE
  8
0
 10
9.629
 11
9.937
 20
4.939
 21
5.499
  0
LINE
  8
0
 10
9.937
 11
10.375
 20
5.499
 21
5.965
  0
LINE
  8
0
 10
10.375
 11
10.914
 20
5.965
 21
6.307
  0
LINE
  8
0
 10
10.914
 11
11.522
 20
6.307
 21
6.505
  0
LINE
  8
0
 10
11.522
 11
12.16
 20
6.505
 21
6.545
  0
LINE
  8
0
 10
12.16
 11
12.788
 20
6.545
 21
6.425
  0
LINE
  8
0
 10
12.788
 11
13.366
 20
6.425
 21
6.153
  0
LINE
  8
0
 10
13.366
 11
13.859
 20
6.153
 21
5.746
  0
LINE
  8
0
 10
13.859
 11
14.235
 20
5.746
 21
5.228
  0
LINE
  8
0
 10
14.235
 11
14.47
 20
5.228
 21
4.634
  0
LINE
  8
0
 10
14.47
 11
14.55
 20
4.634
 21
4
  0
LINE
  8
0
 10
14.55
 11
14.47
 20
4
 21
3.366
  0
LINE
  8
0
 10
14.47
 11
14.235
 20
3.366
 21
2.772
  0
LINE
  8
0
 10
14.235
 11
13.859
 20
2.772
 21
2.254
  0
LINE
  8
0
 10
13.859
 11
13.366
 20
2.254
 21
1.847
  0
LINE
  8
0
 10
13.366
 11
12.788
 20
1.847
 21
1.575
  0
LINE
  8
0
 10
12.788
 11
12.16
 20
1.575
 21
1.455
  0
LINE
  8
0
 10
12.16
 11
11.522
 20
1.455
 21
1.495
  0
LINE
  8
0
 10
11.522
 11
10.914
 20
1.495
 21
1.693
  0
LINE
  8
0
 10
10.914
 11
10.375
 20
1.693
 21
2.035
  0
LINE
  8
0
 10
10.375
 11
9.937
 20
2.035
 21
2.501
  0
LINE
  8
0
 10
9.937
 11
9.629
 20
2.501
 21
3.061
  0
LINE
  8
0
 10
9.629
 11
9.47
 20
3.061
 21
3.68
  0
LINE
  8
0
 10
9.47
 11
9.47
 20
67.68
 21
68.32
  0
LINE
  8
0
 10
9.47
 11
9.629
 20
68.32
 21
68.939
  0
LINE
  8
0
 10
9.629
 11
9.937
 20
68.939
 21
69.499
  0
LINE
  8
0
 10
9.937
 11
10.375
 20
69.499
 21
69.965
  0
LINE
  8
0
 10
10.375
 11
10.914
 20
69.965
 21
70.307
  0
LINE
  8
0
 10
10.914
 11
11.522
 20
70.307
 21
70.505
  0
LINE
  8
0
 10
11.522
 11
12.16
 20
70.505
 21
70.545
  0
LINE
  8
0
 10
12.16
 11
12.788
 20
70.545
 21
70.425
  0
LINE
  8
0
 10
12.788
 11
13.366
 20
70.425
 21
70.153
  0
LINE
  8
0
 10
13.366
 11
13.859
 20
70.153
 21
69.746
  0
LINE
  8
0
 10
13.859
 11
14.235
 20
69.746
 21
69.228
  0
LINE
  8
0
 10
14.235
 11
14.47
 20
69.228
 21
68.634
  0
LINE
  8
0
 10
14.47
 11
14.55
 20
68.634
 21
68
  0
LINE
  8
0
 10
14.55
 11
14.47
 20
68
 21
67.366
  0
LINE
  8
0
 10
14.47
 11
14.235
 20
67.366
 21
66.772
  0
LINE
  8
0
 10
14.235
 11
13.859
 20
66.772
 21
66.254
  0
LINE
  8
0
 10
13.859
 11
13.366
 20
66.254
 21
65.847
  0
LINE
  8
0
 10
13.366
 11
12.788
 20
65.847
 21
65.575
  0
LINE
  8
0
 10
12.788
 11
12.16
 20
65.575
 21
65.455
  0
LINE
  8
0
 10
12.16
 11
11.522
 20
65.455
 21
65.495
  0
LINE
  8
0
 10
11.522
 11
10.914
 20
65.495
 21
65.693
  0
LINE
  8
0
 10
10.914
 11
10.375
 20
65.693
 21
66.035
  0
LINE
  8
0
 10
10.375
 11
9.937
 20
66.035
 21
66.501
  0
LINE
  8
0
 10
9.937
 11
9.629
 20
66.501
 21
67.061
  0
LINE
  8
0
 10
9.629
 11
9.47
 20
67.061
 21
67.68
  0
LINE
  8
0
 10
14.419
 11
14.419
 20
11.409
 21
11.785
  0
LINE
  8
0
 10
14.419
 11
14.512
 20
11.785
 21
12.149
  0
LINE
  8
0
 10
14.512
 11
14.694
 20
12.149
 21
12.479
  0
LINE
  8
0
 10
14.694
 11
14.951
 20
12.479
 21
12.753
  0
LINE
  8
0
 10
14.951
 11
15.268
 20
12.753
 21
12.955
  0
LINE
  8
0
 10
15.268
 11
15.626
 20
12.955
 21
13.071
  0
LINE
  8
0
 10
15.626
 11
16.001
 20
13.071
 21
13.094
  0
LINE
  8
0
 10
16.001
 11
16.371
 20
13.094
 21
13.024
  0
LINE
  8
0
 10
16.371
 11
16.711
 20
13.024
 21
12.864
  0
LINE
  8
0
 10
16.711
 11
17.001
 20
12.864
 21
12.624
  0
LINE
  8
0
 10
17.001
 11
17.222
 20
12.624
 21
12.32
  0
LINE
  8
0
 10
17.222
 11
17.36
 20
12.32
 21
11.97
  0
LINE
  8
0
 10
17.36
 11
17.407
 20
11.97
 21
11.597
  0
LINE
  8
0
 10
17.407
 11
17.36
 20
11.597
 21
11.224
  0
LINE
  8
0
 10
17.36
 11
17.222
 20
11.224
 21
10.875
  0
LINE
  8
0
 10
17.222
 11
17.001
 20
10.875
 21
10.57
  0
LINE
  8
0
 10
17.001
 11
16.711
 20
10.57
 21
10.331
  0
LINE
  8
0
 10
16.711
 11
16.371
 20
10.331
 21
10.171
  0
LINE
  8
0
 10
16.371
 11
16.001
 20
10.171
 21
10.1
  0
LINE
  8
0
 10
16.001
 11
15.626
 20
10.1
 21
10.124
  0
LINE
  8
0
 10
15.626
 11
15.268
 20
10.124
 21
10.24
  0
LINE
  8
0
 10
15.268
 11
14.951
 20
10.24
 21
10.442
  0
LINE
  8
0
 10
14.951
 11
14.694
 20
10.442
 21
10.716
  0
LINE
  8
0
 10
14.694
 11
14.512
 20
10.716
 21
11.045
  0
LINE
  8
0
 10
14.512
 11
14.419
 20
11.045
 21
11.409
  0
LINE
  8
0
 10
15.512
 11
15.512
 20
59.812
 21
60.188
  0
LINE
  8
0
 10
15.512
 11
15.605
 20
60.188
 21
60.552
  0
LINE
  8
0
 10
15.605
 11
15.786
 20
60.552
 21
60.882
  0
LINE
  8
0
 10
15.786
 11
16.044
 20
60.882
 21
61.156
  0
LINE
  8
0
 10
16.044
 11
16.361
 20
61.156
 21
61.357
  0
LINE
  8
0
 10
16.361
 11
16.719
 20
61.357
 21
61.473
  0
LINE
  8
0
 10
16.719
 11
17.094
 20
61.473
 21
61.497
  0
LINE
  8
0
 10
17.094
 11
17.464
 20
61.497
 21
61.427
  0
LINE
  8
0
 10
17.464
 11
17.804
 20
61.427
 21
61.266
  0
LINE
  8
0
 10
17.804
 11
18.093
 20
61.266
 21
61.027
  0
LINE
  8
0
 10
18.093
 11
18.314
 20
61.027
 21
60.723
  0
LINE
  8
0
 10
18.314
 11
18.453
 20
60.723
 21
60.373
  0
LINE
  8
0
 10
18.453
 11
18.5
 20
60.373
 21
60
  0
LINE
  8
0
 10
18.5
 11
18.453
 20
60
 21
59.627
  0
LINE
  8
0
 10
18.453
 11
18.314
 20
59.627
 21
59.277
  0
LINE
  8
0
 10
18.314
 11
18.093
 20
59.277
 21
58.973
  0
LINE
  8
0
 10
18.093
 11
17.804
 20
58.973
 21
58.734
  0
LINE
  8
0
 10
17.804
 11
17.464
 20
58.734
 21
58.573
  0
LINE
  8
0
 10
17.464
 11
17.094
 20
58.573
 21
58.503
  0
LINE
  8
0
 10
17.094
 11
16.719
 20
58.503
 21
58.527
  0
LINE
  8
0
 10
16.719
 11
16.361
 20
58.527
 21
58.643
  0
LINE
  8
0
 10
16.361
 11
16.044
 20
58.643
 21
58.844
  0
LINE
  8
0
 10
16.044
 11
15.786
 20
58.844
 21
59.118
  0
LINE
  8
0
 10
15.786
 11
15.605
 20
59.118
 21
59.448
  0
LINE
  8
0
 10
15.605
 11
15.512
 20
59.448
 21
59.812
  0
LINE
  8
0
 10
17.47
 11
17.47
 20
3.68
 21
4.32
  0
LINE
  8
0
 10
17.47
 11
17.629
 20
4.32
 21
4.939
  0
LINE
  8
0
 10
17.629
 11
17.937
 20
4.939
 21
5.499
  0
LINE
  8
0
 10
17.937
 11
18.375
 20
5.499
 21
5.965
  0
LINE
  8
0
 10
18.375
 11
18.914
 20
5.965
 21
6.307
  0
LINE
  8
0
 10
18.914
 11
19.522
 20
6.307
 21
6.505
  0
LINE
  8
0
 10
19.522
 11
20.16
 20
6.505
 21
6.545
  0
LINE
  8
0
 10
20.16
 11
20.788
 20
6.545
 21
6.425
  0
LINE
  8
0
 10
20.788
 11
21.366
 20
6.425
 21
6.153
  0
LINE
  8
0
 10
21.366
 11
21.859
 20
6.153
 21
5.746
  0
LINE
  8
0
 10
21.859
 11
22.235
 20
5.746
 21
5.228
  0
LINE
  8
0
 10
22.235
 11
22.47
 20
5.228
 21
4.634
  0
LINE
  8
0
 10
22.47
 11
22.55
 20
4.634
 21
4
  0
LINE
  8
0
 10
22.55
 11
22.47
 20
4
 21
3.366
  0
LINE
  8
0
 10
22.47
 11
22.235
 20
3.366
 21
2.772
  0
LINE
  8
0
 10
22.235
 11
21.859
 20
2.772
 21
2.254
  0
LINE
  8
0
 10
21.859
 11
21.366
 20
2.254
 21
1.847
  0
LINE
  8
0
 10
21.366
 11
20.788
 20
1.847
 21
1.575
  0
LINE
  8
0
 10
20.788
 11
20.16
 20
1.575
 21
1.455
  0
LINE
  8
0
 10
20.16
 11
19.522
 20
1.455
 21
1.495
  0
LINE
  8
0
 10
19.522
 11
18.914
 20
1.495
 21
1.693
  0
LINE
  8
0
 10
18.914
 11
18.375
 20
1.693
 21
2.035
  0
LINE
  8
0
 10
18.375
 11
17.937
 20
2.035
 21
2.501
  0
LINE
  8
0
 10
17.937
 11
17.629
 20
2.501
 21
3.061
  0
LINE
  8
0
 10
17.629
 11
17.47
 20
3.061
 21
3.68
  0
LINE
  8
0
 10
17.47
 11
17.47
 20
67.68
 21
68.32
  0
LINE
  8
0
 10
17.47
 11
17.629
 20
68.32
 21
68.939
  0
LINE
  8
0
 10
17.629
 11
17.937
 20
68.939
 21
69.499
  0
LINE
  8
0
 10
17.937
 11
18.375
 20
69.499
 21
69.965
  0
LINE
  8
0
 10
18.375
 11
18.914
 20
69.965
 21
70.307
  0
LINE
  8
0
 10
18.914
 11
19.522
 20
70.307
 21
70.505
  0
LINE
  8
0
 10
19.522
 11
20.16
 20
70.505
 21
70.545
  0
LINE
  8
0
 10
20.16
 11
20.788
 20
70.545
 21
70.425
  0
LINE
  8
0
 10
20.788
 11
21.366
 20
70.425
 21
70.153
  0
LINE
  8
0
 10
21.366
 11
21.859
 20
70.153
 21
69.746
  0
LINE
  8
0
 10
21.859
 11
22.235
 20
69.746
 21
69.228
  0
LINE
  8
0
 10
22.235
 11
22.47
 20
69.228
 21
68.634
  0
LINE
  8
0
 10
22.47
 11
22.55
 20
68.634
 21
68
  0
LINE
  8
0
 10
22.55
 11
22.47
 20
68
 21
67.366
  0
LINE
  8
0
 10
22.47
 11
22.235
 20
67.366
 21
66.772
  0
LINE
  8
0
 10
22.235
 11
21.859
 20
66.772
 21
66.254
  0
LINE
  8
0
 10
21.859
 11
21.366
 20
66.254
 21
65.847
  0
LINE
  8
0
 10
21.366
 11
20.788
 20
65.847
 21
65.575
  0
LINE
  8
0
 10
20.788
 11
20.16
 20
65.575
 21
65.455
  0
LINE
  8
0
 10
20.16
 11
19.522
 20
65.455
 21
65.495
  0
LINE
  8
0
 10
19.522
 11
18.914
 20
65.495
 21
65.693
  0
LINE
  8
0
 10
18.914
 11
18.375
 20
65.693
 21
66.035
  0
LINE
  8
0
 10
18.375
 11
17.937
 20
66.035
 21
66.501
  0
LINE
  8
0
 10
17.937
 11
17.629
 20
66.501
 21
67.061
  0
LINE
  8
0
 10
17.629
 11
17.47
 20
67.061
 21
67.68
  0
LINE
  8
0
 10
25.47
 11
25.47
 20
3.68
 21
4.32
  0
LINE
  8
0
 10
25.47
 11
25.629
 20
4.32
 21
4.939
  0
LINE
  8
0
 10
25.629
 11
25.937
 20
4.939
 21
5.499
  0
LINE
  8
0
 10
25.937
 11
26.375
 20
5.499
 21
5.965
  0
LINE
  8
0
 10
26.375
 11
26.914
 20
5.965
 21
6.307
  0
LINE
  8
0
 10
26.914
 11
27.522
 20
6.307
 21
6.505
  0
LINE
  8
0
 10
27.522
 11
28.16
 20
6.505
 21
6.545
  0
LINE
  8
0
 10
28.16
 11
28.788
 20
6.545
 21
6.425
  0
LINE
  8
0
 10
28.788
 11
29.366
 20
6.425
 21
6.153
  0
LINE
  8
0
 10
29.366
 11
29.859
 20
6.153
 21
5.746
  0
LINE
  8
0
 10
29.859
 11
30.235
 20
5.746
 21
5.228
  0
LINE
  8
0
 10
30.235
 11
30.47
 20
5.228
 21
4.634
  0
LINE
  8
0
 10
30.47
 11
30.55
 20
4.634
 21
4
  0
LINE
  8
0
 10
30.55
 11
30.47
 20
4
 21
3.366
  0
LINE
  8
0
 10
30.47
 11
30.235
 20
3.366
 21
2.772
  0
LINE
  8
0
 10
30.235
 11
29.859
 20
2.772
 21
2.254
  0
LINE
  8
0
 10
29.859
 11
29.366
 20
2.254
 21
1.847
  0
LINE
  8
0
 10
29.366
 11
28.788
 20
1.847
 21
1.575
  0
LINE
  8
0
 10
28.788
 11
28.16
 20
1.575
 21
1.455
  0
LINE
  8
0
 10
28.16
 11
27.522
 20
1.455
 21
1.495
  0
LINE
  8
0
 10
27.522
 11
26.914
 20
1.495
 21
1.693
  0
LINE
  8
0
 10
26.914
 11
26.375
 20
1.693
 21
2.035
  0
LINE
  8
0
 10
26.375
 11
25.937
 20
2.035
 21
2.501
  0
LINE
  8
0
 10
25.937
 11
25.629
 20
2.501
 21
3.061
  0
LINE
  8
0
 10
25.629
 11
25.47
 20
3.061
 21
3.68
  0
LINE
  8
0
 10
25.47
 11
25.47
 20
67.68
 21
68.32
  0
LINE
  8
0
 10
25.47
 11
25.629
 20
68.32
 21
68.939
  0
LINE
  8
0
 10
25.629
 11
25.937
 20
68.939
 21
69.499
  0
LINE
  8
0
 10
25.937
 11
26.375
 20
69.499
 21
69.965
  0
LINE
  8
0
 10
26.375
 11
26.914
 20
69.965
 21
70.307
  0
LINE
  8
0
 10
26.914
 11
27.522
 20
70.307
 21
70.505
  0
LINE
  8
0
 10
27.522
 11
28.16
 20
70.505
 21
70.545
  0
LINE
  8
0
 10
28.16
 11
28.788
 20
70.545
 21
70.425
  0
LINE
  8
0
 10
28.788
 11
29.366
 20
70.425
 21
70.153
  0
LINE
  8
0
 10
29.366
 11
29.859
 20
70.153
 21
69.746
  0
LINE
  8
0
 10
29.859
 11
30.235
 20
69.746
 21
69.228
  0
LINE
  8
0
 10
30.235
 11
30.47
 20
69.228
 21
68.634
  0
LINE
  8
0
 10
30.47
 11
30.55
 20
68.634
 21
68
  0
LINE
  8
0
 10
30.55
 11
30.47
 20
68
 21
67.366
  0
LINE
  8
0
 10
30.47
 11
30.235
 20
67.366
 21
66.772
  0
LINE
  8
0
 10
30.235
 11
29.859
 20
66.772
 21
66.254
  0
LINE
  8
0
 10
29.859
 11
29.366
 20
66.254
 21
65.847
  0
LINE
  8
0
 10
29.366
 11
28.788
 20
65.847
 21
65.575
  0
LINE
  8
0
 10
28.788
 11
28.16
 20
65.575
 21
65.455
  0
LINE
  8
0
 10
28.16
 11
27.522
 20
65.455
 21
65.495
  0
LINE
  8
0
 10
27.522
 11
26.914
 20
65.495
 21
65.693
  0
LINE
  8
0
 10
26.914
 11
26.375
 20
65.693
 21
66.035
  0
LINE
  8
0
 10
26.375
 11
25.937
 20
66.035
 21
66.501
  0
LINE
  8
0
 10
25.937
 11
25.629
 20
66.501
 21
67.061
  0
LINE
  8
0
 10
25.629
 11
25.47
 20
67.061
 21
67.68
  0
LINE
  8
0
 10
33.47
 11
33.47
 20
3.68
 21
4.32
  0
LINE
  8
0
 10
33.47
 11
33.629
 20
4.32
 21
4.939
  0
LINE
  8
0
 10
33.629
 11
33.937
 20
4.939
 21
5.499
  0
LINE
  8
0
 10
33.937
 11
34.375
 20
5.499
 21
5.965
  0
LINE
  8
0
 10
34.375
 11
34.914
 20
5.965
 21
6.307
  0
LINE
  8
0
 10
34.914
 11
35.522
 20
6.307
 21
6.505
  0
LINE
  8
0
 10
35.522
 11
36.16
 20
6.505
 21
6.545
  0
LINE
  8
0
 10
36.16
 11
36.788
 20
6.545
 21
6.425
  0
LINE
  8
0
 10
36.788
 11
37.366
 20
6.425
 21
6.153
  0
LINE
  8
0
 10
37.366
 11
37.859
 20
6.153
 21
5.746
  0
LINE
  8
0
 10
37.859
 11
38.235
 20
5.746
 21
5.228
  0
LINE
  8
0
 10
38.235
 11
38.47
 20
5.228
 21
4.634
  0
LINE
  8
0
 10
38.47
 11
38.55
 20
4.634
 21
4
  0
LINE
  8
0
 10
38.55
 11
38.47
 20
4
 21
3.366
  0
LINE
  8
0
 10
38.47
 11
38.235
 20
3.366
 21
2.772
  0
LINE
  8
0
 10
38.235
 11
37.859
 20
2.772
 21
2.254
  0
LINE
  8
0
 10
37.859
 11
37.366
 20
2.254
 21
1.847
  0
LINE
  8
0
 10
37.366
 11
36.788
 20
1.847
 21
1.575
  0
LINE
  8
0
 10
36.788
 11
36.16
 20
1.575
 21
1.455
  0
LINE
  8
0
 10
36.16
 11
35.522
 20
1.455
 21
1.495
  0
LINE
  8
0
 10
35.522
 11
34.914
 20
1.495
 21
1.693
  0
LINE
  8
0
 10
34.914
 11
34.375
 20
1.693
 21
2.035
  0
LINE
  8
0
 10
34.375
 11
33.937
 20
2.035
 21
2.501
  0
LINE
  8
0
 10
33.937
 11
33.629
 20
2.501
 21
3.061
  0
LINE
  8
0
 10
33.629
 11
33.47
 20
3.061
 21
3.68
  0
LINE
  8
0
 10
33.47
 11
33.47
 20
67.68
 21
68.32
  0
LINE
  8
0
 10
33.47
 11
33.629
 20
68.32
 21
68.939
  0
LINE
  8
0
 10
33.629
 11
33.937
 20
68.939
 21
69.499
  0
LINE
  8
0
 10
33.937
 11
34.375
 20
69.499
 21
69.965
  0
LINE
  8
0
 10
34.375
 11
34.914
 20
69.965
 21
70.307
  0
LINE
  8
0
 10
34.914
 11
35.522
 20
70.307
 21
70.505
  0
LINE
  8
0
 10
35.522
 11
36.16
 20
70.505
 21
70.545
  0
LINE
  8
0
 10
36.16
 11
36.788
 20
70.545
 21
70.425
  0
LINE
  8
0
 10
36.788
 11
37.366
 20
70.425
 21
70.153
  0
LINE
  8
0
 10
37.366
 11
37.859
 20
70.153
 21
69.746
  0
LINE
  8
0
 10
37.859
 11
38.235
 20
69.746
 21
69.228
  0
LINE
  8
0
 10
38.235
 11
38.47
 20
69.228
 21
68.634
  0
LINE
  8
0
 10
38.47
 11
38.55
 20
68.634
 21
68
  0
LINE
  8
0
 10
38.55
 11
38.47
 20
68
 21
67.366
  0
LINE
  8
0
 10
38.47
 11
38.235
 20
67.366
 21
66.772
  0
LINE
  8
0
 10
38.235
 11
37.859
 20
66.772
 21
66.254
  0
LINE
  8
0
 10
37.859
 11
37.366
 20
66.254
 21
65.847
  0
LINE
  8
0
 10
37.366
 11
36.788
 20
65.847
 21
65.575
  0
LINE
  8
0
 10
36.788
 11
36.16
 20
65.575
 21
65.455
  0
LINE
  8
0
 10
36.16
 11
35.522
 20
65.455
 21
65.495
  0
LINE
  8
0
 10
35.522
 11
34.914
 20
65.495
 21
65.693
  0
LINE
  8
0
 10
34.914
 11
34.375
 20
65.693
 21
66.035
  0
LINE
  8
0
 10
34.375
 11
33.937
 20
66.035
 21
66.501
  0
LINE
  8
0
 10
33.937
 11
33.629
 20
66.501
 21
67.061
  0
LINE
  8
0
 10
33.629
 11
33.47
 20
67.061
 21
67.68
  0
LINE
  8
0
 10
41.47
 11
41.47
 20
3.68
 21
4.32
  0
LINE
  8
0
 10
41.47
 11
41.629
 20
4.32
 21
4.939
  0
LINE
  8
0
 10
41.629
 11
41.937
 20
4.939
 21
5.499
  0
LINE
  8
0
 10
41.937
 11
42.375
 20
5.499
 21
5.965
  0
LINE
  8
0
 10
42.375
 11
42.914
 20
5.965
 21
6.307
  0
LINE
  8
0
 10
42.914
 11
43.522
 20
6.307
 21
6.505
  0
LINE
  8
0
 10
43.522
 11
44.16
 20
6.505
 21
6.545
  0
LINE
  8
0
 10
44.16
 11
44.788
 20
6.545
 21
6.425
  0
LINE
  8
0
 10
44.788
 11
45.366
 20
6.425
 21
6.153
  0
LINE
  8
0
 10
45.366
 11
45.859
 20
6.153
 21
5.746
  0
LINE
  8
0
 10
45.859
 11
46.235
 20
5.746
 21
5.228
  0
LINE
  8
0
 10
46.235
 11
46.47
 20
5.228
 21
4.634
  0
LINE
  8
0
 10
46.47
 11
46.55
 20
4.634
 21
4
  0
LINE
  8
0
 10
46.55
 11
46.47
 20
4
 21
3.366
  0
LINE
  8
0
 10
46.47
 11
46.235
 20
3.366
 21
2.772
  0
LINE
  8
0
 10
46.235
 11
45.859
 20
2.772
 21
2.254
  0
LINE
  8
0
 10
45.859
 11
45.366
 20
2.254
 21
1.847
  0
LINE
  8
0
 10
45.366
 11
44.788
 20
1.847
 21
1.575
  0
LINE
  8
0
 10
44.788
 11
44.16
 20
1.575
 21
1.455
  0
LINE
  8
0
 10
44.16
 11
43.522
 20
1.455
 21
1.495
  0
LINE
  8
0
 10
43.522
 11
42.914
 20
1.495
 21
1.693
  0
LINE
  8
0
 10
42.914
 11
42.375
 20
1.693
 21
2.035
  0
LINE
  8
0
 10
42.375
 11
41.937
 20
2.035
 21
2.501
  0
LINE
  8
0
 10
41.937
 11
41.629
 20
2.501
 21
3.061
  0
LINE
  8
0
 10
41.629
 11
41.47
 20
3.061
 21
3.68
  0
LINE
  8
0
 10
41.47
 11
41.47
 20
67.68
 21
68.32
  0
LINE
  8
0
 10
41.47
 11
41.629
 20
68.32
 21
68.939
  0
LINE
  8
0
 10
41.629
 11
41.937
 20
68.939
 21
69.499
  0
LINE
  8
0
 10
41.937
 11
42.375
 20
69.499
 21
69.965
  0
LINE
  8
0
 10
42.375
 11
42.914
 20
69.965
 21
70.307
  0
LINE
  8
0
 10
42.914
 11
43.522
 20
70.307
 21
70.505
  0
LINE
  8
0
 10
43.522
 11
44.16
 20
70.505
 21
70.545
  0
LINE
  8
0
 10
44.16
 11
44.788
 20
70.545
 21
70.425
  0
LINE
  8
0
 10
44.788
 11
45.366
 20
70.425
 21
70.153
  0
LINE
  8
0
 10
45.366
 11
45.859
 20
70.153
 21
69.746
  0
LINE
  8
0
 10
45.859
 11
46.235
 20
69.746
 21
69.228
  0
LINE
  8
0
 10
46.235
 11
46.47
 20
69.228
 21
68.634
  0
LINE
  8
0
 10
46.47
 11
46.55
 20
68.634
 21
68
  0
LINE
  8
0
 10
46.55
 11
46.47
 20
68
 21
67.366
  0
LINE
  8
0
 10
46.47
 11
46.235
 20
67.366
 21
66.772
  0
LINE
  8
0
 10
46.235
 11
45.859
 20
66.772
 21
66.254
  0
LINE
  8
0
 10
45.859
 11
45.366
 20
66.254
 21
65.847
  0
LINE
  8
0
 10
45.366
 11
44.788
 20
65.847
 21
65.575
  0
LINE
  8
0
 10
44.788
 11
44.16
 20
65.575
 21
65.455
  0
LINE
  8
0
 10
44.16
 11
43.522
 20
65.455
 21
65.495
  0
LINE
  8
0
 10
43.522
 11
42.914
 20
65.495
 21
65.693
  0
LINE
  8
0
 10
42.914
 11
42.375
 20
65.693
 21
66.035
  0
LINE
  8
0
 10
42.375
 11
41.937
 20
66.035
 21
66.501
  0
LINE
  8
0
 10
41.937
 11
41.629
 20
66.501
 21
67.061
  0
LINE
  8
0
 10
41.629
 11
41.47
 20
67.061
 21
67.68
  0
LINE
  8
0
 10
0
 11
0
 20
0
 21
72
  0
LINE
  8
0
 10
0
 11
72
 20
72
 21
72
  0
LINE
  8
0
 10
72
 11
72
 20
72
 21
0
  0
LINE
  8
0
 10
72
 11
0
 20
0
 21
0
  0
LINE
  8
0
 10
49.47
 11
49.47
 20
3.68
 21
4.32
  0
LINE
  8
0
 10
49.47
 11
49.629
 20
4.32
 21
4.939
  0
LINE
  8
0
 10
49.629
 11
49.937
 20
4.939
 21
5.499
  0
LINE
  8
0
 10
49.937
 11
50.375
 20
5.499
 21
5.965
  0
LINE
  8
0
 10
50.375
 11
50.914
 20
5.965
 21
6.307
  0
LINE
  8
0
 10
50.914
 11
51.522
 20
6.307
 21
6.505
  0
LINE
  8
0
 10
51.522
 11
52.16
 20
6.505
 21
6.545
  0
LINE
  8
0
 10
52.16
 11
52.788
 20
6.545
 21
6.425
  0
LINE
  8
0
 10
52.788
 11
53.366
 20
6.425
 21
6.153
  0
LINE
  8
0
 10
53.366
 11
53.859
 20
6.153
 21
5.746
  0
LINE
  8
0
 10
53.859
 11
54.235
 20
5.746
 21
5.228
  0
LINE
  8
0
 10
54.235
 11
54.47
 20
5.228
 21
4.634
  0
LINE
  8
0
 10
54.47
 11
54.55
 20
4.634
 21
4
  0
LINE
  8
0
 10
54.55
 11
54.47
 20
4
 21
3.366
  0
LINE
  8
0
 10
54.47
 11
54.235
 20
3.366
 21
2.772
  0
LINE
  8
0
 10
54.235
 11
53.859
 20
2.772
 21
2.254
  0
LINE
  8
0
 10
53.859
 11
53.366
 20
2.254
 21
1.847
  0
LINE
  8
0
 10
53.366
 11
52.788
 20
1.847
 21
1.575
  0
LINE
  8
0
 10
52.788
 11
52.16
 20
1.575
 21
1.455
  0
LINE
  8
0
 10
52.16
 11
51.522
 20
1.455
 21
1.495
  0
LINE
  8
0
 10
51.522
 11
50.914
 20
1.495
 21
1.693
  0
LINE
  8
0
 10
50.914
 11
50.375
 20
1.693
 21
2.035
  0
LINE
  8
0
 10
50.375
 11
49.937
 20
2.035
 21
2.501
  0
LINE
  8
0
 10
49.937
 11
49.629
 20
2.501
 21
3.061
  0
LINE
  8
0
 10
49.629
 11
49.47
 20
3.061
 21
3.68
  0
LINE
  8
0
 10
49.47
 11
49.47
 20
67.68
 21
68.32
  0
LINE
  8
0
 10
49.47
 11
49.629
 20
68.32
 21
68.939
  0
LINE
  8
0
 10
49.629
 11
49.937
 20
68.939
 21
69.499
  0
LINE
  8
0
 10
49.937
 11
50.375
 20
69.499
 21
69.965
  0
LINE
  8
0
 10
50.375
 11
50.914
 20
69.965
 21
70.307
  0
LINE
  8
0
 10
50.914
 11
51.522
 20
70.307
 21
70.505
  0
LINE
  8
0
 10
51.522
 11
52.16
 20
70.505
 21
70.545
  0
LINE
  8
0
 10
52.16
 11
52.788
 20
70.545
 21
70.425
  0
LINE
  8
0
 10
52.788
 11
53.366
 20
70.425
 21
70.153
  0
LINE
  8
0
 10
53.366
 11
53.859
 20
70.153
 21
69.746
  0
LINE
  8
0
 10
53.859
 11
54.235
 20
69.746
 21
69.228
  0
LINE
  8
0
 10
54.235
 11
54.47
 20
69.228
 21
68.634
  0
LINE
  8
0
 10
54.47
 11
54.55
 20
68.634
 21
68
  0
LINE
  8
0
 10
54.55
 11
54.47
 20
68
 21
67.366
  0
LINE
  8
0
 10
54.47
 11
54.235
 20
67.366
 21
66.772
  0
LINE
  8
0
 10
54.235
 11
53.859
 20
66.772
 21
66.254
  0
LINE
  8
0
 10
53.859
 11
53.366
 20
66.254
 21
65.847
  0
LINE
  8
0
 10
53.366
 11
52.788
 20
65.847
 21
65.575
  0
LINE
  8
0
 10
52.788
 11
52.16
 20
65.575
 21
65.455
  0
LINE
  8
0
 10
52.16
 11
51.522
 20
65.455
 21
65.495
  0
LINE
  8
0
 10
51.522
 11
50.914
 20
65.495
 21
65.693
  0
LINE
  8
0
 10
50.914
 11
50.375
 20
65.693
 21
66.035
  0
LINE
  8
0
 10
50.375
 11
49.937
 20
66.035
 21
66.501
  0
LINE
  8
0
 10
49.937
 11
49.629
 20
66.501
 21
67.061
  0
LINE
  8
0
 10
49.629
 11
49.47
 20
67.061
 21
67.68
  0
LINE
  8
0
 10
57.47
 11
57.47
 20
3.68
 21
4.32
  0
LINE
  8
0
 10
57.47
 11
57.629
 20
4.32
 21
4.939
  0
LINE
  8
0
 10
57.629
 11
57.937
 20
4.939
 21
5.499
  0
LINE
  8
0
 10
57.937
 11
58.375
 20
5.499
 21
5.965
  0
LINE
  8
0
 10
58.375
 11
58.914
 20
5.965
 21
6.307
  0
LINE
  8
0
 10
58.914
 11
59.522
 20
6.307
 21
6.505
  0
LINE
  8
0
 10
59.522
 11
60.16
 20
6.505
 21
6.545
  0
LINE
  8
0
 10
60.16
 11
60.788
 20
6.545
 21
6.425
  0
LINE
  8
0
 10
60.788
 11
61.366
 20
6.425
 21
6.153
  0
LINE
  8
0
 10
61.366
 11
61.859
 20
6.153
 21
5.746
  0
LINE
  8
0
 10
61.859
 11
62.235
 20
5.746
 21
5.228
  0
LINE
  8
0
 10
62.235
 11
62.47
 20
5.228
 21
4.634
  0
LINE
  8
0
 10
62.47
 11
62.55
 20
4.634
 21
4
  0
LINE
  8
0
 10
62.55
 11
62.47
 20
4
 21
3.366
  0
LINE
  8
0
 10
62.47
 11
62.235
 20
3.366
 21
2.772
  0
LINE
  8
0
 10
62.235
 11
61.859
 20
2.772
 21
2.254
  0
LINE
  8
0
 10
61.859
 11
61.366
 20
2.254
 21
1.847
  0
LINE
  8
0
 10
61.366
 11
60.788
 20
1.847
 21
1.575
  0
LINE
  8
0
 10
60.788
 11
60.16
 20
1.575
 21
1.455
  0
LINE
  8
0
 10
60.16
 11
59.522
 20
1.455
 21
1.495
  0
LINE
  8
0
 10
59.522
 11
58.914
 20
1.495
 21
1.693
  0
LINE
  8
0
 10
58.914
 11
58.375
 20
1.693
 21
2.035
  0
LINE
  8
0
 10
58.375
 11
57.937
 20
2.035
 21
2.501
  0
LINE
  8
0
 10
57.937
 11
57.629
 20
2.501
 21
3.061
  0
LINE
  8
0
 10
57.629
 11
57.47
 20
3.061
 21
3.68
  0
LINE
  8
0
 10
57.47
 11
57.47
 20
67.68
 21
68.32
  0
LINE
  8
0
 10
57.47
 11
57.629
 20
68.32
 21
68.939
  0
LINE
  8
0
 10
57.629
 11
57.937
 20
68.939
 21
69.499
  0
LINE
  8
0
 10
57.937
 11
58.375
 20
69.499
 21
69.965
  0
LINE
  8
0
 10
58.375
 11
58.914
 20
69.965
 21
70.307
  0
LINE
  8
0
 10
58.914
 11
59.522
 20
70.307
 21
70.505
  0
LINE
  8
0
 10
59.522
 11
60.16
 20
70.505
 21
70.545
  0
LINE
  8
0
 10
60.16
 11
60.788
 20
70.545
 21
70.425
  0
LINE
  8
0
 10
60.788
 11
61.366
 20
70.425
 21
70.153
  0
LINE
  8
0
 10
61.366
 11
61.859
 20
70.153
 21
69.746
  0
LINE
  8
0
 10
61.859
 11
62.235
 20
69.746
 21
69.228
  0
LINE
  8
0
 10
62.235
 11
62.47
 20
69.228
 21
68.634
  0
LINE
  8
0
 10
62.47
 11
62.55
 20
68.634
 21
68
  0
LINE
  8
0
 10
62.55
 11
62.47
 20
68
 21
67.366
  0
LINE
  8
0
 10
62.47
 11
62.235
 20
67.366
 21
66.772
  0
LINE
  8
0
 10
62.235
 11
61.859
 20
66.772
 21
66.254
  0
LINE
  8
0
 10
61.859
 11
61.366
 20
66.254
 21
65.847
  0
LINE
  8
0
 10
61.366
 11
60.788
 20
65.847
 21
65.575
  0
LINE
  8
0
 10
60.788
 11
60.16
 20
65.575
 21
65.455
  0
LINE
  8
0
 10
60.16
 11
59.522
 20
65.455
 21
65.495
  0
LINE
  8
0
 10
59.522
 11
58.914
 20
65.495
 21
65.693
  0
LINE
  8
0
 10
58.914
 11
58.375
 20
65.693
 21
66.035
  0
LINE
  8
0
 10
58.375
 11
57.937
 20
66.035
 21
66.501
  0
LINE
  8
0
 10
57.937
 11
57.629
 20
66.501
 21
67.061
  0
LINE
  8
0
 10
57.629
 11
57.47
 20
67.061
 21
67.68
  0
LINE
  8
0
 10
65.47
 11
65.47
 20
3.68
 21
4.32
  0
LINE
  8
0
 10
65.47
 11
65.629
 20
4.32
 21
4.939
  0
LINE
  8
0
 10
65.629
 11
65.937
 20
4.939
 21
5.499
  0
LINE
  8
0
 10
65.937
 11
66.375
 20
5.499
 21
5.965
  0
LINE
  8
0
 10
66.375
 11
66.914
 20
5.965
 21
6.307
  0
LINE
  8
0
 10
66.914
 11
67.522
 20
6.307
 21
6.505
  0
LINE
  8
0
 10
67.522
 11
68.16
 20
6.505
 21
6.545
  0
LINE
  8
0
 10
68.16
 11
68.788
 20
6.545
 21
6.425
  0
LINE
  8
0
 10
68.788
 11
69.366
 20
6.425
 21
6.153
  0
LINE
  8
0
 10
69.366
 11
69.859
 20
6.153
 21
5.746
  0
LINE
  8
0
 10
69.859
 11
70.235
 20
5.746
 21
5.228
  0
LINE
  8
0
 10
70.235
 11
70.47
 20
5.228
 21
4.634
  0
LINE
  8
0
 10
70.47
 11
70.55
 20
4.634
 21
4
  0
LINE
  8
0
 10
70.55
 11
70.47
 20
4
 21
3.366
  0
LINE
  8
0
 10
70.47
 11
70.235
 20
3.366
 21
2.772
  0
LINE
  8
0
 10
70.235
 11
69.859
 20
2.772
 21
2.254
  0
LINE
  8
0
 10
69.859
 11
69.366
 20
2.254
 21
1.847
  0
LINE
  8
0
 10
69.366
 11
68.788
 20
1.847
 21
1.575
  0
LINE
  8
0
 10
68.788
 11
68.16
 20
1.575
 21
1.455
  0
LINE
  8
0
 10
68.16
 11
67.522
 20
1.455
 21
1.495
  0
LINE
  8
0
 10
67.522
 11
66.914
 20
1.495
 21
1.693
  0
LINE
  8
0
 10
66.914
 11
66.375
 20
1.693
 21
2.035
  0
LINE
  8
0
 10
66.375
 11
65.937
 20
2.035
 21
2.501
  0
LINE
  8
0
 10
65.937
 11
65.629
 20
2.501
 21
3.061
  0
LINE
  8
0
 10
65.629
 11
65.47
 20
3.061
 21
3.68
  0
LINE
  8
0
 10
65.47
 11
65.47
 20
67.68
 21
68.32
  0
LINE
  8
0
 10
65.47
 11
65.629
 20
68.32
 21
68.939
  0
LINE
  8
0
 10
65.629
 11
65.937
 20
68.939
 21
69.499
  0
LINE
  8
0
 10
65.937
 11
66.375
 20
69.499
 21
69.965
  0
LINE
  8
0
 10
66.375
 11
66.914
 20
69.965
 21
70.307
  0
LINE
  8
0
 10
66.914
 11
67.522
 20
70.307
 21
70.505
  0
LINE
  8
0
 10
67.522
 11
68.16
 20
70.505
 21
70.545
  0
LINE
  8
0
 10
68.16
 11
68.788
 20
70.545
 21
70.425
  0
LINE
  8
0
 10
68.788
 11
69.366
 20
70.425
 21
70.153
  0
LINE
  8
0
 10
69.366
 11
69.859
 20
70.153
 21
69.746
  0
LINE
  8
0
 10
69.859
 11
70.235
 20
69.746
 21
69.228
  0
LINE
  8
0
 10
70.235
 11
70.47
 20
69.228
 21
68.634
  0
LINE
  8
0
 10
70.47
 11
70.55
 20
68.634
 21
68
  0
LINE
  8
0
 10
70.55
 11
70.47
 20
68
 21
67.366
  0
LINE
  8
0
 10
70.47
 11
70.235
 20
67.366
 21
66.772
  0
LINE
  8
0
 10
70.235
 11
69.859
 20
66.772
 21
66.254
  0
LINE
  8
0
 10
69.859
 11
69.366
 20
66.254
 21
65.847
  0
LINE
  8
0
 10
69.366
 11
68.788
 20
65.847
 21
65.575
  0
LINE
  8
0
 10
68.788
 11
68.16
 20
65.575
 21
65.455
  0
LINE
  8
0
 10
68.16
 11
67.522
 20
65.455
 21
65.495
  0
LINE
  8
0
 10
67.522
 11
66.914
 20
65.495
 21
65.693
  0
LINE
  8
0
 10
66.914
 11
66.375
 20
65.693
 21
66.035
  0
LINE
  8
0
 10
66.375
 11
65.937
 20
66.035
 21
66.501
  0
LINE
  8
0
 10
65.937
 11
65.629
 20
66.501
 21
67.061
  0
LINE
  8
0
 10
65.629
 11
65.47
 20
67.061
 21
67.68
  0
LINE
  8
0
 10
66.512
 11
66.512
 20
16.562
 21
16.938
  0
LINE
  8
0
 10
66.512
 11
66.605
 20
16.938
 21
17.302
  0
LINE
  8
0
 10
66.605
 11
66.786
 20
17.302
 21
17.632
  0
LINE
  8
0
 10
66.786
 11
67.044
 20
17.632
 21
17.906
  0
LINE
  8
0
 10
67.044
 11
67.361
 20
17.906
 21
18.107
  0
LINE
  8
0
 10
67.361
 11
67.719
 20
18.107
 21
18.223
  0
LINE
  8
0
 10
67.719
 11
68.094
 20
18.223
 21
18.247
  0
LINE
  8
0
 10
68.094
 11
68.464
 20
18.247
 21
18.177
  0
LINE
  8
0
 10
68.464
 11
68.804
 20
18.177
 21
18.016
  0
LINE
  8
0
 10
68.804
 11
69.093
 20
18.016
 21
17.777
  0
LINE
  8
0
 10
69.093
 11
69.314
 20
17.777
 21
17.473
  0
LINE
  8
0
 10
69.314
 11
69.453
 20
17.473
 21
17.123
  0
LINE
  8
0
 10
69.453
 11
69.5
 20
17.123
 21
16.75
  0
LINE
  8
0
 10
69.5
 11
69.453
 20
16.75
 21
16.377
  0
LINE
  8
0
 10
69.453
 11
69.314
 20
16.377
 21
16.027
  0
LINE
  8
0
 10
69.314
 11
69.093
 20
16.027
 21
15.723
  0
LINE
  8
0
 10
69.093
 11
68.804
 20
15.723
 21
15.484
  0
LINE
  8
0
 10
68.804
 11
68.464
 20
15.484
 21
15.323
  0
LINE
  8
0
 10
68.464
 11
68.094
 20
15.323
 21
15.253
  0
LINE
  8
0
 10
68.094
 11
67.719
 20
15.253
 21
15.277
  0
LINE
  8
0
 10
67.719
 11
67.361
 20
15.277
 21
15.393
  0
LINE
  8
0
 10
67.361
 11
67.044
 20
15.393
 21
15.594
  0
LINE
  8
0
 10
67.044
 11
66.786
 20
15.594
 21
15.868
  0
LINE
  8
0
 10
66.786
 11
66.605
 20
15.868
 21
16.198
  0
LINE
  8
0
 10
66.605
 11
66.512
 20
16.198
 21
16.562
  0
LINE
  8
0
 10
66.512
 11
66.512
 20
44.562
 21
44.938
  0
LINE
  8
0
 10
66.512
 11
66.605
 20
44.938
 21
45.302
  0
LINE
  8
0
 10
66.605
 11
66.786
 20
45.302
 21
45.632
  0
LINE
  8
0
 10
66.786
 11
67.044
 20
45.632
 21
45.906
  0
LINE
  8
0
 10
67.044
 11
67.361
 20
45.906
 21
46.107
  0
LINE
  8
0
 10
67.361
 11
67.719
 20
46.107
 21
46.223
  0
LINE
  8
0
 10
67.719
 11
68.094
 20
46.223
 21
46.247
  0
LINE
  8
0
 10
68.094
 11
68.464
 20
46.247
 21
46.177
  0
LINE
  8
0
 10
68.464
 11
68.804
 20
46.177
 21
46.016
  0
LINE
  8
0
 10
68.804
 11
69.093
 20
46.016
 21
45.777
  0
LINE
  8
0
 10
69.093
 11
69.314
 20
45.777
 21
45.473
  0
LINE
  8
0
 10
69.314
 11
69.453
 20
45.473
 21
45.123
  0
LINE
  8
0
 10
69.453
 11
69.5
 20
45.123
 21
44.75
  0
LINE
  8
0
 10
69.5
 11
69.453
 20
44.75
 21
44.377
  0
LINE
  8
0
 10
69.453
 11
69.314
 20
44.377
 21
44.027
  0
LINE
  8
0
 10
69.314
 11
69.093
 20
44.027
 21
43.723
  0
LINE
  8
0
 10
69.093
 11
68.804
 20
43.723
 21
43.484
  0
LINE
  8
0
 10
68.804
 11
68.464
 20
43.484
 21
43.323
  0
LINE
  8
0
 10
68.464
 11
68.094
 20
43.323
 21
43.253
  0
LINE
  8
0
 10
68.094
 11
67.719
 20
43.253
 21
43.277
  0
LINE
  8
0
 10
67.719
 11
67.361
 20
43.277
 21
43.393
  0
LINE
  8
0
 10
67.361
 11
67.044
 20
43.393
 21
43.594
  0
LINE
  8
0
 10
67.044
 11
66.786
 20
43.594
 21
43.868
  0
LINE
  8
0
 10
66.786
 11
66.605
 20
43.868
 21
44.198
  0
LINE
  8
0
 10
66.605
 11
66.512
 20
44.198
 21
44.562
  0
ENDSEC
  0
SECTION
  2
OBJECTS
  0
DICTIONARY
  0
ENDSEC
  0
EOF
