  0
SECTION
  2
BLOCKS
  0
ENDSEC
  0
SECTION
  2
ENTITIES
  0
LINE
  8
0
 10
-97
 11
-48.5
 20
0
 21
84.004
  0
LINE
  8
0
 10
-48.5
 11
48.5
 20
84.004
 21
84.004
  0
LINE
  8
0
 10
48.5
 11
97
 20
84.004
 21
0
  0
LINE
  8
0
 10
97
 11
48.5
 20
0
 21
-84.004
  0
LINE
  8
0
 10
48.5
 11
-48.5
 20
-84.004
 21
-84.004
  0
LINE
  8
0
 10
-48.5
 11
-97
 20
-84.004
 21
0
  0
LINE
  8
0
 10
-79.832
 11
-79.776
 20
26.144
 21
26.674
  0
LINE
  8
0
 10
-79.776
 11
-79.612
 20
26.674
 21
27.181
  0
LINE
  8
0
 10
-79.612
 11
-79.345
 20
27.181
 21
27.642
  0
LINE
  8
0
 10
-79.345
 11
-78.988
 20
27.642
 21
28.039
  0
LINE
  8
0
 10
-78.988
 11
-78.557
 20
28.039
 21
28.352
  0
LINE
  8
0
 10
-78.557
 11
-78.07
 20
28.352
 21
28.569
  0
LINE
  8
0
 10
-78.07
 11
-77.549
 20
28.569
 21
28.68
  0
LINE
  8
0
 10
-77.549
 11
-77.015
 20
28.68
 21
28.68
  0
LINE
  8
0
 10
-77.015
 11
-76.494
 20
28.68
 21
28.569
  0
LINE
  8
0
 10
-76.494
 11
-76.007
 20
28.569
 21
28.352
  0
LINE
  8
0
 10
-76.007
 11
-75.576
 20
28.352
 21
28.039
  0
LINE
  8
0
 10
-75.576
 11
-75.219
 20
28.039
 21
27.642
  0
LINE
  8
0
 10
-75.219
 11
-74.952
 20
27.642
 21
27.181
  0
LINE
  8
0
 10
-74.952
 11
-74.788
 20
27.181
 21
26.674
  0
LINE
  8
0
 10
-74.788
 11
-74.732
 20
26.674
 21
26.144
  0
LINE
  8
0
 10
-74.732
 11
-74.788
 20
26.144
 21
25.613
  0
LINE
  8
0
 10
-74.788
 11
-74.952
 20
25.613
 21
25.106
  0
LINE
  8
0
 10
-74.952
 11
-75.219
 20
25.106
 21
24.645
  0
LINE
  8
0
 10
-75.219
 11
-75.576
 20
24.645
 21
24.249
  0
LINE
  8
0
 10
-75.576
 11
-76.007
 20
24.249
 21
23.935
  0
LINE
  8
0
 10
-76.007
 11
-76.494
 20
23.935
 21
23.718
  0
LINE
  8
0
 10
-76.494
 11
-77.015
 20
23.718
 21
23.608
  0
LINE
  8
0
 10
-77.015
 11
-77.549
 20
23.608
 21
23.608
  0
LINE
  8
0
 10
-77.549
 11
-78.07
 20
23.608
 21
23.718
  0
LINE
  8
0
 10
-78.07
 11
-78.557
 20
23.718
 21
23.935
  0
LINE
  8
0
 10
-78.557
 11
-78.988
 20
23.935
 21
24.249
  0
LINE
  8
0
 10
-78.988
 11
-79.345
 20
24.249
 21
24.645
  0
LINE
  8
0
 10
-79.345
 11
-79.612
 20
24.645
 21
25.106
  0
LINE
  8
0
 10
-79.612
 11
-79.776
 20
25.106
 21
25.613
  0
LINE
  8
0
 10
-79.776
 11
-79.832
 20
25.613
 21
26.144
  0
LINE
  8
0
 10
-63.832
 11
-63.776
 20
53.856
 21
54.387
  0
LINE
  8
0
 10
-63.776
 11
-63.612
 20
54.387
 21
54.894
  0
LINE
  8
0
 10
-63.612
 11
-63.345
 20
54.894
 21
55.355
  0
LINE
  8
0
 10
-63.345
 11
-62.988
 20
55.355
 21
55.751
  0
LINE
  8
0
 10
-62.988
 11
-62.557
 20
55.751
 21
56.065
  0
LINE
  8
0
 10
-62.557
 11
-62.07
 20
56.065
 21
56.282
  0
LINE
  8
0
 10
-62.07
 11
-61.549
 20
56.282
 21
56.392
  0
LINE
  8
0
 10
-61.549
 11
-61.015
 20
56.392
 21
56.392
  0
LINE
  8
0
 10
-61.015
 11
-60.494
 20
56.392
 21
56.282
  0
LINE
  8
0
 10
-60.494
 11
-60.007
 20
56.282
 21
56.065
  0
LINE
  8
0
 10
-60.007
 11
-59.576
 20
56.065
 21
55.751
  0
LINE
  8
0
 10
-59.576
 11
-59.219
 20
55.751
 21
55.355
  0
LINE
  8
0
 10
-59.219
 11
-58.952
 20
55.355
 21
54.894
  0
LINE
  8
0
 10
-58.952
 11
-58.788
 20
54.894
 21
54.387
  0
LINE
  8
0
 10
-58.788
 11
-58.732
 20
54.387
 21
53.856
  0
LINE
  8
0
 10
-58.732
 11
-58.788
 20
53.856
 21
53.326
  0
LINE
  8
0
 10
-58.788
 11
-58.952
 20
53.326
 21
52.819
  0
LINE
  8
0
 10
-58.952
 11
-59.219
 20
52.819
 21
52.358
  0
LINE
  8
0
 10
-59.219
 11
-59.576
 20
52.358
 21
51.961
  0
LINE
  8
0
 10
-59.576
 11
-60.007
 20
51.961
 21
51.648
  0
LINE
  8
0
 10
-60.007
 11
-60.494
 20
51.648
 21
51.431
  0
LINE
  8
0
 10
-60.494
 11
-61.015
 20
51.431
 21
51.32
  0
LINE
  8
0
 10
-61.015
 11
-61.549
 20
51.32
 21
51.32
  0
LINE
  8
0
 10
-61.549
 11
-62.07
 20
51.32
 21
51.431
  0
LINE
  8
0
 10
-62.07
 11
-62.557
 20
51.431
 21
51.648
  0
LINE
  8
0
 10
-62.557
 11
-62.988
 20
51.648
 21
51.961
  0
LINE
  8
0
 10
-62.988
 11
-63.345
 20
51.961
 21
52.358
  0
LINE
  8
0
 10
-63.345
 11
-63.612
 20
52.358
 21
52.819
  0
LINE
  8
0
 10
-63.612
 11
-63.776
 20
52.819
 21
53.326
  0
LINE
  8
0
 10
-63.776
 11
-63.832
 20
53.326
 21
53.856
  0
LINE
  8
0
 10
-42.536
 11
-42.536
 20
-56.267
 21
-55.733
  0
LINE
  8
0
 10
-42.536
 11
-42.425
 20
-55.733
 21
-55.212
  0
LINE
  8
0
 10
-42.425
 11
-42.208
 20
-55.212
 21
-54.725
  0
LINE
  8
0
 10
-42.208
 11
-41.895
 20
-54.725
 21
-54.294
  0
LINE
  8
0
 10
-41.895
 11
-41.499
 20
-54.294
 21
-53.937
  0
LINE
  8
0
 10
-41.499
 11
-41.037
 20
-53.937
 21
-53.67
  0
LINE
  8
0
 10
-41.037
 11
-40.53
 20
-53.67
 21
-53.506
  0
LINE
  8
0
 10
-40.53
 11
-40
 20
-53.506
 21
-53.45
  0
LINE
  8
0
 10
-40
 11
-39.47
 20
-53.45
 21
-53.506
  0
LINE
  8
0
 10
-39.47
 11
-38.963
 20
-53.506
 21
-53.67
  0
LINE
  8
0
 10
-38.963
 11
-38.501
 20
-53.67
 21
-53.937
  0
LINE
  8
0
 10
-38.501
 11
-38.105
 20
-53.937
 21
-54.294
  0
LINE
  8
0
 10
-38.105
 11
-37.792
 20
-54.294
 21
-54.725
  0
LINE
  8
0
 10
-37.792
 11
-37.575
 20
-54.725
 21
-55.212
  0
LINE
  8
0
 10
-37.575
 11
-37.464
 20
-55.212
 21
-55.733
  0
LINE
  8
0
 10
-37.464
 11
-37.464
 20
-55.733
 21
-56.267
  0
LINE
  8
0
 10
-37.464
 11
-37.575
 20
-56.267
 21
-56.788
  0
LINE
  8
0
 10
-37.575
 11
-37.792
 20
-56.788
 21
-57.275
  0
LINE
  8
0
 10
-37.792
 11
-38.105
 20
-57.275
 21
-57.706
  0
LINE
  8
0
 10
-38.105
 11
-38.501
 20
-57.706
 21
-58.063
  0
LINE
  8
0
 10
-38.501
 11
-38.963
 20
-58.063
 21
-58.33
  0
LINE
  8
0
 10
-38.963
 11
-39.47
 20
-58.33
 21
-58.494
  0
LINE
  8
0
 10
-39.47
 11
-40
 20
-58.494
 21
-58.55
  0
LINE
  8
0
 10
-40
 11
-40.53
 20
-58.55
 21
-58.494
  0
LINE
  8
0
 10
-40.53
 11
-41.037
 20
-58.494
 21
-58.33
  0
LINE
  8
0
 10
-41.037
 11
-41.499
 20
-58.33
 21
-58.063
  0
LINE
  8
0
 10
-41.499
 11
-41.895
 20
-58.063
 21
-57.706
  0
LINE
  8
0
 10
-41.895
 11
-42.208
 20
-57.706
 21
-57.275
  0
LINE
  8
0
 10
-42.208
 11
-42.425
 20
-57.275
 21
-56.788
  0
LINE
  8
0
 10
-42.425
 11
-42.536
 20
-56.788
 21
-56.267
  0
LINE
  8
0
 10
-42.536
 11
-42.536
 20
-48.267
 21
-47.733
  0
LINE
  8
0
 10
-42.536
 11
-42.425
 20
-47.733
 21
-47.212
  0
LINE
  8
0
 10
-42.425
 11
-42.208
 20
-47.212
 21
-46.725
  0
LINE
  8
0
 10
-42.208
 11
-41.895
 20
-46.725
 21
-46.294
  0
LINE
  8
0
 10
-41.895
 11
-41.499
 20
-46.294
 21
-45.937
  0
LINE
  8
0
 10
-41.499
 11
-41.037
 20
-45.937
 21
-45.67
  0
LINE
  8
0
 10
-41.037
 11
-40.53
 20
-45.67
 21
-45.506
  0
LINE
  8
0
 10
-40.53
 11
-40
 20
-45.506
 21
-45.45
  0
LINE
  8
0
 10
-40
 11
-39.47
 20
-45.45
 21
-45.506
  0
LINE
  8
0
 10
-39.47
 11
-38.963
 20
-45.506
 21
-45.67
  0
LINE
  8
0
 10
-38.963
 11
-38.501
 20
-45.67
 21
-45.937
  0
LINE
  8
0
 10
-38.501
 11
-38.105
 20
-45.937
 21
-46.294
  0
LINE
  8
0
 10
-38.105
 11
-37.792
 20
-46.294
 21
-46.725
  0
LINE
  8
0
 10
-37.792
 11
-37.575
 20
-46.725
 21
-47.212
  0
LINE
  8
0
 10
-37.575
 11
-37.464
 20
-47.212
 21
-47.733
  0
LINE
  8
0
 10
-37.464
 11
-37.464
 20
-47.733
 21
-48.267
  0
LINE
  8
0
 10
-37.464
 11
-37.575
 20
-48.267
 21
-48.788
  0
LINE
  8
0
 10
-37.575
 11
-37.792
 20
-48.788
 21
-49.275
  0
LINE
  8
0
 10
-37.792
 11
-38.105
 20
-49.275
 21
-49.706
  0
LINE
  8
0
 10
-38.105
 11
-38.501
 20
-49.706
 21
-50.063
  0
LINE
  8
0
 10
-38.501
 11
-38.963
 20
-50.063
 21
-50.33
  0
LINE
  8
0
 10
-38.963
 11
-39.47
 20
-50.33
 21
-50.494
  0
LINE
  8
0
 10
-39.47
 11
-40
 20
-50.494
 21
-50.55
  0
LINE
  8
0
 10
-40
 11
-40.53
 20
-50.55
 21
-50.494
  0
LINE
  8
0
 10
-40.53
 11
-41.037
 20
-50.494
 21
-50.33
  0
LINE
  8
0
 10
-41.037
 11
-41.499
 20
-50.33
 21
-50.063
  0
LINE
  8
0
 10
-41.499
 11
-41.895
 20
-50.063
 21
-49.706
  0
LINE
  8
0
 10
-41.895
 11
-42.208
 20
-49.706
 21
-49.275
  0
LINE
  8
0
 10
-42.208
 11
-42.425
 20
-49.275
 21
-48.788
  0
LINE
  8
0
 10
-42.425
 11
-42.536
 20
-48.788
 21
-48.267
  0
LINE
  8
0
 10
-42.536
 11
-42.536
 20
-40.267
 21
-39.733
  0
LINE
  8
0
 10
-42.536
 11
-42.425
 20
-39.733
 21
-39.212
  0
LINE
  8
0
 10
-42.425
 11
-42.208
 20
-39.212
 21
-38.725
  0
LINE
  8
0
 10
-42.208
 11
-41.895
 20
-38.725
 21
-38.294
  0
LINE
  8
0
 10
-41.895
 11
-41.499
 20
-38.294
 21
-37.937
  0
LINE
  8
0
 10
-41.499
 11
-41.037
 20
-37.937
 21
-37.67
  0
LINE
  8
0
 10
-41.037
 11
-40.53
 20
-37.67
 21
-37.506
  0
LINE
  8
0
 10
-40.53
 11
-40
 20
-37.506
 21
-37.45
  0
LINE
  8
0
 10
-40
 11
-39.47
 20
-37.45
 21
-37.506
  0
LINE
  8
0
 10
-39.47
 11
-38.963
 20
-37.506
 21
-37.67
  0
LINE
  8
0
 10
-38.963
 11
-38.501
 20
-37.67
 21
-37.937
  0
LINE
  8
0
 10
-38.501
 11
-38.105
 20
-37.937
 21
-38.294
  0
LINE
  8
0
 10
-38.105
 11
-37.792
 20
-38.294
 21
-38.725
  0
LINE
  8
0
 10
-37.792
 11
-37.575
 20
-38.725
 21
-39.212
  0
LINE
  8
0
 10
-37.575
 11
-37.464
 20
-39.212
 21
-39.733
  0
LINE
  8
0
 10
-37.464
 11
-37.464
 20
-39.733
 21
-40.267
  0
LINE
  8
0
 10
-37.464
 11
-37.575
 20
-40.267
 21
-40.788
  0
LINE
  8
0
 10
-37.575
 11
-37.792
 20
-40.788
 21
-41.275
  0
LINE
  8
0
 10
-37.792
 11
-38.105
 20
-41.275
 21
-41.706
  0
LINE
  8
0
 10
-38.105
 11
-38.501
 20
-41.706
 21
-42.063
  0
LINE
  8
0
 10
-38.501
 11
-38.963
 20
-42.063
 21
-42.33
  0
LINE
  8
0
 10
-38.963
 11
-39.47
 20
-42.33
 21
-42.494
  0
LINE
  8
0
 10
-39.47
 11
-40
 20
-42.494
 21
-42.55
  0
LINE
  8
0
 10
-40
 11
-40.53
 20
-42.55
 21
-42.494
  0
LINE
  8
0
 10
-40.53
 11
-41.037
 20
-42.494
 21
-42.33
  0
LINE
  8
0
 10
-41.037
 11
-41.499
 20
-42.33
 21
-42.063
  0
LINE
  8
0
 10
-41.499
 11
-41.895
 20
-42.063
 21
-41.706
  0
LINE
  8
0
 10
-41.895
 11
-42.208
 20
-41.706
 21
-41.275
  0
LINE
  8
0
 10
-42.208
 11
-42.425
 20
-41.275
 21
-40.788
  0
LINE
  8
0
 10
-42.425
 11
-42.536
 20
-40.788
 21
-40.267
  0
LINE
  8
0
 10
-42.536
 11
-42.536
 20
-32.267
 21
-31.733
  0
LINE
  8
0
 10
-42.536
 11
-42.425
 20
-31.733
 21
-31.212
  0
LINE
  8
0
 10
-42.425
 11
-42.208
 20
-31.212
 21
-30.725
  0
LINE
  8
0
 10
-42.208
 11
-41.895
 20
-30.725
 21
-30.294
  0
LINE
  8
0
 10
-41.895
 11
-41.499
 20
-30.294
 21
-29.937
  0
LINE
  8
0
 10
-41.499
 11
-41.037
 20
-29.937
 21
-29.67
  0
LINE
  8
0
 10
-41.037
 11
-40.53
 20
-29.67
 21
-29.506
  0
LINE
  8
0
 10
-40.53
 11
-40
 20
-29.506
 21
-29.45
  0
LINE
  8
0
 10
-40
 11
-39.47
 20
-29.45
 21
-29.506
  0
LINE
  8
0
 10
-39.47
 11
-38.963
 20
-29.506
 21
-29.67
  0
LINE
  8
0
 10
-38.963
 11
-38.501
 20
-29.67
 21
-29.937
  0
LINE
  8
0
 10
-38.501
 11
-38.105
 20
-29.937
 21
-30.294
  0
LINE
  8
0
 10
-38.105
 11
-37.792
 20
-30.294
 21
-30.725
  0
LINE
  8
0
 10
-37.792
 11
-37.575
 20
-30.725
 21
-31.212
  0
LINE
  8
0
 10
-37.575
 11
-37.464
 20
-31.212
 21
-31.733
  0
LINE
  8
0
 10
-37.464
 11
-37.464
 20
-31.733
 21
-32.267
  0
LINE
  8
0
 10
-37.464
 11
-37.575
 20
-32.267
 21
-32.788
  0
LINE
  8
0
 10
-37.575
 11
-37.792
 20
-32.788
 21
-33.275
  0
LINE
  8
0
 10
-37.792
 11
-38.105
 20
-33.275
 21
-33.706
  0
LINE
  8
0
 10
-38.105
 11
-38.501
 20
-33.706
 21
-34.063
  0
LINE
  8
0
 10
-38.501
 11
-38.963
 20
-34.063
 21
-34.33
  0
LINE
  8
0
 10
-38.963
 11
-39.47
 20
-34.33
 21
-34.494
  0
LINE
  8
0
 10
-39.47
 11
-40
 20
-34.494
 21
-34.55
  0
LINE
  8
0
 10
-40
 11
-40.53
 20
-34.55
 21
-34.494
  0
LINE
  8
0
 10
-40.53
 11
-41.037
 20
-34.494
 21
-34.33
  0
LINE
  8
0
 10
-41.037
 11
-41.499
 20
-34.33
 21
-34.063
  0
LINE
  8
0
 10
-41.499
 11
-41.895
 20
-34.063
 21
-33.706
  0
LINE
  8
0
 10
-41.895
 11
-42.208
 20
-33.706
 21
-33.275
  0
LINE
  8
0
 10
-42.208
 11
-42.425
 20
-33.275
 21
-32.788
  0
LINE
  8
0
 10
-42.425
 11
-42.536
 20
-32.788
 21
-32.267
  0
LINE
  8
0
 10
-42.536
 11
-42.536
 20
-24.267
 21
-23.733
  0
LINE
  8
0
 10
-42.536
 11
-42.425
 20
-23.733
 21
-23.212
  0
LINE
  8
0
 10
-42.425
 11
-42.208
 20
-23.212
 21
-22.725
  0
LINE
  8
0
 10
-42.208
 11
-41.895
 20
-22.725
 21
-22.294
  0
LINE
  8
0
 10
-41.895
 11
-41.499
 20
-22.294
 21
-21.937
  0
LINE
  8
0
 10
-41.499
 11
-41.037
 20
-21.937
 21
-21.67
  0
LINE
  8
0
 10
-41.037
 11
-40.53
 20
-21.67
 21
-21.506
  0
LINE
  8
0
 10
-40.53
 11
-40
 20
-21.506
 21
-21.45
  0
LINE
  8
0
 10
-40
 11
-39.47
 20
-21.45
 21
-21.506
  0
LINE
  8
0
 10
-39.47
 11
-38.963
 20
-21.506
 21
-21.67
  0
LINE
  8
0
 10
-38.963
 11
-38.501
 20
-21.67
 21
-21.937
  0
LINE
  8
0
 10
-38.501
 11
-38.105
 20
-21.937
 21
-22.294
  0
LINE
  8
0
 10
-38.105
 11
-37.792
 20
-22.294
 21
-22.725
  0
LINE
  8
0
 10
-37.792
 11
-37.575
 20
-22.725
 21
-23.212
  0
LINE
  8
0
 10
-37.575
 11
-37.464
 20
-23.212
 21
-23.733
  0
LINE
  8
0
 10
-37.464
 11
-37.464
 20
-23.733
 21
-24.267
  0
LINE
  8
0
 10
-37.464
 11
-37.575
 20
-24.267
 21
-24.788
  0
LINE
  8
0
 10
-37.575
 11
-37.792
 20
-24.788
 21
-25.275
  0
LINE
  8
0
 10
-37.792
 11
-38.105
 20
-25.275
 21
-25.706
  0
LINE
  8
0
 10
-38.105
 11
-38.501
 20
-25.706
 21
-26.063
  0
LINE
  8
0
 10
-38.501
 11
-38.963
 20
-26.063
 21
-26.33
  0
LINE
  8
0
 10
-38.963
 11
-39.47
 20
-26.33
 21
-26.494
  0
LINE
  8
0
 10
-39.47
 11
-40
 20
-26.494
 21
-26.55
  0
LINE
  8
0
 10
-40
 11
-40.53
 20
-26.55
 21
-26.494
  0
LINE
  8
0
 10
-40.53
 11
-41.037
 20
-26.494
 21
-26.33
  0
LINE
  8
0
 10
-41.037
 11
-41.499
 20
-26.33
 21
-26.063
  0
LINE
  8
0
 10
-41.499
 11
-41.895
 20
-26.063
 21
-25.706
  0
LINE
  8
0
 10
-41.895
 11
-42.208
 20
-25.706
 21
-25.275
  0
LINE
  8
0
 10
-42.208
 11
-42.425
 20
-25.275
 21
-24.788
  0
LINE
  8
0
 10
-42.425
 11
-42.536
 20
-24.788
 21
-24.267
  0
LINE
  8
0
 10
-42.536
 11
-42.536
 20
-16.267
 21
-15.733
  0
LINE
  8
0
 10
-42.536
 11
-42.425
 20
-15.733
 21
-15.212
  0
LINE
  8
0
 10
-42.425
 11
-42.208
 20
-15.212
 21
-14.725
  0
LINE
  8
0
 10
-42.208
 11
-41.895
 20
-14.725
 21
-14.294
  0
LINE
  8
0
 10
-41.895
 11
-41.499
 20
-14.294
 21
-13.937
  0
LINE
  8
0
 10
-41.499
 11
-41.037
 20
-13.937
 21
-13.67
  0
LINE
  8
0
 10
-41.037
 11
-40.53
 20
-13.67
 21
-13.506
  0
LINE
  8
0
 10
-40.53
 11
-40
 20
-13.506
 21
-13.45
  0
LINE
  8
0
 10
-40
 11
-39.47
 20
-13.45
 21
-13.506
  0
LINE
  8
0
 10
-39.47
 11
-38.963
 20
-13.506
 21
-13.67
  0
LINE
  8
0
 10
-38.963
 11
-38.501
 20
-13.67
 21
-13.937
  0
LINE
  8
0
 10
-38.501
 11
-38.105
 20
-13.937
 21
-14.294
  0
LINE
  8
0
 10
-38.105
 11
-37.792
 20
-14.294
 21
-14.725
  0
LINE
  8
0
 10
-37.792
 11
-37.575
 20
-14.725
 21
-15.212
  0
LINE
  8
0
 10
-37.575
 11
-37.464
 20
-15.212
 21
-15.733
  0
LINE
  8
0
 10
-37.464
 11
-37.464
 20
-15.733
 21
-16.267
  0
LINE
  8
0
 10
-37.464
 11
-37.575
 20
-16.267
 21
-16.788
  0
LINE
  8
0
 10
-37.575
 11
-37.792
 20
-16.788
 21
-17.275
  0
LINE
  8
0
 10
-37.792
 11
-38.105
 20
-17.275
 21
-17.706
  0
LINE
  8
0
 10
-38.105
 11
-38.501
 20
-17.706
 21
-18.063
  0
LINE
  8
0
 10
-38.501
 11
-38.963
 20
-18.063
 21
-18.33
  0
LINE
  8
0
 10
-38.963
 11
-39.47
 20
-18.33
 21
-18.494
  0
LINE
  8
0
 10
-39.47
 11
-40
 20
-18.494
 21
-18.55
  0
LINE
  8
0
 10
-40
 11
-40.53
 20
-18.55
 21
-18.494
  0
LINE
  8
0
 10
-40.53
 11
-41.037
 20
-18.494
 21
-18.33
  0
LINE
  8
0
 10
-41.037
 11
-41.499
 20
-18.33
 21
-18.063
  0
LINE
  8
0
 10
-41.499
 11
-41.895
 20
-18.063
 21
-17.706
  0
LINE
  8
0
 10
-41.895
 11
-42.208
 20
-17.706
 21
-17.275
  0
LINE
  8
0
 10
-42.208
 11
-42.425
 20
-17.275
 21
-16.788
  0
LINE
  8
0
 10
-42.425
 11
-42.536
 20
-16.788
 21
-16.267
  0
LINE
  8
0
 10
-42.536
 11
-42.536
 20
-8.267
 21
-7.733
  0
LINE
  8
0
 10
-42.536
 11
-42.425
 20
-7.733
 21
-7.212
  0
LINE
  8
0
 10
-42.425
 11
-42.208
 20
-7.212
 21
-6.725
  0
LINE
  8
0
 10
-42.208
 11
-41.895
 20
-6.725
 21
-6.294
  0
LINE
  8
0
 10
-41.895
 11
-41.499
 20
-6.294
 21
-5.937
  0
LINE
  8
0
 10
-41.499
 11
-41.037
 20
-5.937
 21
-5.67
  0
LINE
  8
0
 10
-41.037
 11
-40.53
 20
-5.67
 21
-5.506
  0
LINE
  8
0
 10
-40.53
 11
-40
 20
-5.506
 21
-5.45
  0
LINE
  8
0
 10
-40
 11
-39.47
 20
-5.45
 21
-5.506
  0
LINE
  8
0
 10
-39.47
 11
-38.963
 20
-5.506
 21
-5.67
  0
LINE
  8
0
 10
-38.963
 11
-38.501
 20
-5.67
 21
-5.937
  0
LINE
  8
0
 10
-38.501
 11
-38.105
 20
-5.937
 21
-6.294
  0
LINE
  8
0
 10
-38.105
 11
-37.792
 20
-6.294
 21
-6.725
  0
LINE
  8
0
 10
-37.792
 11
-37.575
 20
-6.725
 21
-7.212
  0
LINE
  8
0
 10
-37.575
 11
-37.464
 20
-7.212
 21
-7.733
  0
LINE
  8
0
 10
-37.464
 11
-37.464
 20
-7.733
 21
-8.267
  0
LINE
  8
0
 10
-37.464
 11
-37.575
 20
-8.267
 21
-8.788
  0
LINE
  8
0
 10
-37.575
 11
-37.792
 20
-8.788
 21
-9.275
  0
LINE
  8
0
 10
-37.792
 11
-38.105
 20
-9.275
 21
-9.706
  0
LINE
  8
0
 10
-38.105
 11
-38.501
 20
-9.706
 21
-10.063
  0
LINE
  8
0
 10
-38.501
 11
-38.963
 20
-10.063
 21
-10.33
  0
LINE
  8
0
 10
-38.963
 11
-39.47
 20
-10.33
 21
-10.494
  0
LINE
  8
0
 10
-39.47
 11
-40
 20
-10.494
 21
-10.55
  0
LINE
  8
0
 10
-40
 11
-40.53
 20
-10.55
 21
-10.494
  0
LINE
  8
0
 10
-40.53
 11
-41.037
 20
-10.494
 21
-10.33
  0
LINE
  8
0
 10
-41.037
 11
-41.499
 20
-10.33
 21
-10.063
  0
LINE
  8
0
 10
-41.499
 11
-41.895
 20
-10.063
 21
-9.706
  0
LINE
  8
0
 10
-41.895
 11
-42.208
 20
-9.706
 21
-9.275
  0
LINE
  8
0
 10
-42.208
 11
-42.425
 20
-9.275
 21
-8.788
  0
LINE
  8
0
 10
-42.425
 11
-42.536
 20
-8.788
 21
-8.267
  0
LINE
  8
0
 10
-42.536
 11
-42.536
 20
-0.267
 21
0.267
  0
LINE
  8
0
 10
-42.536
 11
-42.425
 20
0.267
 21
0.788
  0
LINE
  8
0
 10
-42.425
 11
-42.208
 20
0.788
 21
1.275
  0
LINE
  8
0
 10
-42.208
 11
-41.895
 20
1.275
 21
1.706
  0
LINE
  8
0
 10
-41.895
 11
-41.499
 20
1.706
 21
2.063
  0
LINE
  8
0
 10
-41.499
 11
-41.037
 20
2.063
 21
2.33
  0
LINE
  8
0
 10
-41.037
 11
-40.53
 20
2.33
 21
2.494
  0
LINE
  8
0
 10
-40.53
 11
-40
 20
2.494
 21
2.55
  0
LINE
  8
0
 10
-40
 11
-39.47
 20
2.55
 21
2.494
  0
LINE
  8
0
 10
-39.47
 11
-38.963
 20
2.494
 21
2.33
  0
LINE
  8
0
 10
-38.963
 11
-38.501
 20
2.33
 21
2.063
  0
LINE
  8
0
 10
-38.501
 11
-38.105
 20
2.063
 21
1.706
  0
LINE
  8
0
 10
-38.105
 11
-37.792
 20
1.706
 21
1.275
  0
LINE
  8
0
 10
-37.792
 11
-37.575
 20
1.275
 21
0.788
  0
LINE
  8
0
 10
-37.575
 11
-37.464
 20
0.788
 21
0.267
  0
LINE
  8
0
 10
-37.464
 11
-37.464
 20
0.267
 21
-0.267
  0
LINE
  8
0
 10
-37.464
 11
-37.575
 20
-0.267
 21
-0.788
  0
LINE
  8
0
 10
-37.575
 11
-37.792
 20
-0.788
 21
-1.275
  0
LINE
  8
0
 10
-37.792
 11
-38.105
 20
-1.275
 21
-1.706
  0
LINE
  8
0
 10
-38.105
 11
-38.501
 20
-1.706
 21
-2.063
  0
LINE
  8
0
 10
-38.501
 11
-38.963
 20
-2.063
 21
-2.33
  0
LINE
  8
0
 10
-38.963
 11
-39.47
 20
-2.33
 21
-2.494
  0
LINE
  8
0
 10
-39.47
 11
-40
 20
-2.494
 21
-2.55
  0
LINE
  8
0
 10
-40
 11
-40.53
 20
-2.55
 21
-2.494
  0
LINE
  8
0
 10
-40.53
 11
-41.037
 20
-2.494
 21
-2.33
  0
LINE
  8
0
 10
-41.037
 11
-41.499
 20
-2.33
 21
-2.063
  0
LINE
  8
0
 10
-41.499
 11
-41.895
 20
-2.063
 21
-1.706
  0
LINE
  8
0
 10
-41.895
 11
-42.208
 20
-1.706
 21
-1.275
  0
LINE
  8
0
 10
-42.208
 11
-42.425
 20
-1.275
 21
-0.788
  0
LINE
  8
0
 10
-42.425
 11
-42.536
 20
-0.788
 21
-0.267
  0
LINE
  8
0
 10
-42.536
 11
-42.536
 20
7.733
 21
8.267
  0
LINE
  8
0
 10
-42.536
 11
-42.425
 20
8.267
 21
8.788
  0
LINE
  8
0
 10
-42.425
 11
-42.208
 20
8.788
 21
9.275
  0
LINE
  8
0
 10
-42.208
 11
-41.895
 20
9.275
 21
9.706
  0
LINE
  8
0
 10
-41.895
 11
-41.499
 20
9.706
 21
10.063
  0
LINE
  8
0
 10
-41.499
 11
-41.037
 20
10.063
 21
10.33
  0
LINE
  8
0
 10
-41.037
 11
-40.53
 20
10.33
 21
10.494
  0
LINE
  8
0
 10
-40.53
 11
-40
 20
10.494
 21
10.55
  0
LINE
  8
0
 10
-40
 11
-39.47
 20
10.55
 21
10.494
  0
LINE
  8
0
 10
-39.47
 11
-38.963
 20
10.494
 21
10.33
  0
LINE
  8
0
 10
-38.963
 11
-38.501
 20
10.33
 21
10.063
  0
LINE
  8
0
 10
-38.501
 11
-38.105
 20
10.063
 21
9.706
  0
LINE
  8
0
 10
-38.105
 11
-37.792
 20
9.706
 21
9.275
  0
LINE
  8
0
 10
-37.792
 11
-37.575
 20
9.275
 21
8.788
  0
LINE
  8
0
 10
-37.575
 11
-37.464
 20
8.788
 21
8.267
  0
LINE
  8
0
 10
-37.464
 11
-37.464
 20
8.267
 21
7.733
  0
LINE
  8
0
 10
-37.464
 11
-37.575
 20
7.733
 21
7.212
  0
LINE
  8
0
 10
-37.575
 11
-37.792
 20
7.212
 21
6.725
  0
LINE
  8
0
 10
-37.792
 11
-38.105
 20
6.725
 21
6.294
  0
LINE
  8
0
 10
-38.105
 11
-38.501
 20
6.294
 21
5.937
  0
LINE
  8
0
 10
-38.501
 11
-38.963
 20
5.937
 21
5.67
  0
LINE
  8
0
 10
-38.963
 11
-39.47
 20
5.67
 21
5.506
  0
LINE
  8
0
 10
-39.47
 11
-40
 20
5.506
 21
5.45
  0
LINE
  8
0
 10
-40
 11
-40.53
 20
5.45
 21
5.506
  0
LINE
  8
0
 10
-40.53
 11
-41.037
 20
5.506
 21
5.67
  0
LINE
  8
0
 10
-41.037
 11
-41.499
 20
5.67
 21
5.937
  0
LINE
  8
0
 10
-41.499
 11
-41.895
 20
5.937
 21
6.294
  0
LINE
  8
0
 10
-41.895
 11
-42.208
 20
6.294
 21
6.725
  0
LINE
  8
0
 10
-42.208
 11
-42.425
 20
6.725
 21
7.212
  0
LINE
  8
0
 10
-42.425
 11
-42.536
 20
7.212
 21
7.733
  0
LINE
  8
0
 10
-42.536
 11
-42.536
 20
15.733
 21
16.267
  0
LINE
  8
0
 10
-42.536
 11
-42.425
 20
16.267
 21
16.788
  0
LINE
  8
0
 10
-42.425
 11
-42.208
 20
16.788
 21
17.275
  0
LINE
  8
0
 10
-42.208
 11
-41.895
 20
17.275
 21
17.706
  0
LINE
  8
0
 10
-41.895
 11
-41.499
 20
17.706
 21
18.063
  0
LINE
  8
0
 10
-41.499
 11
-41.037
 20
18.063
 21
18.33
  0
LINE
  8
0
 10
-41.037
 11
-40.53
 20
18.33
 21
18.494
  0
LINE
  8
0
 10
-40.53
 11
-40
 20
18.494
 21
18.55
  0
LINE
  8
0
 10
-40
 11
-39.47
 20
18.55
 21
18.494
  0
LINE
  8
0
 10
-39.47
 11
-38.963
 20
18.494
 21
18.33
  0
LINE
  8
0
 10
-38.963
 11
-38.501
 20
18.33
 21
18.063
  0
LINE
  8
0
 10
-38.501
 11
-38.105
 20
18.063
 21
17.706
  0
LINE
  8
0
 10
-38.105
 11
-37.792
 20
17.706
 21
17.275
  0
LINE
  8
0
 10
-37.792
 11
-37.575
 20
17.275
 21
16.788
  0
LINE
  8
0
 10
-37.575
 11
-37.464
 20
16.788
 21
16.267
  0
LINE
  8
0
 10
-37.464
 11
-37.464
 20
16.267
 21
15.733
  0
LINE
  8
0
 10
-37.464
 11
-37.575
 20
15.733
 21
15.212
  0
LINE
  8
0
 10
-37.575
 11
-37.792
 20
15.212
 21
14.725
  0
LINE
  8
0
 10
-37.792
 11
-38.105
 20
14.725
 21
14.294
  0
LINE
  8
0
 10
-38.105
 11
-38.501
 20
14.294
 21
13.937
  0
LINE
  8
0
 10
-38.501
 11
-38.963
 20
13.937
 21
13.67
  0
LINE
  8
0
 10
-38.963
 11
-39.47
 20
13.67
 21
13.506
  0
LINE
  8
0
 10
-39.47
 11
-40
 20
13.506
 21
13.45
  0
LINE
  8
0
 10
-40
 11
-40.53
 20
13.45
 21
13.506
  0
LINE
  8
0
 10
-40.53
 11
-41.037
 20
13.506
 21
13.67
  0
LINE
  8
0
 10
-41.037
 11
-41.499
 20
13.67
 21
13.937
  0
LINE
  8
0
 10
-41.499
 11
-41.895
 20
13.937
 21
14.294
  0
LINE
  8
0
 10
-41.895
 11
-42.208
 20
14.294
 21
14.725
  0
LINE
  8
0
 10
-42.208
 11
-42.425
 20
14.725
 21
15.212
  0
LINE
  8
0
 10
-42.425
 11
-42.536
 20
15.212
 21
15.733
  0
LINE
  8
0
 10
-42.536
 11
-42.536
 20
23.733
 21
24.267
  0
LINE
  8
0
 10
-42.536
 11
-42.425
 20
24.267
 21
24.788
  0
LINE
  8
0
 10
-42.425
 11
-42.208
 20
24.788
 21
25.275
  0
LINE
  8
0
 10
-42.208
 11
-41.895
 20
25.275
 21
25.706
  0
LINE
  8
0
 10
-41.895
 11
-41.499
 20
25.706
 21
26.063
  0
LINE
  8
0
 10
-41.499
 11
-41.037
 20
26.063
 21
26.33
  0
LINE
  8
0
 10
-41.037
 11
-40.53
 20
26.33
 21
26.494
  0
LINE
  8
0
 10
-40.53
 11
-40
 20
26.494
 21
26.55
  0
LINE
  8
0
 10
-40
 11
-39.47
 20
26.55
 21
26.494
  0
LINE
  8
0
 10
-39.47
 11
-38.963
 20
26.494
 21
26.33
  0
LINE
  8
0
 10
-38.963
 11
-38.501
 20
26.33
 21
26.063
  0
LINE
  8
0
 10
-38.501
 11
-38.105
 20
26.063
 21
25.706
  0
LINE
  8
0
 10
-38.105
 11
-37.792
 20
25.706
 21
25.275
  0
LINE
  8
0
 10
-37.792
 11
-37.575
 20
25.275
 21
24.788
  0
LINE
  8
0
 10
-37.575
 11
-37.464
 20
24.788
 21
24.267
  0
LINE
  8
0
 10
-37.464
 11
-37.464
 20
24.267
 21
23.733
  0
LINE
  8
0
 10
-37.464
 11
-37.575
 20
23.733
 21
23.212
  0
LINE
  8
0
 10
-37.575
 11
-37.792
 20
23.212
 21
22.725
  0
LINE
  8
0
 10
-37.792
 11
-38.105
 20
22.725
 21
22.294
  0
LINE
  8
0
 10
-38.105
 11
-38.501
 20
22.294
 21
21.937
  0
LINE
  8
0
 10
-38.501
 11
-38.963
 20
21.937
 21
21.67
  0
LINE
  8
0
 10
-38.963
 11
-39.47
 20
21.67
 21
21.506
  0
LINE
  8
0
 10
-39.47
 11
-40
 20
21.506
 21
21.45
  0
LINE
  8
0
 10
-40
 11
-40.53
 20
21.45
 21
21.506
  0
LINE
  8
0
 10
-40.53
 11
-41.037
 20
21.506
 21
21.67
  0
LINE
  8
0
 10
-41.037
 11
-41.499
 20
21.67
 21
21.937
  0
LINE
  8
0
 10
-41.499
 11
-41.895
 20
21.937
 21
22.294
  0
LINE
  8
0
 10
-41.895
 11
-42.208
 20
22.294
 21
22.725
  0
LINE
  8
0
 10
-42.208
 11
-42.425
 20
22.725
 21
23.212
  0
LINE
  8
0
 10
-42.425
 11
-42.536
 20
23.212
 21
23.733
  0
LINE
  8
0
 10
-42.536
 11
-42.536
 20
31.733
 21
32.267
  0
LINE
  8
0
 10
-42.536
 11
-42.425
 20
32.267
 21
32.788
  0
LINE
  8
0
 10
-42.425
 11
-42.208
 20
32.788
 21
33.275
  0
LINE
  8
0
 10
-42.208
 11
-41.895
 20
33.275
 21
33.706
  0
LINE
  8
0
 10
-41.895
 11
-41.499
 20
33.706
 21
34.063
  0
LINE
  8
0
 10
-41.499
 11
-41.037
 20
34.063
 21
34.33
  0
LINE
  8
0
 10
-41.037
 11
-40.53
 20
34.33
 21
34.494
  0
LINE
  8
0
 10
-40.53
 11
-40
 20
34.494
 21
34.55
  0
LINE
  8
0
 10
-40
 11
-39.47
 20
34.55
 21
34.494
  0
LINE
  8
0
 10
-39.47
 11
-38.963
 20
34.494
 21
34.33
  0
LINE
  8
0
 10
-38.963
 11
-38.501
 20
34.33
 21
34.063
  0
LINE
  8
0
 10
-38.501
 11
-38.105
 20
34.063
 21
33.706
  0
LINE
  8
0
 10
-38.105
 11
-37.792
 20
33.706
 21
33.275
  0
LINE
  8
0
 10
-37.792
 11
-37.575
 20
33.275
 21
32.788
  0
LINE
  8
0
 10
-37.575
 11
-37.464
 20
32.788
 21
32.267
  0
LINE
  8
0
 10
-37.464
 11
-37.464
 20
32.267
 21
31.733
  0
LINE
  8
0
 10
-37.464
 11
-37.575
 20
31.733
 21
31.212
  0
LINE
  8
0
 10
-37.575
 11
-37.792
 20
31.212
 21
30.725
  0
LINE
  8
0
 10
-37.792
 11
-38.105
 20
30.725
 21
30.294
  0
LINE
  8
0
 10
-38.105
 11
-38.501
 20
30.294
 21
29.937
  0
LINE
  8
0
 10
-38.501
 11
-38.963
 20
29.937
 21
29.67
  0
LINE
  8
0
 10
-38.963
 11
-39.47
 20
29.67
 21
29.506
  0
LINE
  8
0
 10
-39.47
 11
-40
 20
29.506
 21
29.45
  0
LINE
  8
0
 10
-40
 11
-40.53
 20
29.45
 21
29.506
  0
LINE
  8
0
 10
-40.53
 11
-41.037
 20
29.506
 21
29.67
  0
LINE
  8
0
 10
-41.037
 11
-41.499
 20
29.67
 21
29.937
  0
LINE
  8
0
 10
-41.499
 11
-41.895
 20
29.937
 21
30.294
  0
LINE
  8
0
 10
-41.895
 11
-42.208
 20
30.294
 21
30.725
  0
LINE
  8
0
 10
-42.208
 11
-42.425
 20
30.725
 21
31.212
  0
LINE
  8
0
 10
-42.425
 11
-42.536
 20
31.212
 21
31.733
  0
LINE
  8
0
 10
-42.536
 11
-42.536
 20
39.733
 21
40.267
  0
LINE
  8
0
 10
-42.536
 11
-42.425
 20
40.267
 21
40.788
  0
LINE
  8
0
 10
-42.425
 11
-42.208
 20
40.788
 21
41.275
  0
LINE
  8
0
 10
-42.208
 11
-41.895
 20
41.275
 21
41.706
  0
LINE
  8
0
 10
-41.895
 11
-41.499
 20
41.706
 21
42.063
  0
LINE
  8
0
 10
-41.499
 11
-41.037
 20
42.063
 21
42.33
  0
LINE
  8
0
 10
-41.037
 11
-40.53
 20
42.33
 21
42.494
  0
LINE
  8
0
 10
-40.53
 11
-40
 20
42.494
 21
42.55
  0
LINE
  8
0
 10
-40
 11
-39.47
 20
42.55
 21
42.494
  0
LINE
  8
0
 10
-39.47
 11
-38.963
 20
42.494
 21
42.33
  0
LINE
  8
0
 10
-38.963
 11
-38.501
 20
42.33
 21
42.063
  0
LINE
  8
0
 10
-38.501
 11
-38.105
 20
42.063
 21
41.706
  0
LINE
  8
0
 10
-38.105
 11
-37.792
 20
41.706
 21
41.275
  0
LINE
  8
0
 10
-37.792
 11
-37.575
 20
41.275
 21
40.788
  0
LINE
  8
0
 10
-37.575
 11
-37.464
 20
40.788
 21
40.267
  0
LINE
  8
0
 10
-37.464
 11
-37.464
 20
40.267
 21
39.733
  0
LINE
  8
0
 10
-37.464
 11
-37.575
 20
39.733
 21
39.212
  0
LINE
  8
0
 10
-37.575
 11
-37.792
 20
39.212
 21
38.725
  0
LINE
  8
0
 10
-37.792
 11
-38.105
 20
38.725
 21
38.294
  0
LINE
  8
0
 10
-38.105
 11
-38.501
 20
38.294
 21
37.937
  0
LINE
  8
0
 10
-38.501
 11
-38.963
 20
37.937
 21
37.67
  0
LINE
  8
0
 10
-38.963
 11
-39.47
 20
37.67
 21
37.506
  0
LINE
  8
0
 10
-39.47
 11
-40
 20
37.506
 21
37.45
  0
LINE
  8
0
 10
-40
 11
-40.53
 20
37.45
 21
37.506
  0
LINE
  8
0
 10
-40.53
 11
-41.037
 20
37.506
 21
37.67
  0
LINE
  8
0
 10
-41.037
 11
-41.499
 20
37.67
 21
37.937
  0
LINE
  8
0
 10
-41.499
 11
-41.895
 20
37.937
 21
38.294
  0
LINE
  8
0
 10
-41.895
 11
-42.208
 20
38.294
 21
38.725
  0
LINE
  8
0
 10
-42.208
 11
-42.425
 20
38.725
 21
39.212
  0
LINE
  8
0
 10
-42.425
 11
-42.536
 20
39.212
 21
39.733
  0
LINE
  8
0
 10
-42.536
 11
-42.536
 20
47.733
 21
48.267
  0
LINE
  8
0
 10
-42.536
 11
-42.425
 20
48.267
 21
48.788
  0
LINE
  8
0
 10
-42.425
 11
-42.208
 20
48.788
 21
49.275
  0
LINE
  8
0
 10
-42.208
 11
-41.895
 20
49.275
 21
49.706
  0
LINE
  8
0
 10
-41.895
 11
-41.499
 20
49.706
 21
50.063
  0
LINE
  8
0
 10
-41.499
 11
-41.037
 20
50.063
 21
50.33
  0
LINE
  8
0
 10
-41.037
 11
-40.53
 20
50.33
 21
50.494
  0
LINE
  8
0
 10
-40.53
 11
-40
 20
50.494
 21
50.55
  0
LINE
  8
0
 10
-40
 11
-39.47
 20
50.55
 21
50.494
  0
LINE
  8
0
 10
-39.47
 11
-38.963
 20
50.494
 21
50.33
  0
LINE
  8
0
 10
-38.963
 11
-38.501
 20
50.33
 21
50.063
  0
LINE
  8
0
 10
-38.501
 11
-38.105
 20
50.063
 21
49.706
  0
LINE
  8
0
 10
-38.105
 11
-37.792
 20
49.706
 21
49.275
  0
LINE
  8
0
 10
-37.792
 11
-37.575
 20
49.275
 21
48.788
  0
LINE
  8
0
 10
-37.575
 11
-37.464
 20
48.788
 21
48.267
  0
LINE
  8
0
 10
-37.464
 11
-37.464
 20
48.267
 21
47.733
  0
LINE
  8
0
 10
-37.464
 11
-37.575
 20
47.733
 21
47.212
  0
LINE
  8
0
 10
-37.575
 11
-37.792
 20
47.212
 21
46.725
  0
LINE
  8
0
 10
-37.792
 11
-38.105
 20
46.725
 21
46.294
  0
LINE
  8
0
 10
-38.105
 11
-38.501
 20
46.294
 21
45.937
  0
LINE
  8
0
 10
-38.501
 11
-38.963
 20
45.937
 21
45.67
  0
LINE
  8
0
 10
-38.963
 11
-39.47
 20
45.67
 21
45.506
  0
LINE
  8
0
 10
-39.47
 11
-40
 20
45.506
 21
45.45
  0
LINE
  8
0
 10
-40
 11
-40.53
 20
45.45
 21
45.506
  0
LINE
  8
0
 10
-40.53
 11
-41.037
 20
45.506
 21
45.67
  0
LINE
  8
0
 10
-41.037
 11
-41.499
 20
45.67
 21
45.937
  0
LINE
  8
0
 10
-41.499
 11
-41.895
 20
45.937
 21
46.294
  0
LINE
  8
0
 10
-41.895
 11
-42.208
 20
46.294
 21
46.725
  0
LINE
  8
0
 10
-42.208
 11
-42.425
 20
46.725
 21
47.212
  0
LINE
  8
0
 10
-42.425
 11
-42.536
 20
47.212
 21
47.733
  0
LINE
  8
0
 10
-42.536
 11
-42.536
 20
55.733
 21
56.267
  0
LINE
  8
0
 10
-42.536
 11
-42.425
 20
56.267
 21
56.788
  0
LINE
  8
0
 10
-42.425
 11
-42.208
 20
56.788
 21
57.275
  0
LINE
  8
0
 10
-42.208
 11
-41.895
 20
57.275
 21
57.706
  0
LINE
  8
0
 10
-41.895
 11
-41.499
 20
57.706
 21
58.063
  0
LINE
  8
0
 10
-41.499
 11
-41.037
 20
58.063
 21
58.33
  0
LINE
  8
0
 10
-41.037
 11
-40.53
 20
58.33
 21
58.494
  0
LINE
  8
0
 10
-40.53
 11
-40
 20
58.494
 21
58.55
  0
LINE
  8
0
 10
-40
 11
-39.47
 20
58.55
 21
58.494
  0
LINE
  8
0
 10
-39.47
 11
-38.963
 20
58.494
 21
58.33
  0
LINE
  8
0
 10
-38.963
 11
-38.501
 20
58.33
 21
58.063
  0
LINE
  8
0
 10
-38.501
 11
-38.105
 20
58.063
 21
57.706
  0
LINE
  8
0
 10
-38.105
 11
-37.792
 20
57.706
 21
57.275
  0
LINE
  8
0
 10
-37.792
 11
-37.575
 20
57.275
 21
56.788
  0
LINE
  8
0
 10
-37.575
 11
-37.464
 20
56.788
 21
56.267
  0
LINE
  8
0
 10
-37.464
 11
-37.464
 20
56.267
 21
55.733
  0
LINE
  8
0
 10
-37.464
 11
-37.575
 20
55.733
 21
55.212
  0
LINE
  8
0
 10
-37.575
 11
-37.792
 20
55.212
 21
54.725
  0
LINE
  8
0
 10
-37.792
 11
-38.105
 20
54.725
 21
54.294
  0
LINE
  8
0
 10
-38.105
 11
-38.501
 20
54.294
 21
53.937
  0
LINE
  8
0
 10
-38.501
 11
-38.963
 20
53.937
 21
53.67
  0
LINE
  8
0
 10
-38.963
 11
-39.47
 20
53.67
 21
53.506
  0
LINE
  8
0
 10
-39.47
 11
-40
 20
53.506
 21
53.45
  0
LINE
  8
0
 10
-40
 11
-40.53
 20
53.45
 21
53.506
  0
LINE
  8
0
 10
-40.53
 11
-41.037
 20
53.506
 21
53.67
  0
LINE
  8
0
 10
-41.037
 11
-41.499
 20
53.67
 21
53.937
  0
LINE
  8
0
 10
-41.499
 11
-41.895
 20
53.937
 21
54.294
  0
LINE
  8
0
 10
-41.895
 11
-42.208
 20
54.294
 21
54.725
  0
LINE
  8
0
 10
-42.208
 11
-42.425
 20
54.725
 21
55.212
  0
LINE
  8
0
 10
-42.425
 11
-42.536
 20
55.212
 21
55.733
  0
LINE
  8
0
 10
-42.536
 11
-42.536
 20
63.733
 21
64.267
  0
LINE
  8
0
 10
-42.536
 11
-42.425
 20
64.267
 21
64.788
  0
LINE
  8
0
 10
-42.425
 11
-42.208
 20
64.788
 21
65.275
  0
LINE
  8
0
 10
-42.208
 11
-41.895
 20
65.275
 21
65.706
  0
LINE
  8
0
 10
-41.895
 11
-41.499
 20
65.706
 21
66.063
  0
LINE
  8
0
 10
-41.499
 11
-41.037
 20
66.063
 21
66.33
  0
LINE
  8
0
 10
-41.037
 11
-40.53
 20
66.33
 21
66.494
  0
LINE
  8
0
 10
-40.53
 11
-40
 20
66.494
 21
66.55
  0
LINE
  8
0
 10
-40
 11
-39.47
 20
66.55
 21
66.494
  0
LINE
  8
0
 10
-39.47
 11
-38.963
 20
66.494
 21
66.33
  0
LINE
  8
0
 10
-38.963
 11
-38.501
 20
66.33
 21
66.063
  0
LINE
  8
0
 10
-38.501
 11
-38.105
 20
66.063
 21
65.706
  0
LINE
  8
0
 10
-38.105
 11
-37.792
 20
65.706
 21
65.275
  0
LINE
  8
0
 10
-37.792
 11
-37.575
 20
65.275
 21
64.788
  0
LINE
  8
0
 10
-37.575
 11
-37.464
 20
64.788
 21
64.267
  0
LINE
  8
0
 10
-37.464
 11
-37.464
 20
64.267
 21
63.733
  0
LINE
  8
0
 10
-37.464
 11
-37.575
 20
63.733
 21
63.212
  0
LINE
  8
0
 10
-37.575
 11
-37.792
 20
63.212
 21
62.725
  0
LINE
  8
0
 10
-37.792
 11
-38.105
 20
62.725
 21
62.294
  0
LINE
  8
0
 10
-38.105
 11
-38.501
 20
62.294
 21
61.937
  0
LINE
  8
0
 10
-38.501
 11
-38.963
 20
61.937
 21
61.67
  0
LINE
  8
0
 10
-38.963
 11
-39.47
 20
61.67
 21
61.506
  0
LINE
  8
0
 10
-39.47
 11
-40
 20
61.506
 21
61.45
  0
LINE
  8
0
 10
-40
 11
-40.53
 20
61.45
 21
61.506
  0
LINE
  8
0
 10
-40.53
 11
-41.037
 20
61.506
 21
61.67
  0
LINE
  8
0
 10
-41.037
 11
-41.499
 20
61.67
 21
61.937
  0
LINE
  8
0
 10
-41.499
 11
-41.895
 20
61.937
 21
62.294
  0
LINE
  8
0
 10
-41.895
 11
-42.208
 20
62.294
 21
62.725
  0
LINE
  8
0
 10
-42.208
 11
-42.425
 20
62.725
 21
63.212
  0
LINE
  8
0
 10
-42.425
 11
-42.536
 20
63.212
 21
63.733
  0
LINE
  8
0
 10
-42.536
 11
-42.536
 20
71.733
 21
72.267
  0
LINE
  8
0
 10
-42.536
 11
-42.425
 20
72.267
 21
72.788
  0
LINE
  8
0
 10
-42.425
 11
-42.208
 20
72.788
 21
73.275
  0
LINE
  8
0
 10
-42.208
 11
-41.895
 20
73.275
 21
73.706
  0
LINE
  8
0
 10
-41.895
 11
-41.499
 20
73.706
 21
74.063
  0
LINE
  8
0
 10
-41.499
 11
-41.037
 20
74.063
 21
74.33
  0
LINE
  8
0
 10
-41.037
 11
-40.53
 20
74.33
 21
74.494
  0
LINE
  8
0
 10
-40.53
 11
-40
 20
74.494
 21
74.55
  0
LINE
  8
0
 10
-40
 11
-39.47
 20
74.55
 21
74.494
  0
LINE
  8
0
 10
-39.47
 11
-38.963
 20
74.494
 21
74.33
  0
LINE
  8
0
 10
-38.963
 11
-38.501
 20
74.33
 21
74.063
  0
LINE
  8
0
 10
-38.501
 11
-38.105
 20
74.063
 21
73.706
  0
LINE
  8
0
 10
-38.105
 11
-37.792
 20
73.706
 21
73.275
  0
LINE
  8
0
 10
-37.792
 11
-37.575
 20
73.275
 21
72.788
  0
LINE
  8
0
 10
-37.575
 11
-37.464
 20
72.788
 21
72.267
  0
LINE
  8
0
 10
-37.464
 11
-37.464
 20
72.267
 21
71.733
  0
LINE
  8
0
 10
-37.464
 11
-37.575
 20
71.733
 21
71.212
  0
LINE
  8
0
 10
-37.575
 11
-37.792
 20
71.212
 21
70.725
  0
LINE
  8
0
 10
-37.792
 11
-38.105
 20
70.725
 21
70.294
  0
LINE
  8
0
 10
-38.105
 11
-38.501
 20
70.294
 21
69.937
  0
LINE
  8
0
 10
-38.501
 11
-38.963
 20
69.937
 21
69.67
  0
LINE
  8
0
 10
-38.963
 11
-39.47
 20
69.67
 21
69.506
  0
LINE
  8
0
 10
-39.47
 11
-40
 20
69.506
 21
69.45
  0
LINE
  8
0
 10
-40
 11
-40.53
 20
69.45
 21
69.506
  0
LINE
  8
0
 10
-40.53
 11
-41.037
 20
69.506
 21
69.67
  0
LINE
  8
0
 10
-41.037
 11
-41.499
 20
69.67
 21
69.937
  0
LINE
  8
0
 10
-41.499
 11
-41.895
 20
69.937
 21
70.294
  0
LINE
  8
0
 10
-41.895
 11
-42.208
 20
70.294
 21
70.725
  0
LINE
  8
0
 10
-42.208
 11
-42.425
 20
70.725
 21
71.212
  0
LINE
  8
0
 10
-42.425
 11
-42.536
 20
71.212
 21
71.733
  0
LINE
  8
0
 10
-34.55
 11
-34.494
 20
-64
 21
-63.47
  0
LINE
  8
0
 10
-34.494
 11
-34.33
 20
-63.47
 21
-62.963
  0
LINE
  8
0
 10
-34.33
 11
-34.063
 20
-62.963
 21
-62.501
  0
LINE
  8
0
 10
-34.063
 11
-33.706
 20
-62.501
 21
-62.105
  0
LINE
  8
0
 10
-33.706
 11
-33.275
 20
-62.105
 21
-61.792
  0
LINE
  8
0
 10
-33.275
 11
-32.788
 20
-61.792
 21
-61.575
  0
LINE
  8
0
 10
-32.788
 11
-32.267
 20
-61.575
 21
-61.464
  0
LINE
  8
0
 10
-32.267
 11
-31.733
 20
-61.464
 21
-61.464
  0
LINE
  8
0
 10
-31.733
 11
-31.212
 20
-61.464
 21
-61.575
  0
LINE
  8
0
 10
-31.212
 11
-30.725
 20
-61.575
 21
-61.792
  0
LINE
  8
0
 10
-30.725
 11
-30.294
 20
-61.792
 21
-62.105
  0
LINE
  8
0
 10
-30.294
 11
-29.937
 20
-62.105
 21
-62.501
  0
LINE
  8
0
 10
-29.937
 11
-29.67
 20
-62.501
 21
-62.963
  0
LINE
  8
0
 10
-29.67
 11
-29.506
 20
-62.963
 21
-63.47
  0
LINE
  8
0
 10
-29.506
 11
-29.45
 20
-63.47
 21
-64
  0
LINE
  8
0
 10
-29.45
 11
-29.506
 20
-64
 21
-64.53
  0
LINE
  8
0
 10
-29.506
 11
-29.67
 20
-64.53
 21
-65.037
  0
LINE
  8
0
 10
-29.67
 11
-29.937
 20
-65.037
 21
-65.499
  0
LINE
  8
0
 10
-29.937
 11
-30.294
 20
-65.499
 21
-65.895
  0
LINE
  8
0
 10
-30.294
 11
-30.725
 20
-65.895
 21
-66.208
  0
LINE
  8
0
 10
-30.725
 11
-31.212
 20
-66.208
 21
-66.425
  0
LINE
  8
0
 10
-31.212
 11
-31.733
 20
-66.425
 21
-66.536
  0
LINE
  8
0
 10
-31.733
 11
-32.267
 20
-66.536
 21
-66.536
  0
LINE
  8
0
 10
-32.267
 11
-32.788
 20
-66.536
 21
-66.425
  0
LINE
  8
0
 10
-32.788
 11
-33.275
 20
-66.425
 21
-66.208
  0
LINE
  8
0
 10
-33.275
 11
-33.706
 20
-66.208
 21
-65.895
  0
LINE
  8
0
 10
-33.706
 11
-34.063
 20
-65.895
 21
-65.499
  0
LINE
  8
0
 10
-34.063
 11
-34.33
 20
-65.499
 21
-65.037
  0
LINE
  8
0
 10
-34.33
 11
-34.494
 20
-65.037
 21
-64.53
  0
LINE
  8
0
 10
-34.494
 11
-34.55
 20
-64.53
 21
-64
  0
LINE
  8
0
 10
-34.55
 11
-34.494
 20
80
 21
80.53
  0
LINE
  8
0
 10
-34.494
 11
-34.33
 20
80.53
 21
81.037
  0
LINE
  8
0
 10
-34.33
 11
-34.063
 20
81.037
 21
81.499
  0
LINE
  8
0
 10
-34.063
 11
-33.706
 20
81.499
 21
81.895
  0
LINE
  8
0
 10
-33.706
 11
-33.275
 20
81.895
 21
82.208
  0
LINE
  8
0
 10
-33.275
 11
-32.788
 20
82.208
 21
82.425
  0
LINE
  8
0
 10
-32.788
 11
-32.267
 20
82.425
 21
82.536
  0
LINE
  8
0
 10
-32.267
 11
-31.733
 20
82.536
 21
82.536
  0
LINE
  8
0
 10
-31.733
 11
-31.212
 20
82.536
 21
82.425
  0
LINE
  8
0
 10
-31.212
 11
-30.725
 20
82.425
 21
82.208
  0
LINE
  8
0
 10
-30.725
 11
-30.294
 20
82.208
 21
81.895
  0
LINE
  8
0
 10
-30.294
 11
-29.937
 20
81.895
 21
81.499
  0
LINE
  8
0
 10
-29.937
 11
-29.67
 20
81.499
 21
81.037
  0
LINE
  8
0
 10
-29.67
 11
-29.506
 20
81.037
 21
80.53
  0
LINE
  8
0
 10
-29.506
 11
-29.45
 20
80.53
 21
80
  0
LINE
  8
0
 10
-29.45
 11
-29.506
 20
80
 21
79.47
  0
LINE
  8
0
 10
-29.506
 11
-29.67
 20
79.47
 21
78.963
  0
LINE
  8
0
 10
-29.67
 11
-29.937
 20
78.963
 21
78.501
  0
LINE
  8
0
 10
-29.937
 11
-30.294
 20
78.501
 21
78.105
  0
LINE
  8
0
 10
-30.294
 11
-30.725
 20
78.105
 21
77.792
  0
LINE
  8
0
 10
-30.725
 11
-31.212
 20
77.792
 21
77.575
  0
LINE
  8
0
 10
-31.212
 11
-31.733
 20
77.575
 21
77.464
  0
LINE
  8
0
 10
-31.733
 11
-32.267
 20
77.464
 21
77.464
  0
LINE
  8
0
 10
-32.267
 11
-32.788
 20
77.464
 21
77.575
  0
LINE
  8
0
 10
-32.788
 11
-33.275
 20
77.575
 21
77.792
  0
LINE
  8
0
 10
-33.275
 11
-33.706
 20
77.792
 21
78.105
  0
LINE
  8
0
 10
-33.706
 11
-34.063
 20
78.105
 21
78.501
  0
LINE
  8
0
 10
-34.063
 11
-34.33
 20
78.501
 21
78.963
  0
LINE
  8
0
 10
-34.33
 11
-34.494
 20
78.963
 21
79.47
  0
LINE
  8
0
 10
-34.494
 11
-34.55
 20
79.47
 21
80
  0
LINE
  8
0
 10
-26.55
 11
-26.494
 20
-64
 21
-63.47
  0
LINE
  8
0
 10
-26.494
 11
-26.33
 20
-63.47
 21
-62.963
  0
LINE
  8
0
 10
-26.33
 11
-26.063
 20
-62.963
 21
-62.501
  0
LINE
  8
0
 10
-26.063
 11
-25.706
 20
-62.501
 21
-62.105
  0
LINE
  8
0
 10
-25.706
 11
-25.275
 20
-62.105
 21
-61.792
  0
LINE
  8
0
 10
-25.275
 11
-24.788
 20
-61.792
 21
-61.575
  0
LINE
  8
0
 10
-24.788
 11
-24.267
 20
-61.575
 21
-61.464
  0
LINE
  8
0
 10
-24.267
 11
-23.733
 20
-61.464
 21
-61.464
  0
LINE
  8
0
 10
-23.733
 11
-23.212
 20
-61.464
 21
-61.575
  0
LINE
  8
0
 10
-23.212
 11
-22.725
 20
-61.575
 21
-61.792
  0
LINE
  8
0
 10
-22.725
 11
-22.294
 20
-61.792
 21
-62.105
  0
LINE
  8
0
 10
-22.294
 11
-21.937
 20
-62.105
 21
-62.501
  0
LINE
  8
0
 10
-21.937
 11
-21.67
 20
-62.501
 21
-62.963
  0
LINE
  8
0
 10
-21.67
 11
-21.506
 20
-62.963
 21
-63.47
  0
LINE
  8
0
 10
-21.506
 11
-21.45
 20
-63.47
 21
-64
  0
LINE
  8
0
 10
-21.45
 11
-21.506
 20
-64
 21
-64.53
  0
LINE
  8
0
 10
-21.506
 11
-21.67
 20
-64.53
 21
-65.037
  0
LINE
  8
0
 10
-21.67
 11
-21.937
 20
-65.037
 21
-65.499
  0
LINE
  8
0
 10
-21.937
 11
-22.294
 20
-65.499
 21
-65.895
  0
LINE
  8
0
 10
-22.294
 11
-22.725
 20
-65.895
 21
-66.208
  0
LINE
  8
0
 10
-22.725
 11
-23.212
 20
-66.208
 21
-66.425
  0
LINE
  8
0
 10
-23.212
 11
-23.733
 20
-66.425
 21
-66.536
  0
LINE
  8
0
 10
-23.733
 11
-24.267
 20
-66.536
 21
-66.536
  0
LINE
  8
0
 10
-24.267
 11
-24.788
 20
-66.536
 21
-66.425
  0
LINE
  8
0
 10
-24.788
 11
-25.275
 20
-66.425
 21
-66.208
  0
LINE
  8
0
 10
-25.275
 11
-25.706
 20
-66.208
 21
-65.895
  0
LINE
  8
0
 10
-25.706
 11
-26.063
 20
-65.895
 21
-65.499
  0
LINE
  8
0
 10
-26.063
 11
-26.33
 20
-65.499
 21
-65.037
  0
LINE
  8
0
 10
-26.33
 11
-26.494
 20
-65.037
 21
-64.53
  0
LINE
  8
0
 10
-26.494
 11
-26.55
 20
-64.53
 21
-64
  0
LINE
  8
0
 10
-26.55
 11
-26.494
 20
80
 21
80.53
  0
LINE
  8
0
 10
-26.494
 11
-26.33
 20
80.53
 21
81.037
  0
LINE
  8
0
 10
-26.33
 11
-26.063
 20
81.037
 21
81.499
  0
LINE
  8
0
 10
-26.063
 11
-25.706
 20
81.499
 21
81.895
  0
LINE
  8
0
 10
-25.706
 11
-25.275
 20
81.895
 21
82.208
  0
LINE
  8
0
 10
-25.275
 11
-24.788
 20
82.208
 21
82.425
  0
LINE
  8
0
 10
-24.788
 11
-24.267
 20
82.425
 21
82.536
  0
LINE
  8
0
 10
-24.267
 11
-23.733
 20
82.536
 21
82.536
  0
LINE
  8
0
 10
-23.733
 11
-23.212
 20
82.536
 21
82.425
  0
LINE
  8
0
 10
-23.212
 11
-22.725
 20
82.425
 21
82.208
  0
LINE
  8
0
 10
-22.725
 11
-22.294
 20
82.208
 21
81.895
  0
LINE
  8
0
 10
-22.294
 11
-21.937
 20
81.895
 21
81.499
  0
LINE
  8
0
 10
-21.937
 11
-21.67
 20
81.499
 21
81.037
  0
LINE
  8
0
 10
-21.67
 11
-21.506
 20
81.037
 21
80.53
  0
LINE
  8
0
 10
-21.506
 11
-21.45
 20
80.53
 21
80
  0
LINE
  8
0
 10
-21.45
 11
-21.506
 20
80
 21
79.47
  0
LINE
  8
0
 10
-21.506
 11
-21.67
 20
79.47
 21
78.963
  0
LINE
  8
0
 10
-21.67
 11
-21.937
 20
78.963
 21
78.501
  0
LINE
  8
0
 10
-21.937
 11
-22.294
 20
78.501
 21
78.105
  0
LINE
  8
0
 10
-22.294
 11
-22.725
 20
78.105
 21
77.792
  0
LINE
  8
0
 10
-22.725
 11
-23.212
 20
77.792
 21
77.575
  0
LINE
  8
0
 10
-23.212
 11
-23.733
 20
77.575
 21
77.464
  0
LINE
  8
0
 10
-23.733
 11
-24.267
 20
77.464
 21
77.464
  0
LINE
  8
0
 10
-24.267
 11
-24.788
 20
77.464
 21
77.575
  0
LINE
  8
0
 10
-24.788
 11
-25.275
 20
77.575
 21
77.792
  0
LINE
  8
0
 10
-25.275
 11
-25.706
 20
77.792
 21
78.105
  0
LINE
  8
0
 10
-25.706
 11
-26.063
 20
78.105
 21
78.501
  0
LINE
  8
0
 10
-26.063
 11
-26.33
 20
78.501
 21
78.963
  0
LINE
  8
0
 10
-26.33
 11
-26.494
 20
78.963
 21
79.47
  0
LINE
  8
0
 10
-26.494
 11
-26.55
 20
79.47
 21
80
  0
LINE
  8
0
 10
-18.55
 11
-18.494
 20
-80
 21
-79.47
  0
LINE
  8
0
 10
-18.494
 11
-18.33
 20
-79.47
 21
-78.963
  0
LINE
  8
0
 10
-18.33
 11
-18.063
 20
-78.963
 21
-78.501
  0
LINE
  8
0
 10
-18.063
 11
-17.706
 20
-78.501
 21
-78.105
  0
LINE
  8
0
 10
-17.706
 11
-17.275
 20
-78.105
 21
-77.792
  0
LINE
  8
0
 10
-17.275
 11
-16.788
 20
-77.792
 21
-77.575
  0
LINE
  8
0
 10
-16.788
 11
-16.267
 20
-77.575
 21
-77.464
  0
LINE
  8
0
 10
-16.267
 11
-15.733
 20
-77.464
 21
-77.464
  0
LINE
  8
0
 10
-15.733
 11
-15.212
 20
-77.464
 21
-77.575
  0
LINE
  8
0
 10
-15.212
 11
-14.725
 20
-77.575
 21
-77.792
  0
LINE
  8
0
 10
-14.725
 11
-14.294
 20
-77.792
 21
-78.105
  0
LINE
  8
0
 10
-14.294
 11
-13.937
 20
-78.105
 21
-78.501
  0
LINE
  8
0
 10
-13.937
 11
-13.67
 20
-78.501
 21
-78.963
  0
LINE
  8
0
 10
-13.67
 11
-13.506
 20
-78.963
 21
-79.47
  0
LINE
  8
0
 10
-13.506
 11
-13.45
 20
-79.47
 21
-80
  0
LINE
  8
0
 10
-13.45
 11
-13.506
 20
-80
 21
-80.53
  0
LINE
  8
0
 10
-13.506
 11
-13.67
 20
-80.53
 21
-81.037
  0
LINE
  8
0
 10
-13.67
 11
-13.937
 20
-81.037
 21
-81.499
  0
LINE
  8
0
 10
-13.937
 11
-14.294
 20
-81.499
 21
-81.895
  0
LINE
  8
0
 10
-14.294
 11
-14.725
 20
-81.895
 21
-82.208
  0
LINE
  8
0
 10
-14.725
 11
-15.212
 20
-82.208
 21
-82.425
  0
LINE
  8
0
 10
-15.212
 11
-15.733
 20
-82.425
 21
-82.536
  0
LINE
  8
0
 10
-15.733
 11
-16.267
 20
-82.536
 21
-82.536
  0
LINE
  8
0
 10
-16.267
 11
-16.788
 20
-82.536
 21
-82.425
  0
LINE
  8
0
 10
-16.788
 11
-17.275
 20
-82.425
 21
-82.208
  0
LINE
  8
0
 10
-17.275
 11
-17.706
 20
-82.208
 21
-81.895
  0
LINE
  8
0
 10
-17.706
 11
-18.063
 20
-81.895
 21
-81.499
  0
LINE
  8
0
 10
-18.063
 11
-18.33
 20
-81.499
 21
-81.037
  0
LINE
  8
0
 10
-18.33
 11
-18.494
 20
-81.037
 21
-80.53
  0
LINE
  8
0
 10
-18.494
 11
-18.55
 20
-80.53
 21
-80
  0
LINE
  8
0
 10
-18.55
 11
-18.494
 20
-64
 21
-63.47
  0
LINE
  8
0
 10
-18.494
 11
-18.33
 20
-63.47
 21
-62.963
  0
LINE
  8
0
 10
-18.33
 11
-18.063
 20
-62.963
 21
-62.501
  0
LINE
  8
0
 10
-18.063
 11
-17.706
 20
-62.501
 21
-62.105
  0
LINE
  8
0
 10
-17.706
 11
-17.275
 20
-62.105
 21
-61.792
  0
LINE
  8
0
 10
-17.275
 11
-16.788
 20
-61.792
 21
-61.575
  0
LINE
  8
0
 10
-16.788
 11
-16.267
 20
-61.575
 21
-61.464
  0
LINE
  8
0
 10
-16.267
 11
-15.733
 20
-61.464
 21
-61.464
  0
LINE
  8
0
 10
-15.733
 11
-15.212
 20
-61.464
 21
-61.575
  0
LINE
  8
0
 10
-15.212
 11
-14.725
 20
-61.575
 21
-61.792
  0
LINE
  8
0
 10
-14.725
 11
-14.294
 20
-61.792
 21
-62.105
  0
LINE
  8
0
 10
-14.294
 11
-13.937
 20
-62.105
 21
-62.501
  0
LINE
  8
0
 10
-13.937
 11
-13.67
 20
-62.501
 21
-62.963
  0
LINE
  8
0
 10
-13.67
 11
-13.506
 20
-62.963
 21
-63.47
  0
LINE
  8
0
 10
-13.506
 11
-13.45
 20
-63.47
 21
-64
  0
LINE
  8
0
 10
-13.45
 11
-13.506
 20
-64
 21
-64.53
  0
LINE
  8
0
 10
-13.506
 11
-13.67
 20
-64.53
 21
-65.037
  0
LINE
  8
0
 10
-13.67
 11
-13.937
 20
-65.037
 21
-65.499
  0
LINE
  8
0
 10
-13.937
 11
-14.294
 20
-65.499
 21
-65.895
  0
LINE
  8
0
 10
-14.294
 11
-14.725
 20
-65.895
 21
-66.208
  0
LINE
  8
0
 10
-14.725
 11
-15.212
 20
-66.208
 21
-66.425
  0
LINE
  8
0
 10
-15.212
 11
-15.733
 20
-66.425
 21
-66.536
  0
LINE
  8
0
 10
-15.733
 11
-16.267
 20
-66.536
 21
-66.536
  0
LINE
  8
0
 10
-16.267
 11
-16.788
 20
-66.536
 21
-66.425
  0
LINE
  8
0
 10
-16.788
 11
-17.275
 20
-66.425
 21
-66.208
  0
LINE
  8
0
 10
-17.275
 11
-17.706
 20
-66.208
 21
-65.895
  0
LINE
  8
0
 10
-17.706
 11
-18.063
 20
-65.895
 21
-65.499
  0
LINE
  8
0
 10
-18.063
 11
-18.33
 20
-65.499
 21
-65.037
  0
LINE
  8
0
 10
-18.33
 11
-18.494
 20
-65.037
 21
-64.53
  0
LINE
  8
0
 10
-18.494
 11
-18.55
 20
-64.53
 21
-64
  0
LINE
  8
0
 10
-18.55
 11
-18.494
 20
80
 21
80.53
  0
LINE
  8
0
 10
-18.494
 11
-18.33
 20
80.53
 21
81.037
  0
LINE
  8
0
 10
-18.33
 11
-18.063
 20
81.037
 21
81.499
  0
LINE
  8
0
 10
-18.063
 11
-17.706
 20
81.499
 21
81.895
  0
LINE
  8
0
 10
-17.706
 11
-17.275
 20
81.895
 21
82.208
  0
LINE
  8
0
 10
-17.275
 11
-16.788
 20
82.208
 21
82.425
  0
LINE
  8
0
 10
-16.788
 11
-16.267
 20
82.425
 21
82.536
  0
LINE
  8
0
 10
-16.267
 11
-15.733
 20
82.536
 21
82.536
  0
LINE
  8
0
 10
-15.733
 11
-15.212
 20
82.536
 21
82.425
  0
LINE
  8
0
 10
-15.212
 11
-14.725
 20
82.425
 21
82.208
  0
LINE
  8
0
 10
-14.725
 11
-14.294
 20
82.208
 21
81.895
  0
LINE
  8
0
 10
-14.294
 11
-13.937
 20
81.895
 21
81.499
  0
LINE
  8
0
 10
-13.937
 11
-13.67
 20
81.499
 21
81.037
  0
LINE
  8
0
 10
-13.67
 11
-13.506
 20
81.037
 21
80.53
  0
LINE
  8
0
 10
-13.506
 11
-13.45
 20
80.53
 21
80
  0
LINE
  8
0
 10
-13.45
 11
-13.506
 20
80
 21
79.47
  0
LINE
  8
0
 10
-13.506
 11
-13.67
 20
79.47
 21
78.963
  0
LINE
  8
0
 10
-13.67
 11
-13.937
 20
78.963
 21
78.501
  0
LINE
  8
0
 10
-13.937
 11
-14.294
 20
78.501
 21
78.105
  0
LINE
  8
0
 10
-14.294
 11
-14.725
 20
78.105
 21
77.792
  0
LINE
  8
0
 10
-14.725
 11
-15.212
 20
77.792
 21
77.575
  0
LINE
  8
0
 10
-15.212
 11
-15.733
 20
77.575
 21
77.464
  0
LINE
  8
0
 10
-15.733
 11
-16.267
 20
77.464
 21
77.464
  0
LINE
  8
0
 10
-16.267
 11
-16.788
 20
77.464
 21
77.575
  0
LINE
  8
0
 10
-16.788
 11
-17.275
 20
77.575
 21
77.792
  0
LINE
  8
0
 10
-17.275
 11
-17.706
 20
77.792
 21
78.105
  0
LINE
  8
0
 10
-17.706
 11
-18.063
 20
78.105
 21
78.501
  0
LINE
  8
0
 10
-18.063
 11
-18.33
 20
78.501
 21
78.963
  0
LINE
  8
0
 10
-18.33
 11
-18.494
 20
78.963
 21
79.47
  0
LINE
  8
0
 10
-18.494
 11
-18.55
 20
79.47
 21
80
  0
LINE
  8
0
 10
-10.55
 11
-10.494
 20
-64
 21
-63.47
  0
LINE
  8
0
 10
-10.494
 11
-10.33
 20
-63.47
 21
-62.963
  0
LINE
  8
0
 10
-10.33
 11
-10.063
 20
-62.963
 21
-62.501
  0
LINE
  8
0
 10
-10.063
 11
-9.706
 20
-62.501
 21
-62.105
  0
LINE
  8
0
 10
-9.706
 11
-9.275
 20
-62.105
 21
-61.792
  0
LINE
  8
0
 10
-9.275
 11
-8.788
 20
-61.792
 21
-61.575
  0
LINE
  8
0
 10
-8.788
 11
-8.267
 20
-61.575
 21
-61.464
  0
LINE
  8
0
 10
-8.267
 11
-7.733
 20
-61.464
 21
-61.464
  0
LINE
  8
0
 10
-7.733
 11
-7.212
 20
-61.464
 21
-61.575
  0
LINE
  8
0
 10
-7.212
 11
-6.725
 20
-61.575
 21
-61.792
  0
LINE
  8
0
 10
-6.725
 11
-6.294
 20
-61.792
 21
-62.105
  0
LINE
  8
0
 10
-6.294
 11
-5.937
 20
-62.105
 21
-62.501
  0
LINE
  8
0
 10
-5.937
 11
-5.67
 20
-62.501
 21
-62.963
  0
LINE
  8
0
 10
-5.67
 11
-5.506
 20
-62.963
 21
-63.47
  0
LINE
  8
0
 10
-5.506
 11
-5.45
 20
-63.47
 21
-64
  0
LINE
  8
0
 10
-5.45
 11
-5.506
 20
-64
 21
-64.53
  0
LINE
  8
0
 10
-5.506
 11
-5.67
 20
-64.53
 21
-65.037
  0
LINE
  8
0
 10
-5.67
 11
-5.937
 20
-65.037
 21
-65.499
  0
LINE
  8
0
 10
-5.937
 11
-6.294
 20
-65.499
 21
-65.895
  0
LINE
  8
0
 10
-6.294
 11
-6.725
 20
-65.895
 21
-66.208
  0
LINE
  8
0
 10
-6.725
 11
-7.212
 20
-66.208
 21
-66.425
  0
LINE
  8
0
 10
-7.212
 11
-7.733
 20
-66.425
 21
-66.536
  0
LINE
  8
0
 10
-7.733
 11
-8.267
 20
-66.536
 21
-66.536
  0
LINE
  8
0
 10
-8.267
 11
-8.788
 20
-66.536
 21
-66.425
  0
LINE
  8
0
 10
-8.788
 11
-9.275
 20
-66.425
 21
-66.208
  0
LINE
  8
0
 10
-9.275
 11
-9.706
 20
-66.208
 21
-65.895
  0
LINE
  8
0
 10
-9.706
 11
-10.063
 20
-65.895
 21
-65.499
  0
LINE
  8
0
 10
-10.063
 11
-10.33
 20
-65.499
 21
-65.037
  0
LINE
  8
0
 10
-10.33
 11
-10.494
 20
-65.037
 21
-64.53
  0
LINE
  8
0
 10
-10.494
 11
-10.55
 20
-64.53
 21
-64
  0
LINE
  8
0
 10
-10.55
 11
-10.494
 20
80
 21
80.53
  0
LINE
  8
0
 10
-10.494
 11
-10.33
 20
80.53
 21
81.037
  0
LINE
  8
0
 10
-10.33
 11
-10.063
 20
81.037
 21
81.499
  0
LINE
  8
0
 10
-10.063
 11
-9.706
 20
81.499
 21
81.895
  0
LINE
  8
0
 10
-9.706
 11
-9.275
 20
81.895
 21
82.208
  0
LINE
  8
0
 10
-9.275
 11
-8.788
 20
82.208
 21
82.425
  0
LINE
  8
0
 10
-8.788
 11
-8.267
 20
82.425
 21
82.536
  0
LINE
  8
0
 10
-8.267
 11
-7.733
 20
82.536
 21
82.536
  0
LINE
  8
0
 10
-7.733
 11
-7.212
 20
82.536
 21
82.425
  0
LINE
  8
0
 10
-7.212
 11
-6.725
 20
82.425
 21
82.208
  0
LINE
  8
0
 10
-6.725
 11
-6.294
 20
82.208
 21
81.895
  0
LINE
  8
0
 10
-6.294
 11
-5.937
 20
81.895
 21
81.499
  0
LINE
  8
0
 10
-5.937
 11
-5.67
 20
81.499
 21
81.037
  0
LINE
  8
0
 10
-5.67
 11
-5.506
 20
81.037
 21
80.53
  0
LINE
  8
0
 10
-5.506
 11
-5.45
 20
80.53
 21
80
  0
LINE
  8
0
 10
-5.45
 11
-5.506
 20
80
 21
79.47
  0
LINE
  8
0
 10
-5.506
 11
-5.67
 20
79.47
 21
78.963
  0
LINE
  8
0
 10
-5.67
 11
-5.937
 20
78.963
 21
78.501
  0
LINE
  8
0
 10
-5.937
 11
-6.294
 20
78.501
 21
78.105
  0
LINE
  8
0
 10
-6.294
 11
-6.725
 20
78.105
 21
77.792
  0
LINE
  8
0
 10
-6.725
 11
-7.212
 20
77.792
 21
77.575
  0
LINE
  8
0
 10
-7.212
 11
-7.733
 20
77.575
 21
77.464
  0
LINE
  8
0
 10
-7.733
 11
-8.267
 20
77.464
 21
77.464
  0
LINE
  8
0
 10
-8.267
 11
-8.788
 20
77.464
 21
77.575
  0
LINE
  8
0
 10
-8.788
 11
-9.275
 20
77.575
 21
77.792
  0
LINE
  8
0
 10
-9.275
 11
-9.706
 20
77.792
 21
78.105
  0
LINE
  8
0
 10
-9.706
 11
-10.063
 20
78.105
 21
78.501
  0
LINE
  8
0
 10
-10.063
 11
-10.33
 20
78.501
 21
78.963
  0
LINE
  8
0
 10
-10.33
 11
-10.494
 20
78.963
 21
79.47
  0
LINE
  8
0
 10
-10.494
 11
-10.55
 20
79.47
 21
80
  0
LINE
  8
0
 10
-2.55
 11
-2.494
 20
-64
 21
-63.47
  0
LINE
  8
0
 10
-2.494
 11
-2.33
 20
-63.47
 21
-62.963
  0
LINE
  8
0
 10
-2.33
 11
-2.063
 20
-62.963
 21
-62.501
  0
LINE
  8
0
 10
-2.063
 11
-1.706
 20
-62.501
 21
-62.105
  0
LINE
  8
0
 10
-1.706
 11
-1.275
 20
-62.105
 21
-61.792
  0
LINE
  8
0
 10
-1.275
 11
-0.788
 20
-61.792
 21
-61.575
  0
LINE
  8
0
 10
-0.788
 11
-0.267
 20
-61.575
 21
-61.464
  0
LINE
  8
0
 10
-0.267
 11
0.267
 20
-61.464
 21
-61.464
  0
LINE
  8
0
 10
0.267
 11
0.788
 20
-61.464
 21
-61.575
  0
LINE
  8
0
 10
0.788
 11
1.275
 20
-61.575
 21
-61.792
  0
LINE
  8
0
 10
1.275
 11
1.706
 20
-61.792
 21
-62.105
  0
LINE
  8
0
 10
1.706
 11
2.063
 20
-62.105
 21
-62.501
  0
LINE
  8
0
 10
2.063
 11
2.33
 20
-62.501
 21
-62.963
  0
LINE
  8
0
 10
2.33
 11
2.494
 20
-62.963
 21
-63.47
  0
LINE
  8
0
 10
2.494
 11
2.55
 20
-63.47
 21
-64
  0
LINE
  8
0
 10
2.55
 11
2.494
 20
-64
 21
-64.53
  0
LINE
  8
0
 10
2.494
 11
2.33
 20
-64.53
 21
-65.037
  0
LINE
  8
0
 10
2.33
 11
2.063
 20
-65.037
 21
-65.499
  0
LINE
  8
0
 10
2.063
 11
1.706
 20
-65.499
 21
-65.895
  0
LINE
  8
0
 10
1.706
 11
1.275
 20
-65.895
 21
-66.208
  0
LINE
  8
0
 10
1.275
 11
0.788
 20
-66.208
 21
-66.425
  0
LINE
  8
0
 10
0.788
 11
0.267
 20
-66.425
 21
-66.536
  0
LINE
  8
0
 10
0.267
 11
-0.267
 20
-66.536
 21
-66.536
  0
LINE
  8
0
 10
-0.267
 11
-0.788
 20
-66.536
 21
-66.425
  0
LINE
  8
0
 10
-0.788
 11
-1.275
 20
-66.425
 21
-66.208
  0
LINE
  8
0
 10
-1.275
 11
-1.706
 20
-66.208
 21
-65.895
  0
LINE
  8
0
 10
-1.706
 11
-2.063
 20
-65.895
 21
-65.499
  0
LINE
  8
0
 10
-2.063
 11
-2.33
 20
-65.499
 21
-65.037
  0
LINE
  8
0
 10
-2.33
 11
-2.494
 20
-65.037
 21
-64.53
  0
LINE
  8
0
 10
-2.494
 11
-2.55
 20
-64.53
 21
-64
  0
LINE
  8
0
 10
-2.55
 11
-2.494
 20
80
 21
80.53
  0
LINE
  8
0
 10
-2.494
 11
-2.33
 20
80.53
 21
81.037
  0
LINE
  8
0
 10
-2.33
 11
-2.063
 20
81.037
 21
81.499
  0
LINE
  8
0
 10
-2.063
 11
-1.706
 20
81.499
 21
81.895
  0
LINE
  8
0
 10
-1.706
 11
-1.275
 20
81.895
 21
82.208
  0
LINE
  8
0
 10
-1.275
 11
-0.788
 20
82.208
 21
82.425
  0
LINE
  8
0
 10
-0.788
 11
-0.267
 20
82.425
 21
82.536
  0
LINE
  8
0
 10
-0.267
 11
0.267
 20
82.536
 21
82.536
  0
LINE
  8
0
 10
0.267
 11
0.788
 20
82.536
 21
82.425
  0
LINE
  8
0
 10
0.788
 11
1.275
 20
82.425
 21
82.208
  0
LINE
  8
0
 10
1.275
 11
1.706
 20
82.208
 21
81.895
  0
LINE
  8
0
 10
1.706
 11
2.063
 20
81.895
 21
81.499
  0
LINE
  8
0
 10
2.063
 11
2.33
 20
81.499
 21
81.037
  0
LINE
  8
0
 10
2.33
 11
2.494
 20
81.037
 21
80.53
  0
LINE
  8
0
 10
2.494
 11
2.55
 20
80.53
 21
80
  0
LINE
  8
0
 10
2.55
 11
2.494
 20
80
 21
79.47
  0
LINE
  8
0
 10
2.494
 11
2.33
 20
79.47
 21
78.963
  0
LINE
  8
0
 10
2.33
 11
2.063
 20
78.963
 21
78.501
  0
LINE
  8
0
 10
2.063
 11
1.706
 20
78.501
 21
78.105
  0
LINE
  8
0
 10
1.706
 11
1.275
 20
78.105
 21
77.792
  0
LINE
  8
0
 10
1.275
 11
0.788
 20
77.792
 21
77.575
  0
LINE
  8
0
 10
0.788
 11
0.267
 20
77.575
 21
77.464
  0
LINE
  8
0
 10
0.267
 11
-0.267
 20
77.464
 21
77.464
  0
LINE
  8
0
 10
-0.267
 11
-0.788
 20
77.464
 21
77.575
  0
LINE
  8
0
 10
-0.788
 11
-1.275
 20
77.575
 21
77.792
  0
LINE
  8
0
 10
-1.275
 11
-1.706
 20
77.792
 21
78.105
  0
LINE
  8
0
 10
-1.706
 11
-2.063
 20
78.105
 21
78.501
  0
LINE
  8
0
 10
-2.063
 11
-2.33
 20
78.501
 21
78.963
  0
LINE
  8
0
 10
-2.33
 11
-2.494
 20
78.963
 21
79.47
  0
LINE
  8
0
 10
-2.494
 11
-2.55
 20
79.47
 21
80
  0
LINE
  8
0
 10
5.45
 11
5.506
 20
-64
 21
-63.47
  0
LINE
  8
0
 10
5.506
 11
5.67
 20
-63.47
 21
-62.963
  0
LINE
  8
0
 10
5.67
 11
5.937
 20
-62.963
 21
-62.501
  0
LINE
  8
0
 10
5.937
 11
6.294
 20
-62.501
 21
-62.105
  0
LINE
  8
0
 10
6.294
 11
6.725
 20
-62.105
 21
-61.792
  0
LINE
  8
0
 10
6.725
 11
7.212
 20
-61.792
 21
-61.575
  0
LINE
  8
0
 10
7.212
 11
7.733
 20
-61.575
 21
-61.464
  0
LINE
  8
0
 10
7.733
 11
8.267
 20
-61.464
 21
-61.464
  0
LINE
  8
0
 10
8.267
 11
8.788
 20
-61.464
 21
-61.575
  0
LINE
  8
0
 10
8.788
 11
9.275
 20
-61.575
 21
-61.792
  0
LINE
  8
0
 10
9.275
 11
9.706
 20
-61.792
 21
-62.105
  0
LINE
  8
0
 10
9.706
 11
10.063
 20
-62.105
 21
-62.501
  0
LINE
  8
0
 10
10.063
 11
10.33
 20
-62.501
 21
-62.963
  0
LINE
  8
0
 10
10.33
 11
10.494
 20
-62.963
 21
-63.47
  0
LINE
  8
0
 10
10.494
 11
10.55
 20
-63.47
 21
-64
  0
LINE
  8
0
 10
10.55
 11
10.494
 20
-64
 21
-64.53
  0
LINE
  8
0
 10
10.494
 11
10.33
 20
-64.53
 21
-65.037
  0
LINE
  8
0
 10
10.33
 11
10.063
 20
-65.037
 21
-65.499
  0
LINE
  8
0
 10
10.063
 11
9.706
 20
-65.499
 21
-65.895
  0
LINE
  8
0
 10
9.706
 11
9.275
 20
-65.895
 21
-66.208
  0
LINE
  8
0
 10
9.275
 11
8.788
 20
-66.208
 21
-66.425
  0
LINE
  8
0
 10
8.788
 11
8.267
 20
-66.425
 21
-66.536
  0
LINE
  8
0
 10
8.267
 11
7.733
 20
-66.536
 21
-66.536
  0
LINE
  8
0
 10
7.733
 11
7.212
 20
-66.536
 21
-66.425
  0
LINE
  8
0
 10
7.212
 11
6.725
 20
-66.425
 21
-66.208
  0
LINE
  8
0
 10
6.725
 11
6.294
 20
-66.208
 21
-65.895
  0
LINE
  8
0
 10
6.294
 11
5.937
 20
-65.895
 21
-65.499
  0
LINE
  8
0
 10
5.937
 11
5.67
 20
-65.499
 21
-65.037
  0
LINE
  8
0
 10
5.67
 11
5.506
 20
-65.037
 21
-64.53
  0
LINE
  8
0
 10
5.506
 11
5.45
 20
-64.53
 21
-64
  0
LINE
  8
0
 10
5.45
 11
5.506
 20
80
 21
80.53
  0
LINE
  8
0
 10
5.506
 11
5.67
 20
80.53
 21
81.037
  0
LINE
  8
0
 10
5.67
 11
5.937
 20
81.037
 21
81.499
  0
LINE
  8
0
 10
5.937
 11
6.294
 20
81.499
 21
81.895
  0
LINE
  8
0
 10
6.294
 11
6.725
 20
81.895
 21
82.208
  0
LINE
  8
0
 10
6.725
 11
7.212
 20
82.208
 21
82.425
  0
LINE
  8
0
 10
7.212
 11
7.733
 20
82.425
 21
82.536
  0
LINE
  8
0
 10
7.733
 11
8.267
 20
82.536
 21
82.536
  0
LINE
  8
0
 10
8.267
 11
8.788
 20
82.536
 21
82.425
  0
LINE
  8
0
 10
8.788
 11
9.275
 20
82.425
 21
82.208
  0
LINE
  8
0
 10
9.275
 11
9.706
 20
82.208
 21
81.895
  0
LINE
  8
0
 10
9.706
 11
10.063
 20
81.895
 21
81.499
  0
LINE
  8
0
 10
10.063
 11
10.33
 20
81.499
 21
81.037
  0
LINE
  8
0
 10
10.33
 11
10.494
 20
81.037
 21
80.53
  0
LINE
  8
0
 10
10.494
 11
10.55
 20
80.53
 21
80
  0
LINE
  8
0
 10
10.55
 11
10.494
 20
80
 21
79.47
  0
LINE
  8
0
 10
10.494
 11
10.33
 20
79.47
 21
78.963
  0
LINE
  8
0
 10
10.33
 11
10.063
 20
78.963
 21
78.501
  0
LINE
  8
0
 10
10.063
 11
9.706
 20
78.501
 21
78.105
  0
LINE
  8
0
 10
9.706
 11
9.275
 20
78.105
 21
77.792
  0
LINE
  8
0
 10
9.275
 11
8.788
 20
77.792
 21
77.575
  0
LINE
  8
0
 10
8.788
 11
8.267
 20
77.575
 21
77.464
  0
LINE
  8
0
 10
8.267
 11
7.733
 20
77.464
 21
77.464
  0
LINE
  8
0
 10
7.733
 11
7.212
 20
77.464
 21
77.575
  0
LINE
  8
0
 10
7.212
 11
6.725
 20
77.575
 21
77.792
  0
LINE
  8
0
 10
6.725
 11
6.294
 20
77.792
 21
78.105
  0
LINE
  8
0
 10
6.294
 11
5.937
 20
78.105
 21
78.501
  0
LINE
  8
0
 10
5.937
 11
5.67
 20
78.501
 21
78.963
  0
LINE
  8
0
 10
5.67
 11
5.506
 20
78.963
 21
79.47
  0
LINE
  8
0
 10
5.506
 11
5.45
 20
79.47
 21
80
  0
LINE
  8
0
 10
13.45
 11
13.506
 20
-80
 21
-79.47
  0
LINE
  8
0
 10
13.506
 11
13.67
 20
-79.47
 21
-78.963
  0
LINE
  8
0
 10
13.67
 11
13.937
 20
-78.963
 21
-78.501
  0
LINE
  8
0
 10
13.937
 11
14.294
 20
-78.501
 21
-78.105
  0
LINE
  8
0
 10
14.294
 11
14.725
 20
-78.105
 21
-77.792
  0
LINE
  8
0
 10
14.725
 11
15.212
 20
-77.792
 21
-77.575
  0
LINE
  8
0
 10
15.212
 11
15.733
 20
-77.575
 21
-77.464
  0
LINE
  8
0
 10
15.733
 11
16.267
 20
-77.464
 21
-77.464
  0
LINE
  8
0
 10
16.267
 11
16.788
 20
-77.464
 21
-77.575
  0
LINE
  8
0
 10
16.788
 11
17.275
 20
-77.575
 21
-77.792
  0
LINE
  8
0
 10
17.275
 11
17.706
 20
-77.792
 21
-78.105
  0
LINE
  8
0
 10
17.706
 11
18.063
 20
-78.105
 21
-78.501
  0
LINE
  8
0
 10
18.063
 11
18.33
 20
-78.501
 21
-78.963
  0
LINE
  8
0
 10
18.33
 11
18.494
 20
-78.963
 21
-79.47
  0
LINE
  8
0
 10
18.494
 11
18.55
 20
-79.47
 21
-80
  0
LINE
  8
0
 10
18.55
 11
18.494
 20
-80
 21
-80.53
  0
LINE
  8
0
 10
18.494
 11
18.33
 20
-80.53
 21
-81.037
  0
LINE
  8
0
 10
18.33
 11
18.063
 20
-81.037
 21
-81.499
  0
LINE
  8
0
 10
18.063
 11
17.706
 20
-81.499
 21
-81.895
  0
LINE
  8
0
 10
17.706
 11
17.275
 20
-81.895
 21
-82.208
  0
LINE
  8
0
 10
17.275
 11
16.788
 20
-82.208
 21
-82.425
  0
LINE
  8
0
 10
16.788
 11
16.267
 20
-82.425
 21
-82.536
  0
LINE
  8
0
 10
16.267
 11
15.733
 20
-82.536
 21
-82.536
  0
LINE
  8
0
 10
15.733
 11
15.212
 20
-82.536
 21
-82.425
  0
LINE
  8
0
 10
15.212
 11
14.725
 20
-82.425
 21
-82.208
  0
LINE
  8
0
 10
14.725
 11
14.294
 20
-82.208
 21
-81.895
  0
LINE
  8
0
 10
14.294
 11
13.937
 20
-81.895
 21
-81.499
  0
LINE
  8
0
 10
13.937
 11
13.67
 20
-81.499
 21
-81.037
  0
LINE
  8
0
 10
13.67
 11
13.506
 20
-81.037
 21
-80.53
  0
LINE
  8
0
 10
13.506
 11
13.45
 20
-80.53
 21
-80
  0
LINE
  8
0
 10
13.45
 11
13.506
 20
-64
 21
-63.47
  0
LINE
  8
0
 10
13.506
 11
13.67
 20
-63.47
 21
-62.963
  0
LINE
  8
0
 10
13.67
 11
13.937
 20
-62.963
 21
-62.501
  0
LINE
  8
0
 10
13.937
 11
14.294
 20
-62.501
 21
-62.105
  0
LINE
  8
0
 10
14.294
 11
14.725
 20
-62.105
 21
-61.792
  0
LINE
  8
0
 10
14.725
 11
15.212
 20
-61.792
 21
-61.575
  0
LINE
  8
0
 10
15.212
 11
15.733
 20
-61.575
 21
-61.464
  0
LINE
  8
0
 10
15.733
 11
16.267
 20
-61.464
 21
-61.464
  0
LINE
  8
0
 10
16.267
 11
16.788
 20
-61.464
 21
-61.575
  0
LINE
  8
0
 10
16.788
 11
17.275
 20
-61.575
 21
-61.792
  0
LINE
  8
0
 10
17.275
 11
17.706
 20
-61.792
 21
-62.105
  0
LINE
  8
0
 10
17.706
 11
18.063
 20
-62.105
 21
-62.501
  0
LINE
  8
0
 10
18.063
 11
18.33
 20
-62.501
 21
-62.963
  0
LINE
  8
0
 10
18.33
 11
18.494
 20
-62.963
 21
-63.47
  0
LINE
  8
0
 10
18.494
 11
18.55
 20
-63.47
 21
-64
  0
LINE
  8
0
 10
18.55
 11
18.494
 20
-64
 21
-64.53
  0
LINE
  8
0
 10
18.494
 11
18.33
 20
-64.53
 21
-65.037
  0
LINE
  8
0
 10
18.33
 11
18.063
 20
-65.037
 21
-65.499
  0
LINE
  8
0
 10
18.063
 11
17.706
 20
-65.499
 21
-65.895
  0
LINE
  8
0
 10
17.706
 11
17.275
 20
-65.895
 21
-66.208
  0
LINE
  8
0
 10
17.275
 11
16.788
 20
-66.208
 21
-66.425
  0
LINE
  8
0
 10
16.788
 11
16.267
 20
-66.425
 21
-66.536
  0
LINE
  8
0
 10
16.267
 11
15.733
 20
-66.536
 21
-66.536
  0
LINE
  8
0
 10
15.733
 11
15.212
 20
-66.536
 21
-66.425
  0
LINE
  8
0
 10
15.212
 11
14.725
 20
-66.425
 21
-66.208
  0
LINE
  8
0
 10
14.725
 11
14.294
 20
-66.208
 21
-65.895
  0
LINE
  8
0
 10
14.294
 11
13.937
 20
-65.895
 21
-65.499
  0
LINE
  8
0
 10
13.937
 11
13.67
 20
-65.499
 21
-65.037
  0
LINE
  8
0
 10
13.67
 11
13.506
 20
-65.037
 21
-64.53
  0
LINE
  8
0
 10
13.506
 11
13.45
 20
-64.53
 21
-64
  0
LINE
  8
0
 10
13.45
 11
13.506
 20
80
 21
80.53
  0
LINE
  8
0
 10
13.506
 11
13.67
 20
80.53
 21
81.037
  0
LINE
  8
0
 10
13.67
 11
13.937
 20
81.037
 21
81.499
  0
LINE
  8
0
 10
13.937
 11
14.294
 20
81.499
 21
81.895
  0
LINE
  8
0
 10
14.294
 11
14.725
 20
81.895
 21
82.208
  0
LINE
  8
0
 10
14.725
 11
15.212
 20
82.208
 21
82.425
  0
LINE
  8
0
 10
15.212
 11
15.733
 20
82.425
 21
82.536
  0
LINE
  8
0
 10
15.733
 11
16.267
 20
82.536
 21
82.536
  0
LINE
  8
0
 10
16.267
 11
16.788
 20
82.536
 21
82.425
  0
LINE
  8
0
 10
16.788
 11
17.275
 20
82.425
 21
82.208
  0
LINE
  8
0
 10
17.275
 11
17.706
 20
82.208
 21
81.895
  0
LINE
  8
0
 10
17.706
 11
18.063
 20
81.895
 21
81.499
  0
LINE
  8
0
 10
18.063
 11
18.33
 20
81.499
 21
81.037
  0
LINE
  8
0
 10
18.33
 11
18.494
 20
81.037
 21
80.53
  0
LINE
  8
0
 10
18.494
 11
18.55
 20
80.53
 21
80
  0
LINE
  8
0
 10
18.55
 11
18.494
 20
80
 21
79.47
  0
LINE
  8
0
 10
18.494
 11
18.33
 20
79.47
 21
78.963
  0
LINE
  8
0
 10
18.33
 11
18.063
 20
78.963
 21
78.501
  0
LINE
  8
0
 10
18.063
 11
17.706
 20
78.501
 21
78.105
  0
LINE
  8
0
 10
17.706
 11
17.275
 20
78.105
 21
77.792
  0
LINE
  8
0
 10
17.275
 11
16.788
 20
77.792
 21
77.575
  0
LINE
  8
0
 10
16.788
 11
16.267
 20
77.575
 21
77.464
  0
LINE
  8
0
 10
16.267
 11
15.733
 20
77.464
 21
77.464
  0
LINE
  8
0
 10
15.733
 11
15.212
 20
77.464
 21
77.575
  0
LINE
  8
0
 10
15.212
 11
14.725
 20
77.575
 21
77.792
  0
LINE
  8
0
 10
14.725
 11
14.294
 20
77.792
 21
78.105
  0
LINE
  8
0
 10
14.294
 11
13.937
 20
78.105
 21
78.501
  0
LINE
  8
0
 10
13.937
 11
13.67
 20
78.501
 21
78.963
  0
LINE
  8
0
 10
13.67
 11
13.506
 20
78.963
 21
79.47
  0
LINE
  8
0
 10
13.506
 11
13.45
 20
79.47
 21
80
  0
LINE
  8
0
 10
21.45
 11
21.506
 20
-64
 21
-63.47
  0
LINE
  8
0
 10
21.506
 11
21.67
 20
-63.47
 21
-62.963
  0
LINE
  8
0
 10
21.67
 11
21.937
 20
-62.963
 21
-62.501
  0
LINE
  8
0
 10
21.937
 11
22.294
 20
-62.501
 21
-62.105
  0
LINE
  8
0
 10
22.294
 11
22.725
 20
-62.105
 21
-61.792
  0
LINE
  8
0
 10
22.725
 11
23.212
 20
-61.792
 21
-61.575
  0
LINE
  8
0
 10
23.212
 11
23.733
 20
-61.575
 21
-61.464
  0
LINE
  8
0
 10
23.733
 11
24.267
 20
-61.464
 21
-61.464
  0
LINE
  8
0
 10
24.267
 11
24.788
 20
-61.464
 21
-61.575
  0
LINE
  8
0
 10
24.788
 11
25.275
 20
-61.575
 21
-61.792
  0
LINE
  8
0
 10
25.275
 11
25.706
 20
-61.792
 21
-62.105
  0
LINE
  8
0
 10
25.706
 11
26.063
 20
-62.105
 21
-62.501
  0
LINE
  8
0
 10
26.063
 11
26.33
 20
-62.501
 21
-62.963
  0
LINE
  8
0
 10
26.33
 11
26.494
 20
-62.963
 21
-63.47
  0
LINE
  8
0
 10
26.494
 11
26.55
 20
-63.47
 21
-64
  0
LINE
  8
0
 10
26.55
 11
26.494
 20
-64
 21
-64.53
  0
LINE
  8
0
 10
26.494
 11
26.33
 20
-64.53
 21
-65.037
  0
LINE
  8
0
 10
26.33
 11
26.063
 20
-65.037
 21
-65.499
  0
LINE
  8
0
 10
26.063
 11
25.706
 20
-65.499
 21
-65.895
  0
LINE
  8
0
 10
25.706
 11
25.275
 20
-65.895
 21
-66.208
  0
LINE
  8
0
 10
25.275
 11
24.788
 20
-66.208
 21
-66.425
  0
LINE
  8
0
 10
24.788
 11
24.267
 20
-66.425
 21
-66.536
  0
LINE
  8
0
 10
24.267
 11
23.733
 20
-66.536
 21
-66.536
  0
LINE
  8
0
 10
23.733
 11
23.212
 20
-66.536
 21
-66.425
  0
LINE
  8
0
 10
23.212
 11
22.725
 20
-66.425
 21
-66.208
  0
LINE
  8
0
 10
22.725
 11
22.294
 20
-66.208
 21
-65.895
  0
LINE
  8
0
 10
22.294
 11
21.937
 20
-65.895
 21
-65.499
  0
LINE
  8
0
 10
21.937
 11
21.67
 20
-65.499
 21
-65.037
  0
LINE
  8
0
 10
21.67
 11
21.506
 20
-65.037
 21
-64.53
  0
LINE
  8
0
 10
21.506
 11
21.45
 20
-64.53
 21
-64
  0
LINE
  8
0
 10
21.45
 11
21.506
 20
80
 21
80.53
  0
LINE
  8
0
 10
21.506
 11
21.67
 20
80.53
 21
81.037
  0
LINE
  8
0
 10
21.67
 11
21.937
 20
81.037
 21
81.499
  0
LINE
  8
0
 10
21.937
 11
22.294
 20
81.499
 21
81.895
  0
LINE
  8
0
 10
22.294
 11
22.725
 20
81.895
 21
82.208
  0
LINE
  8
0
 10
22.725
 11
23.212
 20
82.208
 21
82.425
  0
LINE
  8
0
 10
23.212
 11
23.733
 20
82.425
 21
82.536
  0
LINE
  8
0
 10
23.733
 11
24.267
 20
82.536
 21
82.536
  0
LINE
  8
0
 10
24.267
 11
24.788
 20
82.536
 21
82.425
  0
LINE
  8
0
 10
24.788
 11
25.275
 20
82.425
 21
82.208
  0
LINE
  8
0
 10
25.275
 11
25.706
 20
82.208
 21
81.895
  0
LINE
  8
0
 10
25.706
 11
26.063
 20
81.895
 21
81.499
  0
LINE
  8
0
 10
26.063
 11
26.33
 20
81.499
 21
81.037
  0
LINE
  8
0
 10
26.33
 11
26.494
 20
81.037
 21
80.53
  0
LINE
  8
0
 10
26.494
 11
26.55
 20
80.53
 21
80
  0
LINE
  8
0
 10
26.55
 11
26.494
 20
80
 21
79.47
  0
LINE
  8
0
 10
26.494
 11
26.33
 20
79.47
 21
78.963
  0
LINE
  8
0
 10
26.33
 11
26.063
 20
78.963
 21
78.501
  0
LINE
  8
0
 10
26.063
 11
25.706
 20
78.501
 21
78.105
  0
LINE
  8
0
 10
25.706
 11
25.275
 20
78.105
 21
77.792
  0
LINE
  8
0
 10
25.275
 11
24.788
 20
77.792
 21
77.575
  0
LINE
  8
0
 10
24.788
 11
24.267
 20
77.575
 21
77.464
  0
LINE
  8
0
 10
24.267
 11
23.733
 20
77.464
 21
77.464
  0
LINE
  8
0
 10
23.733
 11
23.212
 20
77.464
 21
77.575
  0
LINE
  8
0
 10
23.212
 11
22.725
 20
77.575
 21
77.792
  0
LINE
  8
0
 10
22.725
 11
22.294
 20
77.792
 21
78.105
  0
LINE
  8
0
 10
22.294
 11
21.937
 20
78.105
 21
78.501
  0
LINE
  8
0
 10
21.937
 11
21.67
 20
78.501
 21
78.963
  0
LINE
  8
0
 10
21.67
 11
21.506
 20
78.963
 21
79.47
  0
LINE
  8
0
 10
21.506
 11
21.45
 20
79.47
 21
80
  0
LINE
  8
0
 10
29.45
 11
29.506
 20
-64
 21
-63.47
  0
LINE
  8
0
 10
29.506
 11
29.67
 20
-63.47
 21
-62.963
  0
LINE
  8
0
 10
29.67
 11
29.937
 20
-62.963
 21
-62.501
  0
LINE
  8
0
 10
29.937
 11
30.294
 20
-62.501
 21
-62.105
  0
LINE
  8
0
 10
30.294
 11
30.725
 20
-62.105
 21
-61.792
  0
LINE
  8
0
 10
30.725
 11
31.212
 20
-61.792
 21
-61.575
  0
LINE
  8
0
 10
31.212
 11
31.733
 20
-61.575
 21
-61.464
  0
LINE
  8
0
 10
31.733
 11
32.267
 20
-61.464
 21
-61.464
  0
LINE
  8
0
 10
32.267
 11
32.788
 20
-61.464
 21
-61.575
  0
LINE
  8
0
 10
32.788
 11
33.275
 20
-61.575
 21
-61.792
  0
LINE
  8
0
 10
33.275
 11
33.706
 20
-61.792
 21
-62.105
  0
LINE
  8
0
 10
33.706
 11
34.063
 20
-62.105
 21
-62.501
  0
LINE
  8
0
 10
34.063
 11
34.33
 20
-62.501
 21
-62.963
  0
LINE
  8
0
 10
34.33
 11
34.494
 20
-62.963
 21
-63.47
  0
LINE
  8
0
 10
34.494
 11
34.55
 20
-63.47
 21
-64
  0
LINE
  8
0
 10
34.55
 11
34.494
 20
-64
 21
-64.53
  0
LINE
  8
0
 10
34.494
 11
34.33
 20
-64.53
 21
-65.037
  0
LINE
  8
0
 10
34.33
 11
34.063
 20
-65.037
 21
-65.499
  0
LINE
  8
0
 10
34.063
 11
33.706
 20
-65.499
 21
-65.895
  0
LINE
  8
0
 10
33.706
 11
33.275
 20
-65.895
 21
-66.208
  0
LINE
  8
0
 10
33.275
 11
32.788
 20
-66.208
 21
-66.425
  0
LINE
  8
0
 10
32.788
 11
32.267
 20
-66.425
 21
-66.536
  0
LINE
  8
0
 10
32.267
 11
31.733
 20
-66.536
 21
-66.536
  0
LINE
  8
0
 10
31.733
 11
31.212
 20
-66.536
 21
-66.425
  0
LINE
  8
0
 10
31.212
 11
30.725
 20
-66.425
 21
-66.208
  0
LINE
  8
0
 10
30.725
 11
30.294
 20
-66.208
 21
-65.895
  0
LINE
  8
0
 10
30.294
 11
29.937
 20
-65.895
 21
-65.499
  0
LINE
  8
0
 10
29.937
 11
29.67
 20
-65.499
 21
-65.037
  0
LINE
  8
0
 10
29.67
 11
29.506
 20
-65.037
 21
-64.53
  0
LINE
  8
0
 10
29.506
 11
29.45
 20
-64.53
 21
-64
  0
LINE
  8
0
 10
29.45
 11
29.506
 20
80
 21
80.53
  0
LINE
  8
0
 10
29.506
 11
29.67
 20
80.53
 21
81.037
  0
LINE
  8
0
 10
29.67
 11
29.937
 20
81.037
 21
81.499
  0
LINE
  8
0
 10
29.937
 11
30.294
 20
81.499
 21
81.895
  0
LINE
  8
0
 10
30.294
 11
30.725
 20
81.895
 21
82.208
  0
LINE
  8
0
 10
30.725
 11
31.212
 20
82.208
 21
82.425
  0
LINE
  8
0
 10
31.212
 11
31.733
 20
82.425
 21
82.536
  0
LINE
  8
0
 10
31.733
 11
32.267
 20
82.536
 21
82.536
  0
LINE
  8
0
 10
32.267
 11
32.788
 20
82.536
 21
82.425
  0
LINE
  8
0
 10
32.788
 11
33.275
 20
82.425
 21
82.208
  0
LINE
  8
0
 10
33.275
 11
33.706
 20
82.208
 21
81.895
  0
LINE
  8
0
 10
33.706
 11
34.063
 20
81.895
 21
81.499
  0
LINE
  8
0
 10
34.063
 11
34.33
 20
81.499
 21
81.037
  0
LINE
  8
0
 10
34.33
 11
34.494
 20
81.037
 21
80.53
  0
LINE
  8
0
 10
34.494
 11
34.55
 20
80.53
 21
80
  0
LINE
  8
0
 10
34.55
 11
34.494
 20
80
 21
79.47
  0
LINE
  8
0
 10
34.494
 11
34.33
 20
79.47
 21
78.963
  0
LINE
  8
0
 10
34.33
 11
34.063
 20
78.963
 21
78.501
  0
LINE
  8
0
 10
34.063
 11
33.706
 20
78.501
 21
78.105
  0
LINE
  8
0
 10
33.706
 11
33.275
 20
78.105
 21
77.792
  0
LINE
  8
0
 10
33.275
 11
32.788
 20
77.792
 21
77.575
  0
LINE
  8
0
 10
32.788
 11
32.267
 20
77.575
 21
77.464
  0
LINE
  8
0
 10
32.267
 11
31.733
 20
77.464
 21
77.464
  0
LINE
  8
0
 10
31.733
 11
31.212
 20
77.464
 21
77.575
  0
LINE
  8
0
 10
31.212
 11
30.725
 20
77.575
 21
77.792
  0
LINE
  8
0
 10
30.725
 11
30.294
 20
77.792
 21
78.105
  0
LINE
  8
0
 10
30.294
 11
29.937
 20
78.105
 21
78.501
  0
LINE
  8
0
 10
29.937
 11
29.67
 20
78.501
 21
78.963
  0
LINE
  8
0
 10
29.67
 11
29.506
 20
78.963
 21
79.47
  0
LINE
  8
0
 10
29.506
 11
29.45
 20
79.47
 21
80
  0
LINE
  8
0
 10
37.464
 11
37.464
 20
-56.267
 21
-55.733
  0
LINE
  8
0
 10
37.464
 11
37.575
 20
-55.733
 21
-55.212
  0
LINE
  8
0
 10
37.575
 11
37.792
 20
-55.212
 21
-54.725
  0
LINE
  8
0
 10
37.792
 11
38.105
 20
-54.725
 21
-54.294
  0
LINE
  8
0
 10
38.105
 11
38.501
 20
-54.294
 21
-53.937
  0
LINE
  8
0
 10
38.501
 11
38.963
 20
-53.937
 21
-53.67
  0
LINE
  8
0
 10
38.963
 11
39.47
 20
-53.67
 21
-53.506
  0
LINE
  8
0
 10
39.47
 11
40
 20
-53.506
 21
-53.45
  0
LINE
  8
0
 10
40
 11
40.53
 20
-53.45
 21
-53.506
  0
LINE
  8
0
 10
40.53
 11
41.037
 20
-53.506
 21
-53.67
  0
LINE
  8
0
 10
41.037
 11
41.499
 20
-53.67
 21
-53.937
  0
LINE
  8
0
 10
41.499
 11
41.895
 20
-53.937
 21
-54.294
  0
LINE
  8
0
 10
41.895
 11
42.208
 20
-54.294
 21
-54.725
  0
LINE
  8
0
 10
42.208
 11
42.425
 20
-54.725
 21
-55.212
  0
LINE
  8
0
 10
42.425
 11
42.536
 20
-55.212
 21
-55.733
  0
LINE
  8
0
 10
42.536
 11
42.536
 20
-55.733
 21
-56.267
  0
LINE
  8
0
 10
42.536
 11
42.425
 20
-56.267
 21
-56.788
  0
LINE
  8
0
 10
42.425
 11
42.208
 20
-56.788
 21
-57.275
  0
LINE
  8
0
 10
42.208
 11
41.895
 20
-57.275
 21
-57.706
  0
LINE
  8
0
 10
41.895
 11
41.499
 20
-57.706
 21
-58.063
  0
LINE
  8
0
 10
41.499
 11
41.037
 20
-58.063
 21
-58.33
  0
LINE
  8
0
 10
41.037
 11
40.53
 20
-58.33
 21
-58.494
  0
LINE
  8
0
 10
40.53
 11
40
 20
-58.494
 21
-58.55
  0
LINE
  8
0
 10
40
 11
39.47
 20
-58.55
 21
-58.494
  0
LINE
  8
0
 10
39.47
 11
38.963
 20
-58.494
 21
-58.33
  0
LINE
  8
0
 10
38.963
 11
38.501
 20
-58.33
 21
-58.063
  0
LINE
  8
0
 10
38.501
 11
38.105
 20
-58.063
 21
-57.706
  0
LINE
  8
0
 10
38.105
 11
37.792
 20
-57.706
 21
-57.275
  0
LINE
  8
0
 10
37.792
 11
37.575
 20
-57.275
 21
-56.788
  0
LINE
  8
0
 10
37.575
 11
37.464
 20
-56.788
 21
-56.267
  0
LINE
  8
0
 10
37.464
 11
37.464
 20
-48.267
 21
-47.733
  0
LINE
  8
0
 10
37.464
 11
37.575
 20
-47.733
 21
-47.212
  0
LINE
  8
0
 10
37.575
 11
37.792
 20
-47.212
 21
-46.725
  0
LINE
  8
0
 10
37.792
 11
38.105
 20
-46.725
 21
-46.294
  0
LINE
  8
0
 10
38.105
 11
38.501
 20
-46.294
 21
-45.937
  0
LINE
  8
0
 10
38.501
 11
38.963
 20
-45.937
 21
-45.67
  0
LINE
  8
0
 10
38.963
 11
39.47
 20
-45.67
 21
-45.506
  0
LINE
  8
0
 10
39.47
 11
40
 20
-45.506
 21
-45.45
  0
LINE
  8
0
 10
40
 11
40.53
 20
-45.45
 21
-45.506
  0
LINE
  8
0
 10
40.53
 11
41.037
 20
-45.506
 21
-45.67
  0
LINE
  8
0
 10
41.037
 11
41.499
 20
-45.67
 21
-45.937
  0
LINE
  8
0
 10
41.499
 11
41.895
 20
-45.937
 21
-46.294
  0
LINE
  8
0
 10
41.895
 11
42.208
 20
-46.294
 21
-46.725
  0
LINE
  8
0
 10
42.208
 11
42.425
 20
-46.725
 21
-47.212
  0
LINE
  8
0
 10
42.425
 11
42.536
 20
-47.212
 21
-47.733
  0
LINE
  8
0
 10
42.536
 11
42.536
 20
-47.733
 21
-48.267
  0
LINE
  8
0
 10
42.536
 11
42.425
 20
-48.267
 21
-48.788
  0
LINE
  8
0
 10
42.425
 11
42.208
 20
-48.788
 21
-49.275
  0
LINE
  8
0
 10
42.208
 11
41.895
 20
-49.275
 21
-49.706
  0
LINE
  8
0
 10
41.895
 11
41.499
 20
-49.706
 21
-50.063
  0
LINE
  8
0
 10
41.499
 11
41.037
 20
-50.063
 21
-50.33
  0
LINE
  8
0
 10
41.037
 11
40.53
 20
-50.33
 21
-50.494
  0
LINE
  8
0
 10
40.53
 11
40
 20
-50.494
 21
-50.55
  0
LINE
  8
0
 10
40
 11
39.47
 20
-50.55
 21
-50.494
  0
LINE
  8
0
 10
39.47
 11
38.963
 20
-50.494
 21
-50.33
  0
LINE
  8
0
 10
38.963
 11
38.501
 20
-50.33
 21
-50.063
  0
LINE
  8
0
 10
38.501
 11
38.105
 20
-50.063
 21
-49.706
  0
LINE
  8
0
 10
38.105
 11
37.792
 20
-49.706
 21
-49.275
  0
LINE
  8
0
 10
37.792
 11
37.575
 20
-49.275
 21
-48.788
  0
LINE
  8
0
 10
37.575
 11
37.464
 20
-48.788
 21
-48.267
  0
LINE
  8
0
 10
37.464
 11
37.464
 20
-40.267
 21
-39.733
  0
LINE
  8
0
 10
37.464
 11
37.575
 20
-39.733
 21
-39.212
  0
LINE
  8
0
 10
37.575
 11
37.792
 20
-39.212
 21
-38.725
  0
LINE
  8
0
 10
37.792
 11
38.105
 20
-38.725
 21
-38.294
  0
LINE
  8
0
 10
38.105
 11
38.501
 20
-38.294
 21
-37.937
  0
LINE
  8
0
 10
38.501
 11
38.963
 20
-37.937
 21
-37.67
  0
LINE
  8
0
 10
38.963
 11
39.47
 20
-37.67
 21
-37.506
  0
LINE
  8
0
 10
39.47
 11
40
 20
-37.506
 21
-37.45
  0
LINE
  8
0
 10
40
 11
40.53
 20
-37.45
 21
-37.506
  0
LINE
  8
0
 10
40.53
 11
41.037
 20
-37.506
 21
-37.67
  0
LINE
  8
0
 10
41.037
 11
41.499
 20
-37.67
 21
-37.937
  0
LINE
  8
0
 10
41.499
 11
41.895
 20
-37.937
 21
-38.294
  0
LINE
  8
0
 10
41.895
 11
42.208
 20
-38.294
 21
-38.725
  0
LINE
  8
0
 10
42.208
 11
42.425
 20
-38.725
 21
-39.212
  0
LINE
  8
0
 10
42.425
 11
42.536
 20
-39.212
 21
-39.733
  0
LINE
  8
0
 10
42.536
 11
42.536
 20
-39.733
 21
-40.267
  0
LINE
  8
0
 10
42.536
 11
42.425
 20
-40.267
 21
-40.788
  0
LINE
  8
0
 10
42.425
 11
42.208
 20
-40.788
 21
-41.275
  0
LINE
  8
0
 10
42.208
 11
41.895
 20
-41.275
 21
-41.706
  0
LINE
  8
0
 10
41.895
 11
41.499
 20
-41.706
 21
-42.063
  0
LINE
  8
0
 10
41.499
 11
41.037
 20
-42.063
 21
-42.33
  0
LINE
  8
0
 10
41.037
 11
40.53
 20
-42.33
 21
-42.494
  0
LINE
  8
0
 10
40.53
 11
40
 20
-42.494
 21
-42.55
  0
LINE
  8
0
 10
40
 11
39.47
 20
-42.55
 21
-42.494
  0
LINE
  8
0
 10
39.47
 11
38.963
 20
-42.494
 21
-42.33
  0
LINE
  8
0
 10
38.963
 11
38.501
 20
-42.33
 21
-42.063
  0
LINE
  8
0
 10
38.501
 11
38.105
 20
-42.063
 21
-41.706
  0
LINE
  8
0
 10
38.105
 11
37.792
 20
-41.706
 21
-41.275
  0
LINE
  8
0
 10
37.792
 11
37.575
 20
-41.275
 21
-40.788
  0
LINE
  8
0
 10
37.575
 11
37.464
 20
-40.788
 21
-40.267
  0
LINE
  8
0
 10
37.464
 11
37.464
 20
-32.267
 21
-31.733
  0
LINE
  8
0
 10
37.464
 11
37.575
 20
-31.733
 21
-31.212
  0
LINE
  8
0
 10
37.575
 11
37.792
 20
-31.212
 21
-30.725
  0
LINE
  8
0
 10
37.792
 11
38.105
 20
-30.725
 21
-30.294
  0
LINE
  8
0
 10
38.105
 11
38.501
 20
-30.294
 21
-29.937
  0
LINE
  8
0
 10
38.501
 11
38.963
 20
-29.937
 21
-29.67
  0
LINE
  8
0
 10
38.963
 11
39.47
 20
-29.67
 21
-29.506
  0
LINE
  8
0
 10
39.47
 11
40
 20
-29.506
 21
-29.45
  0
LINE
  8
0
 10
40
 11
40.53
 20
-29.45
 21
-29.506
  0
LINE
  8
0
 10
40.53
 11
41.037
 20
-29.506
 21
-29.67
  0
LINE
  8
0
 10
41.037
 11
41.499
 20
-29.67
 21
-29.937
  0
LINE
  8
0
 10
41.499
 11
41.895
 20
-29.937
 21
-30.294
  0
LINE
  8
0
 10
41.895
 11
42.208
 20
-30.294
 21
-30.725
  0
LINE
  8
0
 10
42.208
 11
42.425
 20
-30.725
 21
-31.212
  0
LINE
  8
0
 10
42.425
 11
42.536
 20
-31.212
 21
-31.733
  0
LINE
  8
0
 10
42.536
 11
42.536
 20
-31.733
 21
-32.267
  0
LINE
  8
0
 10
42.536
 11
42.425
 20
-32.267
 21
-32.788
  0
LINE
  8
0
 10
42.425
 11
42.208
 20
-32.788
 21
-33.275
  0
LINE
  8
0
 10
42.208
 11
41.895
 20
-33.275
 21
-33.706
  0
LINE
  8
0
 10
41.895
 11
41.499
 20
-33.706
 21
-34.063
  0
LINE
  8
0
 10
41.499
 11
41.037
 20
-34.063
 21
-34.33
  0
LINE
  8
0
 10
41.037
 11
40.53
 20
-34.33
 21
-34.494
  0
LINE
  8
0
 10
40.53
 11
40
 20
-34.494
 21
-34.55
  0
LINE
  8
0
 10
40
 11
39.47
 20
-34.55
 21
-34.494
  0
LINE
  8
0
 10
39.47
 11
38.963
 20
-34.494
 21
-34.33
  0
LINE
  8
0
 10
38.963
 11
38.501
 20
-34.33
 21
-34.063
  0
LINE
  8
0
 10
38.501
 11
38.105
 20
-34.063
 21
-33.706
  0
LINE
  8
0
 10
38.105
 11
37.792
 20
-33.706
 21
-33.275
  0
LINE
  8
0
 10
37.792
 11
37.575
 20
-33.275
 21
-32.788
  0
LINE
  8
0
 10
37.575
 11
37.464
 20
-32.788
 21
-32.267
  0
LINE
  8
0
 10
37.464
 11
37.464
 20
-24.267
 21
-23.733
  0
LINE
  8
0
 10
37.464
 11
37.575
 20
-23.733
 21
-23.212
  0
LINE
  8
0
 10
37.575
 11
37.792
 20
-23.212
 21
-22.725
  0
LINE
  8
0
 10
37.792
 11
38.105
 20
-22.725
 21
-22.294
  0
LINE
  8
0
 10
38.105
 11
38.501
 20
-22.294
 21
-21.937
  0
LINE
  8
0
 10
38.501
 11
38.963
 20
-21.937
 21
-21.67
  0
LINE
  8
0
 10
38.963
 11
39.47
 20
-21.67
 21
-21.506
  0
LINE
  8
0
 10
39.47
 11
40
 20
-21.506
 21
-21.45
  0
LINE
  8
0
 10
40
 11
40.53
 20
-21.45
 21
-21.506
  0
LINE
  8
0
 10
40.53
 11
41.037
 20
-21.506
 21
-21.67
  0
LINE
  8
0
 10
41.037
 11
41.499
 20
-21.67
 21
-21.937
  0
LINE
  8
0
 10
41.499
 11
41.895
 20
-21.937
 21
-22.294
  0
LINE
  8
0
 10
41.895
 11
42.208
 20
-22.294
 21
-22.725
  0
LINE
  8
0
 10
42.208
 11
42.425
 20
-22.725
 21
-23.212
  0
LINE
  8
0
 10
42.425
 11
42.536
 20
-23.212
 21
-23.733
  0
LINE
  8
0
 10
42.536
 11
42.536
 20
-23.733
 21
-24.267
  0
LINE
  8
0
 10
42.536
 11
42.425
 20
-24.267
 21
-24.788
  0
LINE
  8
0
 10
42.425
 11
42.208
 20
-24.788
 21
-25.275
  0
LINE
  8
0
 10
42.208
 11
41.895
 20
-25.275
 21
-25.706
  0
LINE
  8
0
 10
41.895
 11
41.499
 20
-25.706
 21
-26.063
  0
LINE
  8
0
 10
41.499
 11
41.037
 20
-26.063
 21
-26.33
  0
LINE
  8
0
 10
41.037
 11
40.53
 20
-26.33
 21
-26.494
  0
LINE
  8
0
 10
40.53
 11
40
 20
-26.494
 21
-26.55
  0
LINE
  8
0
 10
40
 11
39.47
 20
-26.55
 21
-26.494
  0
LINE
  8
0
 10
39.47
 11
38.963
 20
-26.494
 21
-26.33
  0
LINE
  8
0
 10
38.963
 11
38.501
 20
-26.33
 21
-26.063
  0
LINE
  8
0
 10
38.501
 11
38.105
 20
-26.063
 21
-25.706
  0
LINE
  8
0
 10
38.105
 11
37.792
 20
-25.706
 21
-25.275
  0
LINE
  8
0
 10
37.792
 11
37.575
 20
-25.275
 21
-24.788
  0
LINE
  8
0
 10
37.575
 11
37.464
 20
-24.788
 21
-24.267
  0
LINE
  8
0
 10
37.464
 11
37.464
 20
-16.267
 21
-15.733
  0
LINE
  8
0
 10
37.464
 11
37.575
 20
-15.733
 21
-15.212
  0
LINE
  8
0
 10
37.575
 11
37.792
 20
-15.212
 21
-14.725
  0
LINE
  8
0
 10
37.792
 11
38.105
 20
-14.725
 21
-14.294
  0
LINE
  8
0
 10
38.105
 11
38.501
 20
-14.294
 21
-13.937
  0
LINE
  8
0
 10
38.501
 11
38.963
 20
-13.937
 21
-13.67
  0
LINE
  8
0
 10
38.963
 11
39.47
 20
-13.67
 21
-13.506
  0
LINE
  8
0
 10
39.47
 11
40
 20
-13.506
 21
-13.45
  0
LINE
  8
0
 10
40
 11
40.53
 20
-13.45
 21
-13.506
  0
LINE
  8
0
 10
40.53
 11
41.037
 20
-13.506
 21
-13.67
  0
LINE
  8
0
 10
41.037
 11
41.499
 20
-13.67
 21
-13.937
  0
LINE
  8
0
 10
41.499
 11
41.895
 20
-13.937
 21
-14.294
  0
LINE
  8
0
 10
41.895
 11
42.208
 20
-14.294
 21
-14.725
  0
LINE
  8
0
 10
42.208
 11
42.425
 20
-14.725
 21
-15.212
  0
LINE
  8
0
 10
42.425
 11
42.536
 20
-15.212
 21
-15.733
  0
LINE
  8
0
 10
42.536
 11
42.536
 20
-15.733
 21
-16.267
  0
LINE
  8
0
 10
42.536
 11
42.425
 20
-16.267
 21
-16.788
  0
LINE
  8
0
 10
42.425
 11
42.208
 20
-16.788
 21
-17.275
  0
LINE
  8
0
 10
42.208
 11
41.895
 20
-17.275
 21
-17.706
  0
LINE
  8
0
 10
41.895
 11
41.499
 20
-17.706
 21
-18.063
  0
LINE
  8
0
 10
41.499
 11
41.037
 20
-18.063
 21
-18.33
  0
LINE
  8
0
 10
41.037
 11
40.53
 20
-18.33
 21
-18.494
  0
LINE
  8
0
 10
40.53
 11
40
 20
-18.494
 21
-18.55
  0
LINE
  8
0
 10
40
 11
39.47
 20
-18.55
 21
-18.494
  0
LINE
  8
0
 10
39.47
 11
38.963
 20
-18.494
 21
-18.33
  0
LINE
  8
0
 10
38.963
 11
38.501
 20
-18.33
 21
-18.063
  0
LINE
  8
0
 10
38.501
 11
38.105
 20
-18.063
 21
-17.706
  0
LINE
  8
0
 10
38.105
 11
37.792
 20
-17.706
 21
-17.275
  0
LINE
  8
0
 10
37.792
 11
37.575
 20
-17.275
 21
-16.788
  0
LINE
  8
0
 10
37.575
 11
37.464
 20
-16.788
 21
-16.267
  0
LINE
  8
0
 10
37.464
 11
37.464
 20
-8.267
 21
-7.733
  0
LINE
  8
0
 10
37.464
 11
37.575
 20
-7.733
 21
-7.212
  0
LINE
  8
0
 10
37.575
 11
37.792
 20
-7.212
 21
-6.725
  0
LINE
  8
0
 10
37.792
 11
38.105
 20
-6.725
 21
-6.294
  0
LINE
  8
0
 10
38.105
 11
38.501
 20
-6.294
 21
-5.937
  0
LINE
  8
0
 10
38.501
 11
38.963
 20
-5.937
 21
-5.67
  0
LINE
  8
0
 10
38.963
 11
39.47
 20
-5.67
 21
-5.506
  0
LINE
  8
0
 10
39.47
 11
40
 20
-5.506
 21
-5.45
  0
LINE
  8
0
 10
40
 11
40.53
 20
-5.45
 21
-5.506
  0
LINE
  8
0
 10
40.53
 11
41.037
 20
-5.506
 21
-5.67
  0
LINE
  8
0
 10
41.037
 11
41.499
 20
-5.67
 21
-5.937
  0
LINE
  8
0
 10
41.499
 11
41.895
 20
-5.937
 21
-6.294
  0
LINE
  8
0
 10
41.895
 11
42.208
 20
-6.294
 21
-6.725
  0
LINE
  8
0
 10
42.208
 11
42.425
 20
-6.725
 21
-7.212
  0
LINE
  8
0
 10
42.425
 11
42.536
 20
-7.212
 21
-7.733
  0
LINE
  8
0
 10
42.536
 11
42.536
 20
-7.733
 21
-8.267
  0
LINE
  8
0
 10
42.536
 11
42.425
 20
-8.267
 21
-8.788
  0
LINE
  8
0
 10
42.425
 11
42.208
 20
-8.788
 21
-9.275
  0
LINE
  8
0
 10
42.208
 11
41.895
 20
-9.275
 21
-9.706
  0
LINE
  8
0
 10
41.895
 11
41.499
 20
-9.706
 21
-10.063
  0
LINE
  8
0
 10
41.499
 11
41.037
 20
-10.063
 21
-10.33
  0
LINE
  8
0
 10
41.037
 11
40.53
 20
-10.33
 21
-10.494
  0
LINE
  8
0
 10
40.53
 11
40
 20
-10.494
 21
-10.55
  0
LINE
  8
0
 10
40
 11
39.47
 20
-10.55
 21
-10.494
  0
LINE
  8
0
 10
39.47
 11
38.963
 20
-10.494
 21
-10.33
  0
LINE
  8
0
 10
38.963
 11
38.501
 20
-10.33
 21
-10.063
  0
LINE
  8
0
 10
38.501
 11
38.105
 20
-10.063
 21
-9.706
  0
LINE
  8
0
 10
38.105
 11
37.792
 20
-9.706
 21
-9.275
  0
LINE
  8
0
 10
37.792
 11
37.575
 20
-9.275
 21
-8.788
  0
LINE
  8
0
 10
37.575
 11
37.464
 20
-8.788
 21
-8.267
  0
LINE
  8
0
 10
37.464
 11
37.464
 20
-0.267
 21
0.267
  0
LINE
  8
0
 10
37.464
 11
37.575
 20
0.267
 21
0.788
  0
LINE
  8
0
 10
37.575
 11
37.792
 20
0.788
 21
1.275
  0
LINE
  8
0
 10
37.792
 11
38.105
 20
1.275
 21
1.706
  0
LINE
  8
0
 10
38.105
 11
38.501
 20
1.706
 21
2.063
  0
LINE
  8
0
 10
38.501
 11
38.963
 20
2.063
 21
2.33
  0
LINE
  8
0
 10
38.963
 11
39.47
 20
2.33
 21
2.494
  0
LINE
  8
0
 10
39.47
 11
40
 20
2.494
 21
2.55
  0
LINE
  8
0
 10
40
 11
40.53
 20
2.55
 21
2.494
  0
LINE
  8
0
 10
40.53
 11
41.037
 20
2.494
 21
2.33
  0
LINE
  8
0
 10
41.037
 11
41.499
 20
2.33
 21
2.063
  0
LINE
  8
0
 10
41.499
 11
41.895
 20
2.063
 21
1.706
  0
LINE
  8
0
 10
41.895
 11
42.208
 20
1.706
 21
1.275
  0
LINE
  8
0
 10
42.208
 11
42.425
 20
1.275
 21
0.788
  0
LINE
  8
0
 10
42.425
 11
42.536
 20
0.788
 21
0.267
  0
LINE
  8
0
 10
42.536
 11
42.536
 20
0.267
 21
-0.267
  0
LINE
  8
0
 10
42.536
 11
42.425
 20
-0.267
 21
-0.788
  0
LINE
  8
0
 10
42.425
 11
42.208
 20
-0.788
 21
-1.275
  0
LINE
  8
0
 10
42.208
 11
41.895
 20
-1.275
 21
-1.706
  0
LINE
  8
0
 10
41.895
 11
41.499
 20
-1.706
 21
-2.063
  0
LINE
  8
0
 10
41.499
 11
41.037
 20
-2.063
 21
-2.33
  0
LINE
  8
0
 10
41.037
 11
40.53
 20
-2.33
 21
-2.494
  0
LINE
  8
0
 10
40.53
 11
40
 20
-2.494
 21
-2.55
  0
LINE
  8
0
 10
40
 11
39.47
 20
-2.55
 21
-2.494
  0
LINE
  8
0
 10
39.47
 11
38.963
 20
-2.494
 21
-2.33
  0
LINE
  8
0
 10
38.963
 11
38.501
 20
-2.33
 21
-2.063
  0
LINE
  8
0
 10
38.501
 11
38.105
 20
-2.063
 21
-1.706
  0
LINE
  8
0
 10
38.105
 11
37.792
 20
-1.706
 21
-1.275
  0
LINE
  8
0
 10
37.792
 11
37.575
 20
-1.275
 21
-0.788
  0
LINE
  8
0
 10
37.575
 11
37.464
 20
-0.788
 21
-0.267
  0
LINE
  8
0
 10
37.464
 11
37.464
 20
7.733
 21
8.267
  0
LINE
  8
0
 10
37.464
 11
37.575
 20
8.267
 21
8.788
  0
LINE
  8
0
 10
37.575
 11
37.792
 20
8.788
 21
9.275
  0
LINE
  8
0
 10
37.792
 11
38.105
 20
9.275
 21
9.706
  0
LINE
  8
0
 10
38.105
 11
38.501
 20
9.706
 21
10.063
  0
LINE
  8
0
 10
38.501
 11
38.963
 20
10.063
 21
10.33
  0
LINE
  8
0
 10
38.963
 11
39.47
 20
10.33
 21
10.494
  0
LINE
  8
0
 10
39.47
 11
40
 20
10.494
 21
10.55
  0
LINE
  8
0
 10
40
 11
40.53
 20
10.55
 21
10.494
  0
LINE
  8
0
 10
40.53
 11
41.037
 20
10.494
 21
10.33
  0
LINE
  8
0
 10
41.037
 11
41.499
 20
10.33
 21
10.063
  0
LINE
  8
0
 10
41.499
 11
41.895
 20
10.063
 21
9.706
  0
LINE
  8
0
 10
41.895
 11
42.208
 20
9.706
 21
9.275
  0
LINE
  8
0
 10
42.208
 11
42.425
 20
9.275
 21
8.788
  0
LINE
  8
0
 10
42.425
 11
42.536
 20
8.788
 21
8.267
  0
LINE
  8
0
 10
42.536
 11
42.536
 20
8.267
 21
7.733
  0
LINE
  8
0
 10
42.536
 11
42.425
 20
7.733
 21
7.212
  0
LINE
  8
0
 10
42.425
 11
42.208
 20
7.212
 21
6.725
  0
LINE
  8
0
 10
42.208
 11
41.895
 20
6.725
 21
6.294
  0
LINE
  8
0
 10
41.895
 11
41.499
 20
6.294
 21
5.937
  0
LINE
  8
0
 10
41.499
 11
41.037
 20
5.937
 21
5.67
  0
LINE
  8
0
 10
41.037
 11
40.53
 20
5.67
 21
5.506
  0
LINE
  8
0
 10
40.53
 11
40
 20
5.506
 21
5.45
  0
LINE
  8
0
 10
40
 11
39.47
 20
5.45
 21
5.506
  0
LINE
  8
0
 10
39.47
 11
38.963
 20
5.506
 21
5.67
  0
LINE
  8
0
 10
38.963
 11
38.501
 20
5.67
 21
5.937
  0
LINE
  8
0
 10
38.501
 11
38.105
 20
5.937
 21
6.294
  0
LINE
  8
0
 10
38.105
 11
37.792
 20
6.294
 21
6.725
  0
LINE
  8
0
 10
37.792
 11
37.575
 20
6.725
 21
7.212
  0
LINE
  8
0
 10
37.575
 11
37.464
 20
7.212
 21
7.733
  0
LINE
  8
0
 10
37.464
 11
37.464
 20
15.733
 21
16.267
  0
LINE
  8
0
 10
37.464
 11
37.575
 20
16.267
 21
16.788
  0
LINE
  8
0
 10
37.575
 11
37.792
 20
16.788
 21
17.275
  0
LINE
  8
0
 10
37.792
 11
38.105
 20
17.275
 21
17.706
  0
LINE
  8
0
 10
38.105
 11
38.501
 20
17.706
 21
18.063
  0
LINE
  8
0
 10
38.501
 11
38.963
 20
18.063
 21
18.33
  0
LINE
  8
0
 10
38.963
 11
39.47
 20
18.33
 21
18.494
  0
LINE
  8
0
 10
39.47
 11
40
 20
18.494
 21
18.55
  0
LINE
  8
0
 10
40
 11
40.53
 20
18.55
 21
18.494
  0
LINE
  8
0
 10
40.53
 11
41.037
 20
18.494
 21
18.33
  0
LINE
  8
0
 10
41.037
 11
41.499
 20
18.33
 21
18.063
  0
LINE
  8
0
 10
41.499
 11
41.895
 20
18.063
 21
17.706
  0
LINE
  8
0
 10
41.895
 11
42.208
 20
17.706
 21
17.275
  0
LINE
  8
0
 10
42.208
 11
42.425
 20
17.275
 21
16.788
  0
LINE
  8
0
 10
42.425
 11
42.536
 20
16.788
 21
16.267
  0
LINE
  8
0
 10
42.536
 11
42.536
 20
16.267
 21
15.733
  0
LINE
  8
0
 10
42.536
 11
42.425
 20
15.733
 21
15.212
  0
LINE
  8
0
 10
42.425
 11
42.208
 20
15.212
 21
14.725
  0
LINE
  8
0
 10
42.208
 11
41.895
 20
14.725
 21
14.294
  0
LINE
  8
0
 10
41.895
 11
41.499
 20
14.294
 21
13.937
  0
LINE
  8
0
 10
41.499
 11
41.037
 20
13.937
 21
13.67
  0
LINE
  8
0
 10
41.037
 11
40.53
 20
13.67
 21
13.506
  0
LINE
  8
0
 10
40.53
 11
40
 20
13.506
 21
13.45
  0
LINE
  8
0
 10
40
 11
39.47
 20
13.45
 21
13.506
  0
LINE
  8
0
 10
39.47
 11
38.963
 20
13.506
 21
13.67
  0
LINE
  8
0
 10
38.963
 11
38.501
 20
13.67
 21
13.937
  0
LINE
  8
0
 10
38.501
 11
38.105
 20
13.937
 21
14.294
  0
LINE
  8
0
 10
38.105
 11
37.792
 20
14.294
 21
14.725
  0
LINE
  8
0
 10
37.792
 11
37.575
 20
14.725
 21
15.212
  0
LINE
  8
0
 10
37.575
 11
37.464
 20
15.212
 21
15.733
  0
LINE
  8
0
 10
37.464
 11
37.464
 20
23.733
 21
24.267
  0
LINE
  8
0
 10
37.464
 11
37.575
 20
24.267
 21
24.788
  0
LINE
  8
0
 10
37.575
 11
37.792
 20
24.788
 21
25.275
  0
LINE
  8
0
 10
37.792
 11
38.105
 20
25.275
 21
25.706
  0
LINE
  8
0
 10
38.105
 11
38.501
 20
25.706
 21
26.063
  0
LINE
  8
0
 10
38.501
 11
38.963
 20
26.063
 21
26.33
  0
LINE
  8
0
 10
38.963
 11
39.47
 20
26.33
 21
26.494
  0
LINE
  8
0
 10
39.47
 11
40
 20
26.494
 21
26.55
  0
LINE
  8
0
 10
40
 11
40.53
 20
26.55
 21
26.494
  0
LINE
  8
0
 10
40.53
 11
41.037
 20
26.494
 21
26.33
  0
LINE
  8
0
 10
41.037
 11
41.499
 20
26.33
 21
26.063
  0
LINE
  8
0
 10
41.499
 11
41.895
 20
26.063
 21
25.706
  0
LINE
  8
0
 10
41.895
 11
42.208
 20
25.706
 21
25.275
  0
LINE
  8
0
 10
42.208
 11
42.425
 20
25.275
 21
24.788
  0
LINE
  8
0
 10
42.425
 11
42.536
 20
24.788
 21
24.267
  0
LINE
  8
0
 10
42.536
 11
42.536
 20
24.267
 21
23.733
  0
LINE
  8
0
 10
42.536
 11
42.425
 20
23.733
 21
23.212
  0
LINE
  8
0
 10
42.425
 11
42.208
 20
23.212
 21
22.725
  0
LINE
  8
0
 10
42.208
 11
41.895
 20
22.725
 21
22.294
  0
LINE
  8
0
 10
41.895
 11
41.499
 20
22.294
 21
21.937
  0
LINE
  8
0
 10
41.499
 11
41.037
 20
21.937
 21
21.67
  0
LINE
  8
0
 10
41.037
 11
40.53
 20
21.67
 21
21.506
  0
LINE
  8
0
 10
40.53
 11
40
 20
21.506
 21
21.45
  0
LINE
  8
0
 10
40
 11
39.47
 20
21.45
 21
21.506
  0
LINE
  8
0
 10
39.47
 11
38.963
 20
21.506
 21
21.67
  0
LINE
  8
0
 10
38.963
 11
38.501
 20
21.67
 21
21.937
  0
LINE
  8
0
 10
38.501
 11
38.105
 20
21.937
 21
22.294
  0
LINE
  8
0
 10
38.105
 11
37.792
 20
22.294
 21
22.725
  0
LINE
  8
0
 10
37.792
 11
37.575
 20
22.725
 21
23.212
  0
LINE
  8
0
 10
37.575
 11
37.464
 20
23.212
 21
23.733
  0
LINE
  8
0
 10
37.464
 11
37.464
 20
31.733
 21
32.267
  0
LINE
  8
0
 10
37.464
 11
37.575
 20
32.267
 21
32.788
  0
LINE
  8
0
 10
37.575
 11
37.792
 20
32.788
 21
33.275
  0
LINE
  8
0
 10
37.792
 11
38.105
 20
33.275
 21
33.706
  0
LINE
  8
0
 10
38.105
 11
38.501
 20
33.706
 21
34.063
  0
LINE
  8
0
 10
38.501
 11
38.963
 20
34.063
 21
34.33
  0
LINE
  8
0
 10
38.963
 11
39.47
 20
34.33
 21
34.494
  0
LINE
  8
0
 10
39.47
 11
40
 20
34.494
 21
34.55
  0
LINE
  8
0
 10
40
 11
40.53
 20
34.55
 21
34.494
  0
LINE
  8
0
 10
40.53
 11
41.037
 20
34.494
 21
34.33
  0
LINE
  8
0
 10
41.037
 11
41.499
 20
34.33
 21
34.063
  0
LINE
  8
0
 10
41.499
 11
41.895
 20
34.063
 21
33.706
  0
LINE
  8
0
 10
41.895
 11
42.208
 20
33.706
 21
33.275
  0
LINE
  8
0
 10
42.208
 11
42.425
 20
33.275
 21
32.788
  0
LINE
  8
0
 10
42.425
 11
42.536
 20
32.788
 21
32.267
  0
LINE
  8
0
 10
42.536
 11
42.536
 20
32.267
 21
31.733
  0
LINE
  8
0
 10
42.536
 11
42.425
 20
31.733
 21
31.212
  0
LINE
  8
0
 10
42.425
 11
42.208
 20
31.212
 21
30.725
  0
LINE
  8
0
 10
42.208
 11
41.895
 20
30.725
 21
30.294
  0
LINE
  8
0
 10
41.895
 11
41.499
 20
30.294
 21
29.937
  0
LINE
  8
0
 10
41.499
 11
41.037
 20
29.937
 21
29.67
  0
LINE
  8
0
 10
41.037
 11
40.53
 20
29.67
 21
29.506
  0
LINE
  8
0
 10
40.53
 11
40
 20
29.506
 21
29.45
  0
LINE
  8
0
 10
40
 11
39.47
 20
29.45
 21
29.506
  0
LINE
  8
0
 10
39.47
 11
38.963
 20
29.506
 21
29.67
  0
LINE
  8
0
 10
38.963
 11
38.501
 20
29.67
 21
29.937
  0
LINE
  8
0
 10
38.501
 11
38.105
 20
29.937
 21
30.294
  0
LINE
  8
0
 10
38.105
 11
37.792
 20
30.294
 21
30.725
  0
LINE
  8
0
 10
37.792
 11
37.575
 20
30.725
 21
31.212
  0
LINE
  8
0
 10
37.575
 11
37.464
 20
31.212
 21
31.733
  0
LINE
  8
0
 10
37.464
 11
37.464
 20
39.733
 21
40.267
  0
LINE
  8
0
 10
37.464
 11
37.575
 20
40.267
 21
40.788
  0
LINE
  8
0
 10
37.575
 11
37.792
 20
40.788
 21
41.275
  0
LINE
  8
0
 10
37.792
 11
38.105
 20
41.275
 21
41.706
  0
LINE
  8
0
 10
38.105
 11
38.501
 20
41.706
 21
42.063
  0
LINE
  8
0
 10
38.501
 11
38.963
 20
42.063
 21
42.33
  0
LINE
  8
0
 10
38.963
 11
39.47
 20
42.33
 21
42.494
  0
LINE
  8
0
 10
39.47
 11
40
 20
42.494
 21
42.55
  0
LINE
  8
0
 10
40
 11
40.53
 20
42.55
 21
42.494
  0
LINE
  8
0
 10
40.53
 11
41.037
 20
42.494
 21
42.33
  0
LINE
  8
0
 10
41.037
 11
41.499
 20
42.33
 21
42.063
  0
LINE
  8
0
 10
41.499
 11
41.895
 20
42.063
 21
41.706
  0
LINE
  8
0
 10
41.895
 11
42.208
 20
41.706
 21
41.275
  0
LINE
  8
0
 10
42.208
 11
42.425
 20
41.275
 21
40.788
  0
LINE
  8
0
 10
42.425
 11
42.536
 20
40.788
 21
40.267
  0
LINE
  8
0
 10
42.536
 11
42.536
 20
40.267
 21
39.733
  0
LINE
  8
0
 10
42.536
 11
42.425
 20
39.733
 21
39.212
  0
LINE
  8
0
 10
42.425
 11
42.208
 20
39.212
 21
38.725
  0
LINE
  8
0
 10
42.208
 11
41.895
 20
38.725
 21
38.294
  0
LINE
  8
0
 10
41.895
 11
41.499
 20
38.294
 21
37.937
  0
LINE
  8
0
 10
41.499
 11
41.037
 20
37.937
 21
37.67
  0
LINE
  8
0
 10
41.037
 11
40.53
 20
37.67
 21
37.506
  0
LINE
  8
0
 10
40.53
 11
40
 20
37.506
 21
37.45
  0
LINE
  8
0
 10
40
 11
39.47
 20
37.45
 21
37.506
  0
LINE
  8
0
 10
39.47
 11
38.963
 20
37.506
 21
37.67
  0
LINE
  8
0
 10
38.963
 11
38.501
 20
37.67
 21
37.937
  0
LINE
  8
0
 10
38.501
 11
38.105
 20
37.937
 21
38.294
  0
LINE
  8
0
 10
38.105
 11
37.792
 20
38.294
 21
38.725
  0
LINE
  8
0
 10
37.792
 11
37.575
 20
38.725
 21
39.212
  0
LINE
  8
0
 10
37.575
 11
37.464
 20
39.212
 21
39.733
  0
LINE
  8
0
 10
37.464
 11
37.464
 20
47.733
 21
48.267
  0
LINE
  8
0
 10
37.464
 11
37.575
 20
48.267
 21
48.788
  0
LINE
  8
0
 10
37.575
 11
37.792
 20
48.788
 21
49.275
  0
LINE
  8
0
 10
37.792
 11
38.105
 20
49.275
 21
49.706
  0
LINE
  8
0
 10
38.105
 11
38.501
 20
49.706
 21
50.063
  0
LINE
  8
0
 10
38.501
 11
38.963
 20
50.063
 21
50.33
  0
LINE
  8
0
 10
38.963
 11
39.47
 20
50.33
 21
50.494
  0
LINE
  8
0
 10
39.47
 11
40
 20
50.494
 21
50.55
  0
LINE
  8
0
 10
40
 11
40.53
 20
50.55
 21
50.494
  0
LINE
  8
0
 10
40.53
 11
41.037
 20
50.494
 21
50.33
  0
LINE
  8
0
 10
41.037
 11
41.499
 20
50.33
 21
50.063
  0
LINE
  8
0
 10
41.499
 11
41.895
 20
50.063
 21
49.706
  0
LINE
  8
0
 10
41.895
 11
42.208
 20
49.706
 21
49.275
  0
LINE
  8
0
 10
42.208
 11
42.425
 20
49.275
 21
48.788
  0
LINE
  8
0
 10
42.425
 11
42.536
 20
48.788
 21
48.267
  0
LINE
  8
0
 10
42.536
 11
42.536
 20
48.267
 21
47.733
  0
LINE
  8
0
 10
42.536
 11
42.425
 20
47.733
 21
47.212
  0
LINE
  8
0
 10
42.425
 11
42.208
 20
47.212
 21
46.725
  0
LINE
  8
0
 10
42.208
 11
41.895
 20
46.725
 21
46.294
  0
LINE
  8
0
 10
41.895
 11
41.499
 20
46.294
 21
45.937
  0
LINE
  8
0
 10
41.499
 11
41.037
 20
45.937
 21
45.67
  0
LINE
  8
0
 10
41.037
 11
40.53
 20
45.67
 21
45.506
  0
LINE
  8
0
 10
40.53
 11
40
 20
45.506
 21
45.45
  0
LINE
  8
0
 10
40
 11
39.47
 20
45.45
 21
45.506
  0
LINE
  8
0
 10
39.47
 11
38.963
 20
45.506
 21
45.67
  0
LINE
  8
0
 10
38.963
 11
38.501
 20
45.67
 21
45.937
  0
LINE
  8
0
 10
38.501
 11
38.105
 20
45.937
 21
46.294
  0
LINE
  8
0
 10
38.105
 11
37.792
 20
46.294
 21
46.725
  0
LINE
  8
0
 10
37.792
 11
37.575
 20
46.725
 21
47.212
  0
LINE
  8
0
 10
37.575
 11
37.464
 20
47.212
 21
47.733
  0
LINE
  8
0
 10
37.464
 11
37.464
 20
55.733
 21
56.267
  0
LINE
  8
0
 10
37.464
 11
37.575
 20
56.267
 21
56.788
  0
LINE
  8
0
 10
37.575
 11
37.792
 20
56.788
 21
57.275
  0
LINE
  8
0
 10
37.792
 11
38.105
 20
57.275
 21
57.706
  0
LINE
  8
0
 10
38.105
 11
38.501
 20
57.706
 21
58.063
  0
LINE
  8
0
 10
38.501
 11
38.963
 20
58.063
 21
58.33
  0
LINE
  8
0
 10
38.963
 11
39.47
 20
58.33
 21
58.494
  0
LINE
  8
0
 10
39.47
 11
40
 20
58.494
 21
58.55
  0
LINE
  8
0
 10
40
 11
40.53
 20
58.55
 21
58.494
  0
LINE
  8
0
 10
40.53
 11
41.037
 20
58.494
 21
58.33
  0
LINE
  8
0
 10
41.037
 11
41.499
 20
58.33
 21
58.063
  0
LINE
  8
0
 10
41.499
 11
41.895
 20
58.063
 21
57.706
  0
LINE
  8
0
 10
41.895
 11
42.208
 20
57.706
 21
57.275
  0
LINE
  8
0
 10
42.208
 11
42.425
 20
57.275
 21
56.788
  0
LINE
  8
0
 10
42.425
 11
42.536
 20
56.788
 21
56.267
  0
LINE
  8
0
 10
42.536
 11
42.536
 20
56.267
 21
55.733
  0
LINE
  8
0
 10
42.536
 11
42.425
 20
55.733
 21
55.212
  0
LINE
  8
0
 10
42.425
 11
42.208
 20
55.212
 21
54.725
  0
LINE
  8
0
 10
42.208
 11
41.895
 20
54.725
 21
54.294
  0
LINE
  8
0
 10
41.895
 11
41.499
 20
54.294
 21
53.937
  0
LINE
  8
0
 10
41.499
 11
41.037
 20
53.937
 21
53.67
  0
LINE
  8
0
 10
41.037
 11
40.53
 20
53.67
 21
53.506
  0
LINE
  8
0
 10
40.53
 11
40
 20
53.506
 21
53.45
  0
LINE
  8
0
 10
40
 11
39.47
 20
53.45
 21
53.506
  0
LINE
  8
0
 10
39.47
 11
38.963
 20
53.506
 21
53.67
  0
LINE
  8
0
 10
38.963
 11
38.501
 20
53.67
 21
53.937
  0
LINE
  8
0
 10
38.501
 11
38.105
 20
53.937
 21
54.294
  0
LINE
  8
0
 10
38.105
 11
37.792
 20
54.294
 21
54.725
  0
LINE
  8
0
 10
37.792
 11
37.575
 20
54.725
 21
55.212
  0
LINE
  8
0
 10
37.575
 11
37.464
 20
55.212
 21
55.733
  0
LINE
  8
0
 10
37.464
 11
37.464
 20
63.733
 21
64.267
  0
LINE
  8
0
 10
37.464
 11
37.575
 20
64.267
 21
64.788
  0
LINE
  8
0
 10
37.575
 11
37.792
 20
64.788
 21
65.275
  0
LINE
  8
0
 10
37.792
 11
38.105
 20
65.275
 21
65.706
  0
LINE
  8
0
 10
38.105
 11
38.501
 20
65.706
 21
66.063
  0
LINE
  8
0
 10
38.501
 11
38.963
 20
66.063
 21
66.33
  0
LINE
  8
0
 10
38.963
 11
39.47
 20
66.33
 21
66.494
  0
LINE
  8
0
 10
39.47
 11
40
 20
66.494
 21
66.55
  0
LINE
  8
0
 10
40
 11
40.53
 20
66.55
 21
66.494
  0
LINE
  8
0
 10
40.53
 11
41.037
 20
66.494
 21
66.33
  0
LINE
  8
0
 10
41.037
 11
41.499
 20
66.33
 21
66.063
  0
LINE
  8
0
 10
41.499
 11
41.895
 20
66.063
 21
65.706
  0
LINE
  8
0
 10
41.895
 11
42.208
 20
65.706
 21
65.275
  0
LINE
  8
0
 10
42.208
 11
42.425
 20
65.275
 21
64.788
  0
LINE
  8
0
 10
42.425
 11
42.536
 20
64.788
 21
64.267
  0
LINE
  8
0
 10
42.536
 11
42.536
 20
64.267
 21
63.733
  0
LINE
  8
0
 10
42.536
 11
42.425
 20
63.733
 21
63.212
  0
LINE
  8
0
 10
42.425
 11
42.208
 20
63.212
 21
62.725
  0
LINE
  8
0
 10
42.208
 11
41.895
 20
62.725
 21
62.294
  0
LINE
  8
0
 10
41.895
 11
41.499
 20
62.294
 21
61.937
  0
LINE
  8
0
 10
41.499
 11
41.037
 20
61.937
 21
61.67
  0
LINE
  8
0
 10
41.037
 11
40.53
 20
61.67
 21
61.506
  0
LINE
  8
0
 10
40.53
 11
40
 20
61.506
 21
61.45
  0
LINE
  8
0
 10
40
 11
39.47
 20
61.45
 21
61.506
  0
LINE
  8
0
 10
39.47
 11
38.963
 20
61.506
 21
61.67
  0
LINE
  8
0
 10
38.963
 11
38.501
 20
61.67
 21
61.937
  0
LINE
  8
0
 10
38.501
 11
38.105
 20
61.937
 21
62.294
  0
LINE
  8
0
 10
38.105
 11
37.792
 20
62.294
 21
62.725
  0
LINE
  8
0
 10
37.792
 11
37.575
 20
62.725
 21
63.212
  0
LINE
  8
0
 10
37.575
 11
37.464
 20
63.212
 21
63.733
  0
LINE
  8
0
 10
37.464
 11
37.464
 20
71.733
 21
72.267
  0
LINE
  8
0
 10
37.464
 11
37.575
 20
72.267
 21
72.788
  0
LINE
  8
0
 10
37.575
 11
37.792
 20
72.788
 21
73.275
  0
LINE
  8
0
 10
37.792
 11
38.105
 20
73.275
 21
73.706
  0
LINE
  8
0
 10
38.105
 11
38.501
 20
73.706
 21
74.063
  0
LINE
  8
0
 10
38.501
 11
38.963
 20
74.063
 21
74.33
  0
LINE
  8
0
 10
38.963
 11
39.47
 20
74.33
 21
74.494
  0
LINE
  8
0
 10
39.47
 11
40
 20
74.494
 21
74.55
  0
LINE
  8
0
 10
40
 11
40.53
 20
74.55
 21
74.494
  0
LINE
  8
0
 10
40.53
 11
41.037
 20
74.494
 21
74.33
  0
LINE
  8
0
 10
41.037
 11
41.499
 20
74.33
 21
74.063
  0
LINE
  8
0
 10
41.499
 11
41.895
 20
74.063
 21
73.706
  0
LINE
  8
0
 10
41.895
 11
42.208
 20
73.706
 21
73.275
  0
LINE
  8
0
 10
42.208
 11
42.425
 20
73.275
 21
72.788
  0
LINE
  8
0
 10
42.425
 11
42.536
 20
72.788
 21
72.267
  0
LINE
  8
0
 10
42.536
 11
42.536
 20
72.267
 21
71.733
  0
LINE
  8
0
 10
42.536
 11
42.425
 20
71.733
 21
71.212
  0
LINE
  8
0
 10
42.425
 11
42.208
 20
71.212
 21
70.725
  0
LINE
  8
0
 10
42.208
 11
41.895
 20
70.725
 21
70.294
  0
LINE
  8
0
 10
41.895
 11
41.499
 20
70.294
 21
69.937
  0
LINE
  8
0
 10
41.499
 11
41.037
 20
69.937
 21
69.67
  0
LINE
  8
0
 10
41.037
 11
40.53
 20
69.67
 21
69.506
  0
LINE
  8
0
 10
40.53
 11
40
 20
69.506
 21
69.45
  0
LINE
  8
0
 10
40
 11
39.47
 20
69.45
 21
69.506
  0
LINE
  8
0
 10
39.47
 11
38.963
 20
69.506
 21
69.67
  0
LINE
  8
0
 10
38.963
 11
38.501
 20
69.67
 21
69.937
  0
LINE
  8
0
 10
38.501
 11
38.105
 20
69.937
 21
70.294
  0
LINE
  8
0
 10
38.105
 11
37.792
 20
70.294
 21
70.725
  0
LINE
  8
0
 10
37.792
 11
37.575
 20
70.725
 21
71.212
  0
LINE
  8
0
 10
37.575
 11
37.464
 20
71.212
 21
71.733
  0
LINE
  8
0
 10
58.732
 11
58.788
 20
53.856
 21
54.387
  0
LINE
  8
0
 10
58.788
 11
58.952
 20
54.387
 21
54.894
  0
LINE
  8
0
 10
58.952
 11
59.219
 20
54.894
 21
55.355
  0
LINE
  8
0
 10
59.219
 11
59.576
 20
55.355
 21
55.751
  0
LINE
  8
0
 10
59.576
 11
60.007
 20
55.751
 21
56.065
  0
LINE
  8
0
 10
60.007
 11
60.494
 20
56.065
 21
56.282
  0
LINE
  8
0
 10
60.494
 11
61.015
 20
56.282
 21
56.392
  0
LINE
  8
0
 10
61.015
 11
61.549
 20
56.392
 21
56.392
  0
LINE
  8
0
 10
61.549
 11
62.07
 20
56.392
 21
56.282
  0
LINE
  8
0
 10
62.07
 11
62.557
 20
56.282
 21
56.065
  0
LINE
  8
0
 10
62.557
 11
62.988
 20
56.065
 21
55.751
  0
LINE
  8
0
 10
62.988
 11
63.345
 20
55.751
 21
55.355
  0
LINE
  8
0
 10
63.345
 11
63.612
 20
55.355
 21
54.894
  0
LINE
  8
0
 10
63.612
 11
63.776
 20
54.894
 21
54.387
  0
LINE
  8
0
 10
63.776
 11
63.832
 20
54.387
 21
53.856
  0
LINE
  8
0
 10
63.832
 11
63.776
 20
53.856
 21
53.326
  0
LINE
  8
0
 10
63.776
 11
63.612
 20
53.326
 21
52.819
  0
LINE
  8
0
 10
63.612
 11
63.345
 20
52.819
 21
52.358
  0
LINE
  8
0
 10
63.345
 11
62.988
 20
52.358
 21
51.961
  0
LINE
  8
0
 10
62.988
 11
62.557
 20
51.961
 21
51.648
  0
LINE
  8
0
 10
62.557
 11
62.07
 20
51.648
 21
51.431
  0
LINE
  8
0
 10
62.07
 11
61.549
 20
51.431
 21
51.32
  0
LINE
  8
0
 10
61.549
 11
61.015
 20
51.32
 21
51.32
  0
LINE
  8
0
 10
61.015
 11
60.494
 20
51.32
 21
51.431
  0
LINE
  8
0
 10
60.494
 11
60.007
 20
51.431
 21
51.648
  0
LINE
  8
0
 10
60.007
 11
59.576
 20
51.648
 21
51.961
  0
LINE
  8
0
 10
59.576
 11
59.219
 20
51.961
 21
52.358
  0
LINE
  8
0
 10
59.219
 11
58.952
 20
52.358
 21
52.819
  0
LINE
  8
0
 10
58.952
 11
58.788
 20
52.819
 21
53.326
  0
LINE
  8
0
 10
58.788
 11
58.732
 20
53.326
 21
53.856
  0
LINE
  8
0
 10
74.732
 11
74.788
 20
26.144
 21
26.674
  0
LINE
  8
0
 10
74.788
 11
74.952
 20
26.674
 21
27.181
  0
LINE
  8
0
 10
74.952
 11
75.219
 20
27.181
 21
27.642
  0
LINE
  8
0
 10
75.219
 11
75.576
 20
27.642
 21
28.039
  0
LINE
  8
0
 10
75.576
 11
76.007
 20
28.039
 21
28.352
  0
LINE
  8
0
 10
76.007
 11
76.494
 20
28.352
 21
28.569
  0
LINE
  8
0
 10
76.494
 11
77.015
 20
28.569
 21
28.68
  0
LINE
  8
0
 10
77.015
 11
77.549
 20
28.68
 21
28.68
  0
LINE
  8
0
 10
77.549
 11
78.07
 20
28.68
 21
28.569
  0
LINE
  8
0
 10
78.07
 11
78.557
 20
28.569
 21
28.352
  0
LINE
  8
0
 10
78.557
 11
78.988
 20
28.352
 21
28.039
  0
LINE
  8
0
 10
78.988
 11
79.345
 20
28.039
 21
27.642
  0
LINE
  8
0
 10
79.345
 11
79.612
 20
27.642
 21
27.181
  0
LINE
  8
0
 10
79.612
 11
79.776
 20
27.181
 21
26.674
  0
LINE
  8
0
 10
79.776
 11
79.832
 20
26.674
 21
26.144
  0
LINE
  8
0
 10
79.832
 11
79.776
 20
26.144
 21
25.613
  0
LINE
  8
0
 10
79.776
 11
79.612
 20
25.613
 21
25.106
  0
LINE
  8
0
 10
79.612
 11
79.345
 20
25.106
 21
24.645
  0
LINE
  8
0
 10
79.345
 11
78.988
 20
24.645
 21
24.249
  0
LINE
  8
0
 10
78.988
 11
78.557
 20
24.249
 21
23.935
  0
LINE
  8
0
 10
78.557
 11
78.07
 20
23.935
 21
23.718
  0
LINE
  8
0
 10
78.07
 11
77.549
 20
23.718
 21
23.608
  0
LINE
  8
0
 10
77.549
 11
77.015
 20
23.608
 21
23.608
  0
LINE
  8
0
 10
77.015
 11
76.494
 20
23.608
 21
23.718
  0
LINE
  8
0
 10
76.494
 11
76.007
 20
23.718
 21
23.935
  0
LINE
  8
0
 10
76.007
 11
75.576
 20
23.935
 21
24.249
  0
LINE
  8
0
 10
75.576
 11
75.219
 20
24.249
 21
24.645
  0
LINE
  8
0
 10
75.219
 11
74.952
 20
24.645
 21
25.106
  0
LINE
  8
0
 10
74.952
 11
74.788
 20
25.106
 21
25.613
  0
LINE
  8
0
 10
74.788
 11
74.732
 20
25.613
 21
26.144
  0
ENDSEC
  0
SECTION
  2
OBJECTS
  0
DICTIONARY
  0
ENDSEC
  0
EOF
