  0
SECTION
  2
BLOCKS
  0
ENDSEC
  0
SECTION
  2
ENTITIES
  0
LINE
  8
0
 10
0
 11
0
 20
0
 21
40
  0
LINE
  8
0
 10
0
 11
232
 20
40
 21
40
  0
LINE
  8
0
 10
232
 11
232
 20
40
 21
0
  0
LINE
  8
0
 10
232
 11
0
 20
0
 21
0
  0
LINE
  8
0
 10
9.464
 11
9.464
 20
11.733
 21
12.267
  0
LINE
  8
0
 10
9.464
 11
9.575
 20
12.267
 21
12.788
  0
LINE
  8
0
 10
9.575
 11
9.792
 20
12.788
 21
13.275
  0
LINE
  8
0
 10
9.792
 11
10.105
 20
13.275
 21
13.706
  0
LINE
  8
0
 10
10.105
 11
10.501
 20
13.706
 21
14.063
  0
LINE
  8
0
 10
10.501
 11
10.963
 20
14.063
 21
14.33
  0
LINE
  8
0
 10
10.963
 11
11.47
 20
14.33
 21
14.494
  0
LINE
  8
0
 10
11.47
 11
12
 20
14.494
 21
14.55
  0
LINE
  8
0
 10
12
 11
12.53
 20
14.55
 21
14.494
  0
LINE
  8
0
 10
12.53
 11
13.037
 20
14.494
 21
14.33
  0
LINE
  8
0
 10
13.037
 11
13.499
 20
14.33
 21
14.063
  0
LINE
  8
0
 10
13.499
 11
13.895
 20
14.063
 21
13.706
  0
LINE
  8
0
 10
13.895
 11
14.208
 20
13.706
 21
13.275
  0
LINE
  8
0
 10
14.208
 11
14.425
 20
13.275
 21
12.788
  0
LINE
  8
0
 10
14.425
 11
14.536
 20
12.788
 21
12.267
  0
LINE
  8
0
 10
14.536
 11
14.536
 20
12.267
 21
11.733
  0
LINE
  8
0
 10
14.536
 11
14.425
 20
11.733
 21
11.212
  0
LINE
  8
0
 10
14.425
 11
14.208
 20
11.212
 21
10.725
  0
LINE
  8
0
 10
14.208
 11
13.895
 20
10.725
 21
10.294
  0
LINE
  8
0
 10
13.895
 11
13.499
 20
10.294
 21
9.937
  0
LINE
  8
0
 10
13.499
 11
13.037
 20
9.937
 21
9.67
  0
LINE
  8
0
 10
13.037
 11
12.53
 20
9.67
 21
9.506
  0
LINE
  8
0
 10
12.53
 11
12
 20
9.506
 21
9.45
  0
LINE
  8
0
 10
12
 11
11.47
 20
9.45
 21
9.506
  0
LINE
  8
0
 10
11.47
 11
10.963
 20
9.506
 21
9.67
  0
LINE
  8
0
 10
10.963
 11
10.501
 20
9.67
 21
9.937
  0
LINE
  8
0
 10
10.501
 11
10.105
 20
9.937
 21
10.294
  0
LINE
  8
0
 10
10.105
 11
9.792
 20
10.294
 21
10.725
  0
LINE
  8
0
 10
9.792
 11
9.575
 20
10.725
 21
11.212
  0
LINE
  8
0
 10
9.575
 11
9.464
 20
11.212
 21
11.733
  0
LINE
  8
0
 10
9.464
 11
9.464
 20
19.733
 21
20.267
  0
LINE
  8
0
 10
9.464
 11
9.575
 20
20.267
 21
20.788
  0
LINE
  8
0
 10
9.575
 11
9.792
 20
20.788
 21
21.275
  0
LINE
  8
0
 10
9.792
 11
10.105
 20
21.275
 21
21.706
  0
LINE
  8
0
 10
10.105
 11
10.501
 20
21.706
 21
22.063
  0
LINE
  8
0
 10
10.501
 11
10.963
 20
22.063
 21
22.33
  0
LINE
  8
0
 10
10.963
 11
11.47
 20
22.33
 21
22.494
  0
LINE
  8
0
 10
11.47
 11
12
 20
22.494
 21
22.55
  0
LINE
  8
0
 10
12
 11
12.53
 20
22.55
 21
22.494
  0
LINE
  8
0
 10
12.53
 11
13.037
 20
22.494
 21
22.33
  0
LINE
  8
0
 10
13.037
 11
13.499
 20
22.33
 21
22.063
  0
LINE
  8
0
 10
13.499
 11
13.895
 20
22.063
 21
21.706
  0
LINE
  8
0
 10
13.895
 11
14.208
 20
21.706
 21
21.275
  0
LINE
  8
0
 10
14.208
 11
14.425
 20
21.275
 21
20.788
  0
LINE
  8
0
 10
14.425
 11
14.536
 20
20.788
 21
20.267
  0
LINE
  8
0
 10
14.536
 11
14.536
 20
20.267
 21
19.733
  0
LINE
  8
0
 10
14.536
 11
14.425
 20
19.733
 21
19.212
  0
LINE
  8
0
 10
14.425
 11
14.208
 20
19.212
 21
18.725
  0
LINE
  8
0
 10
14.208
 11
13.895
 20
18.725
 21
18.294
  0
LINE
  8
0
 10
13.895
 11
13.499
 20
18.294
 21
17.937
  0
LINE
  8
0
 10
13.499
 11
13.037
 20
17.937
 21
17.67
  0
LINE
  8
0
 10
13.037
 11
12.53
 20
17.67
 21
17.506
  0
LINE
  8
0
 10
12.53
 11
12
 20
17.506
 21
17.45
  0
LINE
  8
0
 10
12
 11
11.47
 20
17.45
 21
17.506
  0
LINE
  8
0
 10
11.47
 11
10.963
 20
17.506
 21
17.67
  0
LINE
  8
0
 10
10.963
 11
10.501
 20
17.67
 21
17.937
  0
LINE
  8
0
 10
10.501
 11
10.105
 20
17.937
 21
18.294
  0
LINE
  8
0
 10
10.105
 11
9.792
 20
18.294
 21
18.725
  0
LINE
  8
0
 10
9.792
 11
9.575
 20
18.725
 21
19.212
  0
LINE
  8
0
 10
9.575
 11
9.464
 20
19.212
 21
19.733
  0
LINE
  8
0
 10
9.464
 11
9.464
 20
27.733
 21
28.267
  0
LINE
  8
0
 10
9.464
 11
9.575
 20
28.267
 21
28.788
  0
LINE
  8
0
 10
9.575
 11
9.792
 20
28.788
 21
29.275
  0
LINE
  8
0
 10
9.792
 11
10.105
 20
29.275
 21
29.706
  0
LINE
  8
0
 10
10.105
 11
10.501
 20
29.706
 21
30.063
  0
LINE
  8
0
 10
10.501
 11
10.963
 20
30.063
 21
30.33
  0
LINE
  8
0
 10
10.963
 11
11.47
 20
30.33
 21
30.494
  0
LINE
  8
0
 10
11.47
 11
12
 20
30.494
 21
30.55
  0
LINE
  8
0
 10
12
 11
12.53
 20
30.55
 21
30.494
  0
LINE
  8
0
 10
12.53
 11
13.037
 20
30.494
 21
30.33
  0
LINE
  8
0
 10
13.037
 11
13.499
 20
30.33
 21
30.063
  0
LINE
  8
0
 10
13.499
 11
13.895
 20
30.063
 21
29.706
  0
LINE
  8
0
 10
13.895
 11
14.208
 20
29.706
 21
29.275
  0
LINE
  8
0
 10
14.208
 11
14.425
 20
29.275
 21
28.788
  0
LINE
  8
0
 10
14.425
 11
14.536
 20
28.788
 21
28.267
  0
LINE
  8
0
 10
14.536
 11
14.536
 20
28.267
 21
27.733
  0
LINE
  8
0
 10
14.536
 11
14.425
 20
27.733
 21
27.212
  0
LINE
  8
0
 10
14.425
 11
14.208
 20
27.212
 21
26.725
  0
LINE
  8
0
 10
14.208
 11
13.895
 20
26.725
 21
26.294
  0
LINE
  8
0
 10
13.895
 11
13.499
 20
26.294
 21
25.937
  0
LINE
  8
0
 10
13.499
 11
13.037
 20
25.937
 21
25.67
  0
LINE
  8
0
 10
13.037
 11
12.53
 20
25.67
 21
25.506
  0
LINE
  8
0
 10
12.53
 11
12
 20
25.506
 21
25.45
  0
LINE
  8
0
 10
12
 11
11.47
 20
25.45
 21
25.506
  0
LINE
  8
0
 10
11.47
 11
10.963
 20
25.506
 21
25.67
  0
LINE
  8
0
 10
10.963
 11
10.501
 20
25.67
 21
25.937
  0
LINE
  8
0
 10
10.501
 11
10.105
 20
25.937
 21
26.294
  0
LINE
  8
0
 10
10.105
 11
9.792
 20
26.294
 21
26.725
  0
LINE
  8
0
 10
9.792
 11
9.575
 20
26.725
 21
27.212
  0
LINE
  8
0
 10
9.575
 11
9.464
 20
27.212
 21
27.733
  0
LINE
  8
0
 10
217.464
 11
217.464
 20
11.733
 21
12.267
  0
LINE
  8
0
 10
217.464
 11
217.575
 20
12.267
 21
12.788
  0
LINE
  8
0
 10
217.575
 11
217.792
 20
12.788
 21
13.275
  0
LINE
  8
0
 10
217.792
 11
218.105
 20
13.275
 21
13.706
  0
LINE
  8
0
 10
218.105
 11
218.501
 20
13.706
 21
14.063
  0
LINE
  8
0
 10
218.501
 11
218.963
 20
14.063
 21
14.33
  0
LINE
  8
0
 10
218.963
 11
219.47
 20
14.33
 21
14.494
  0
LINE
  8
0
 10
219.47
 11
220
 20
14.494
 21
14.55
  0
LINE
  8
0
 10
220
 11
220.53
 20
14.55
 21
14.494
  0
LINE
  8
0
 10
220.53
 11
221.037
 20
14.494
 21
14.33
  0
LINE
  8
0
 10
221.037
 11
221.499
 20
14.33
 21
14.063
  0
LINE
  8
0
 10
221.499
 11
221.895
 20
14.063
 21
13.706
  0
LINE
  8
0
 10
221.895
 11
222.208
 20
13.706
 21
13.275
  0
LINE
  8
0
 10
222.208
 11
222.425
 20
13.275
 21
12.788
  0
LINE
  8
0
 10
222.425
 11
222.536
 20
12.788
 21
12.267
  0
LINE
  8
0
 10
222.536
 11
222.536
 20
12.267
 21
11.733
  0
LINE
  8
0
 10
222.536
 11
222.425
 20
11.733
 21
11.212
  0
LINE
  8
0
 10
222.425
 11
222.208
 20
11.212
 21
10.725
  0
LINE
  8
0
 10
222.208
 11
221.895
 20
10.725
 21
10.294
  0
LINE
  8
0
 10
221.895
 11
221.499
 20
10.294
 21
9.937
  0
LINE
  8
0
 10
221.499
 11
221.037
 20
9.937
 21
9.67
  0
LINE
  8
0
 10
221.037
 11
220.53
 20
9.67
 21
9.506
  0
LINE
  8
0
 10
220.53
 11
220
 20
9.506
 21
9.45
  0
LINE
  8
0
 10
220
 11
219.47
 20
9.45
 21
9.506
  0
LINE
  8
0
 10
219.47
 11
218.963
 20
9.506
 21
9.67
  0
LINE
  8
0
 10
218.963
 11
218.501
 20
9.67
 21
9.937
  0
LINE
  8
0
 10
218.501
 11
218.105
 20
9.937
 21
10.294
  0
LINE
  8
0
 10
218.105
 11
217.792
 20
10.294
 21
10.725
  0
LINE
  8
0
 10
217.792
 11
217.575
 20
10.725
 21
11.212
  0
LINE
  8
0
 10
217.575
 11
217.464
 20
11.212
 21
11.733
  0
LINE
  8
0
 10
217.464
 11
217.464
 20
19.733
 21
20.267
  0
LINE
  8
0
 10
217.464
 11
217.575
 20
20.267
 21
20.788
  0
LINE
  8
0
 10
217.575
 11
217.792
 20
20.788
 21
21.275
  0
LINE
  8
0
 10
217.792
 11
218.105
 20
21.275
 21
21.706
  0
LINE
  8
0
 10
218.105
 11
218.501
 20
21.706
 21
22.063
  0
LINE
  8
0
 10
218.501
 11
218.963
 20
22.063
 21
22.33
  0
LINE
  8
0
 10
218.963
 11
219.47
 20
22.33
 21
22.494
  0
LINE
  8
0
 10
219.47
 11
220
 20
22.494
 21
22.55
  0
LINE
  8
0
 10
220
 11
220.53
 20
22.55
 21
22.494
  0
LINE
  8
0
 10
220.53
 11
221.037
 20
22.494
 21
22.33
  0
LINE
  8
0
 10
221.037
 11
221.499
 20
22.33
 21
22.063
  0
LINE
  8
0
 10
221.499
 11
221.895
 20
22.063
 21
21.706
  0
LINE
  8
0
 10
221.895
 11
222.208
 20
21.706
 21
21.275
  0
LINE
  8
0
 10
222.208
 11
222.425
 20
21.275
 21
20.788
  0
LINE
  8
0
 10
222.425
 11
222.536
 20
20.788
 21
20.267
  0
LINE
  8
0
 10
222.536
 11
222.536
 20
20.267
 21
19.733
  0
LINE
  8
0
 10
222.536
 11
222.425
 20
19.733
 21
19.212
  0
LINE
  8
0
 10
222.425
 11
222.208
 20
19.212
 21
18.725
  0
LINE
  8
0
 10
222.208
 11
221.895
 20
18.725
 21
18.294
  0
LINE
  8
0
 10
221.895
 11
221.499
 20
18.294
 21
17.937
  0
LINE
  8
0
 10
221.499
 11
221.037
 20
17.937
 21
17.67
  0
LINE
  8
0
 10
221.037
 11
220.53
 20
17.67
 21
17.506
  0
LINE
  8
0
 10
220.53
 11
220
 20
17.506
 21
17.45
  0
LINE
  8
0
 10
220
 11
219.47
 20
17.45
 21
17.506
  0
LINE
  8
0
 10
219.47
 11
218.963
 20
17.506
 21
17.67
  0
LINE
  8
0
 10
218.963
 11
218.501
 20
17.67
 21
17.937
  0
LINE
  8
0
 10
218.501
 11
218.105
 20
17.937
 21
18.294
  0
LINE
  8
0
 10
218.105
 11
217.792
 20
18.294
 21
18.725
  0
LINE
  8
0
 10
217.792
 11
217.575
 20
18.725
 21
19.212
  0
LINE
  8
0
 10
217.575
 11
217.464
 20
19.212
 21
19.733
  0
LINE
  8
0
 10
217.464
 11
217.464
 20
27.733
 21
28.267
  0
LINE
  8
0
 10
217.464
 11
217.575
 20
28.267
 21
28.788
  0
LINE
  8
0
 10
217.575
 11
217.792
 20
28.788
 21
29.275
  0
LINE
  8
0
 10
217.792
 11
218.105
 20
29.275
 21
29.706
  0
LINE
  8
0
 10
218.105
 11
218.501
 20
29.706
 21
30.063
  0
LINE
  8
0
 10
218.501
 11
218.963
 20
30.063
 21
30.33
  0
LINE
  8
0
 10
218.963
 11
219.47
 20
30.33
 21
30.494
  0
LINE
  8
0
 10
219.47
 11
220
 20
30.494
 21
30.55
  0
LINE
  8
0
 10
220
 11
220.53
 20
30.55
 21
30.494
  0
LINE
  8
0
 10
220.53
 11
221.037
 20
30.494
 21
30.33
  0
LINE
  8
0
 10
221.037
 11
221.499
 20
30.33
 21
30.063
  0
LINE
  8
0
 10
221.499
 11
221.895
 20
30.063
 21
29.706
  0
LINE
  8
0
 10
221.895
 11
222.208
 20
29.706
 21
29.275
  0
LINE
  8
0
 10
222.208
 11
222.425
 20
29.275
 21
28.788
  0
LINE
  8
0
 10
222.425
 11
222.536
 20
28.788
 21
28.267
  0
LINE
  8
0
 10
222.536
 11
222.536
 20
28.267
 21
27.733
  0
LINE
  8
0
 10
222.536
 11
222.425
 20
27.733
 21
27.212
  0
LINE
  8
0
 10
222.425
 11
222.208
 20
27.212
 21
26.725
  0
LINE
  8
0
 10
222.208
 11
221.895
 20
26.725
 21
26.294
  0
LINE
  8
0
 10
221.895
 11
221.499
 20
26.294
 21
25.937
  0
LINE
  8
0
 10
221.499
 11
221.037
 20
25.937
 21
25.67
  0
LINE
  8
0
 10
221.037
 11
220.53
 20
25.67
 21
25.506
  0
LINE
  8
0
 10
220.53
 11
220
 20
25.506
 21
25.45
  0
LINE
  8
0
 10
220
 11
219.47
 20
25.45
 21
25.506
  0
LINE
  8
0
 10
219.47
 11
218.963
 20
25.506
 21
25.67
  0
LINE
  8
0
 10
218.963
 11
218.501
 20
25.67
 21
25.937
  0
LINE
  8
0
 10
218.501
 11
218.105
 20
25.937
 21
26.294
  0
LINE
  8
0
 10
218.105
 11
217.792
 20
26.294
 21
26.725
  0
LINE
  8
0
 10
217.792
 11
217.575
 20
26.725
 21
27.212
  0
LINE
  8
0
 10
217.575
 11
217.464
 20
27.212
 21
27.733
  0
ENDSEC
  0
SECTION
  2
OBJECTS
  0
DICTIONARY
  0
ENDSEC
  0
EOF
