  0
SECTION
  2
BLOCKS
  0
ENDSEC
  0
SECTION
  2
ENTITIES
  0
LINE
  8
0
 10
-97
 11
-48.5
 20
0
 21
84.004
  0
LINE
  8
0
 10
-48.5
 11
48.5
 20
84.004
 21
84.004
  0
LINE
  8
0
 10
48.5
 11
97
 20
84.004
 21
0
  0
LINE
  8
0
 10
97
 11
48.5
 20
0
 21
-84.004
  0
LINE
  8
0
 10
48.5
 11
-48.5
 20
-84.004
 21
-84.004
  0
LINE
  8
0
 10
-48.5
 11
-97
 20
-84.004
 21
0
  0
LINE
  8
0
 10
-79.832
 11
-79.776
 20
26.144
 21
26.674
  0
LINE
  8
0
 10
-79.776
 11
-79.612
 20
26.674
 21
27.181
  0
LINE
  8
0
 10
-79.612
 11
-79.345
 20
27.181
 21
27.642
  0
LINE
  8
0
 10
-79.345
 11
-78.988
 20
27.642
 21
28.039
  0
LINE
  8
0
 10
-78.988
 11
-78.557
 20
28.039
 21
28.352
  0
LINE
  8
0
 10
-78.557
 11
-78.07
 20
28.352
 21
28.569
  0
LINE
  8
0
 10
-78.07
 11
-77.549
 20
28.569
 21
28.68
  0
LINE
  8
0
 10
-77.549
 11
-77.015
 20
28.68
 21
28.68
  0
LINE
  8
0
 10
-77.015
 11
-76.494
 20
28.68
 21
28.569
  0
LINE
  8
0
 10
-76.494
 11
-76.007
 20
28.569
 21
28.352
  0
LINE
  8
0
 10
-76.007
 11
-75.576
 20
28.352
 21
28.039
  0
LINE
  8
0
 10
-75.576
 11
-75.219
 20
28.039
 21
27.642
  0
LINE
  8
0
 10
-75.219
 11
-74.952
 20
27.642
 21
27.181
  0
LINE
  8
0
 10
-74.952
 11
-74.788
 20
27.181
 21
26.674
  0
LINE
  8
0
 10
-74.788
 11
-74.732
 20
26.674
 21
26.144
  0
LINE
  8
0
 10
-74.732
 11
-74.788
 20
26.144
 21
25.613
  0
LINE
  8
0
 10
-74.788
 11
-74.952
 20
25.613
 21
25.106
  0
LINE
  8
0
 10
-74.952
 11
-75.219
 20
25.106
 21
24.645
  0
LINE
  8
0
 10
-75.219
 11
-75.576
 20
24.645
 21
24.249
  0
LINE
  8
0
 10
-75.576
 11
-76.007
 20
24.249
 21
23.935
  0
LINE
  8
0
 10
-76.007
 11
-76.494
 20
23.935
 21
23.718
  0
LINE
  8
0
 10
-76.494
 11
-77.015
 20
23.718
 21
23.608
  0
LINE
  8
0
 10
-77.015
 11
-77.549
 20
23.608
 21
23.608
  0
LINE
  8
0
 10
-77.549
 11
-78.07
 20
23.608
 21
23.718
  0
LINE
  8
0
 10
-78.07
 11
-78.557
 20
23.718
 21
23.935
  0
LINE
  8
0
 10
-78.557
 11
-78.988
 20
23.935
 21
24.249
  0
LINE
  8
0
 10
-78.988
 11
-79.345
 20
24.249
 21
24.645
  0
LINE
  8
0
 10
-79.345
 11
-79.612
 20
24.645
 21
25.106
  0
LINE
  8
0
 10
-79.612
 11
-79.776
 20
25.106
 21
25.613
  0
LINE
  8
0
 10
-79.776
 11
-79.832
 20
25.613
 21
26.144
  0
LINE
  8
0
 10
-75.832
 11
-75.776
 20
33.072
 21
33.602
  0
LINE
  8
0
 10
-75.776
 11
-75.612
 20
33.602
 21
34.109
  0
LINE
  8
0
 10
-75.612
 11
-75.345
 20
34.109
 21
34.571
  0
LINE
  8
0
 10
-75.345
 11
-74.988
 20
34.571
 21
34.967
  0
LINE
  8
0
 10
-74.988
 11
-74.557
 20
34.967
 21
35.28
  0
LINE
  8
0
 10
-74.557
 11
-74.07
 20
35.28
 21
35.497
  0
LINE
  8
0
 10
-74.07
 11
-73.549
 20
35.497
 21
35.608
  0
LINE
  8
0
 10
-73.549
 11
-73.015
 20
35.608
 21
35.608
  0
LINE
  8
0
 10
-73.015
 11
-72.494
 20
35.608
 21
35.497
  0
LINE
  8
0
 10
-72.494
 11
-72.007
 20
35.497
 21
35.28
  0
LINE
  8
0
 10
-72.007
 11
-71.576
 20
35.28
 21
34.967
  0
LINE
  8
0
 10
-71.576
 11
-71.219
 20
34.967
 21
34.571
  0
LINE
  8
0
 10
-71.219
 11
-70.952
 20
34.571
 21
34.109
  0
LINE
  8
0
 10
-70.952
 11
-70.788
 20
34.109
 21
33.602
  0
LINE
  8
0
 10
-70.788
 11
-70.732
 20
33.602
 21
33.072
  0
LINE
  8
0
 10
-70.732
 11
-70.788
 20
33.072
 21
32.542
  0
LINE
  8
0
 10
-70.788
 11
-70.952
 20
32.542
 21
32.035
  0
LINE
  8
0
 10
-70.952
 11
-71.219
 20
32.035
 21
31.573
  0
LINE
  8
0
 10
-71.219
 11
-71.576
 20
31.573
 21
31.177
  0
LINE
  8
0
 10
-71.576
 11
-72.007
 20
31.177
 21
30.863
  0
LINE
  8
0
 10
-72.007
 11
-72.494
 20
30.863
 21
30.647
  0
LINE
  8
0
 10
-72.494
 11
-73.015
 20
30.647
 21
30.536
  0
LINE
  8
0
 10
-73.015
 11
-73.549
 20
30.536
 21
30.536
  0
LINE
  8
0
 10
-73.549
 11
-74.07
 20
30.536
 21
30.647
  0
LINE
  8
0
 10
-74.07
 11
-74.557
 20
30.647
 21
30.863
  0
LINE
  8
0
 10
-74.557
 11
-74.988
 20
30.863
 21
31.177
  0
LINE
  8
0
 10
-74.988
 11
-75.345
 20
31.177
 21
31.573
  0
LINE
  8
0
 10
-75.345
 11
-75.612
 20
31.573
 21
32.035
  0
LINE
  8
0
 10
-75.612
 11
-75.776
 20
32.035
 21
32.542
  0
LINE
  8
0
 10
-75.776
 11
-75.832
 20
32.542
 21
33.072
  0
LINE
  8
0
 10
-71.832
 11
-71.776
 20
40
 21
40.53
  0
LINE
  8
0
 10
-71.776
 11
-71.612
 20
40.53
 21
41.037
  0
LINE
  8
0
 10
-71.612
 11
-71.345
 20
41.037
 21
41.499
  0
LINE
  8
0
 10
-71.345
 11
-70.988
 20
41.499
 21
41.895
  0
LINE
  8
0
 10
-70.988
 11
-70.557
 20
41.895
 21
42.208
  0
LINE
  8
0
 10
-70.557
 11
-70.07
 20
42.208
 21
42.425
  0
LINE
  8
0
 10
-70.07
 11
-69.549
 20
42.425
 21
42.536
  0
LINE
  8
0
 10
-69.549
 11
-69.015
 20
42.536
 21
42.536
  0
LINE
  8
0
 10
-69.015
 11
-68.494
 20
42.536
 21
42.425
  0
LINE
  8
0
 10
-68.494
 11
-68.007
 20
42.425
 21
42.208
  0
LINE
  8
0
 10
-68.007
 11
-67.576
 20
42.208
 21
41.895
  0
LINE
  8
0
 10
-67.576
 11
-67.219
 20
41.895
 21
41.499
  0
LINE
  8
0
 10
-67.219
 11
-66.952
 20
41.499
 21
41.037
  0
LINE
  8
0
 10
-66.952
 11
-66.788
 20
41.037
 21
40.53
  0
LINE
  8
0
 10
-66.788
 11
-66.732
 20
40.53
 21
40
  0
LINE
  8
0
 10
-66.732
 11
-66.788
 20
40
 21
39.47
  0
LINE
  8
0
 10
-66.788
 11
-66.952
 20
39.47
 21
38.963
  0
LINE
  8
0
 10
-66.952
 11
-67.219
 20
38.963
 21
38.501
  0
LINE
  8
0
 10
-67.219
 11
-67.576
 20
38.501
 21
38.105
  0
LINE
  8
0
 10
-67.576
 11
-68.007
 20
38.105
 21
37.792
  0
LINE
  8
0
 10
-68.007
 11
-68.494
 20
37.792
 21
37.575
  0
LINE
  8
0
 10
-68.494
 11
-69.015
 20
37.575
 21
37.464
  0
LINE
  8
0
 10
-69.015
 11
-69.549
 20
37.464
 21
37.464
  0
LINE
  8
0
 10
-69.549
 11
-70.07
 20
37.464
 21
37.575
  0
LINE
  8
0
 10
-70.07
 11
-70.557
 20
37.575
 21
37.792
  0
LINE
  8
0
 10
-70.557
 11
-70.988
 20
37.792
 21
38.105
  0
LINE
  8
0
 10
-70.988
 11
-71.345
 20
38.105
 21
38.501
  0
LINE
  8
0
 10
-71.345
 11
-71.612
 20
38.501
 21
38.963
  0
LINE
  8
0
 10
-71.612
 11
-71.776
 20
38.963
 21
39.47
  0
LINE
  8
0
 10
-71.776
 11
-71.832
 20
39.47
 21
40
  0
LINE
  8
0
 10
-67.832
 11
-67.776
 20
46.928
 21
47.458
  0
LINE
  8
0
 10
-67.776
 11
-67.612
 20
47.458
 21
47.965
  0
LINE
  8
0
 10
-67.612
 11
-67.345
 20
47.965
 21
48.427
  0
LINE
  8
0
 10
-67.345
 11
-66.988
 20
48.427
 21
48.823
  0
LINE
  8
0
 10
-66.988
 11
-66.557
 20
48.823
 21
49.137
  0
LINE
  8
0
 10
-66.557
 11
-66.07
 20
49.137
 21
49.353
  0
LINE
  8
0
 10
-66.07
 11
-65.549
 20
49.353
 21
49.464
  0
LINE
  8
0
 10
-65.549
 11
-65.015
 20
49.464
 21
49.464
  0
LINE
  8
0
 10
-65.015
 11
-64.494
 20
49.464
 21
49.353
  0
LINE
  8
0
 10
-64.494
 11
-64.007
 20
49.353
 21
49.137
  0
LINE
  8
0
 10
-64.007
 11
-63.576
 20
49.137
 21
48.823
  0
LINE
  8
0
 10
-63.576
 11
-63.219
 20
48.823
 21
48.427
  0
LINE
  8
0
 10
-63.219
 11
-62.952
 20
48.427
 21
47.965
  0
LINE
  8
0
 10
-62.952
 11
-62.788
 20
47.965
 21
47.458
  0
LINE
  8
0
 10
-62.788
 11
-62.732
 20
47.458
 21
46.928
  0
LINE
  8
0
 10
-62.732
 11
-62.788
 20
46.928
 21
46.398
  0
LINE
  8
0
 10
-62.788
 11
-62.952
 20
46.398
 21
45.891
  0
LINE
  8
0
 10
-62.952
 11
-63.219
 20
45.891
 21
45.429
  0
LINE
  8
0
 10
-63.219
 11
-63.576
 20
45.429
 21
45.033
  0
LINE
  8
0
 10
-63.576
 11
-64.007
 20
45.033
 21
44.72
  0
LINE
  8
0
 10
-64.007
 11
-64.494
 20
44.72
 21
44.503
  0
LINE
  8
0
 10
-64.494
 11
-65.015
 20
44.503
 21
44.392
  0
LINE
  8
0
 10
-65.015
 11
-65.549
 20
44.392
 21
44.392
  0
LINE
  8
0
 10
-65.549
 11
-66.07
 20
44.392
 21
44.503
  0
LINE
  8
0
 10
-66.07
 11
-66.557
 20
44.503
 21
44.72
  0
LINE
  8
0
 10
-66.557
 11
-66.988
 20
44.72
 21
45.033
  0
LINE
  8
0
 10
-66.988
 11
-67.345
 20
45.033
 21
45.429
  0
LINE
  8
0
 10
-67.345
 11
-67.612
 20
45.429
 21
45.891
  0
LINE
  8
0
 10
-67.612
 11
-67.776
 20
45.891
 21
46.398
  0
LINE
  8
0
 10
-67.776
 11
-67.832
 20
46.398
 21
46.928
  0
LINE
  8
0
 10
-63.832
 11
-63.776
 20
53.856
 21
54.387
  0
LINE
  8
0
 10
-63.776
 11
-63.612
 20
54.387
 21
54.894
  0
LINE
  8
0
 10
-63.612
 11
-63.345
 20
54.894
 21
55.355
  0
LINE
  8
0
 10
-63.345
 11
-62.988
 20
55.355
 21
55.751
  0
LINE
  8
0
 10
-62.988
 11
-62.557
 20
55.751
 21
56.065
  0
LINE
  8
0
 10
-62.557
 11
-62.07
 20
56.065
 21
56.282
  0
LINE
  8
0
 10
-62.07
 11
-61.549
 20
56.282
 21
56.392
  0
LINE
  8
0
 10
-61.549
 11
-61.015
 20
56.392
 21
56.392
  0
LINE
  8
0
 10
-61.015
 11
-60.494
 20
56.392
 21
56.282
  0
LINE
  8
0
 10
-60.494
 11
-60.007
 20
56.282
 21
56.065
  0
LINE
  8
0
 10
-60.007
 11
-59.576
 20
56.065
 21
55.751
  0
LINE
  8
0
 10
-59.576
 11
-59.219
 20
55.751
 21
55.355
  0
LINE
  8
0
 10
-59.219
 11
-58.952
 20
55.355
 21
54.894
  0
LINE
  8
0
 10
-58.952
 11
-58.788
 20
54.894
 21
54.387
  0
LINE
  8
0
 10
-58.788
 11
-58.732
 20
54.387
 21
53.856
  0
LINE
  8
0
 10
-58.732
 11
-58.788
 20
53.856
 21
53.326
  0
LINE
  8
0
 10
-58.788
 11
-58.952
 20
53.326
 21
52.819
  0
LINE
  8
0
 10
-58.952
 11
-59.219
 20
52.819
 21
52.358
  0
LINE
  8
0
 10
-59.219
 11
-59.576
 20
52.358
 21
51.961
  0
LINE
  8
0
 10
-59.576
 11
-60.007
 20
51.961
 21
51.648
  0
LINE
  8
0
 10
-60.007
 11
-60.494
 20
51.648
 21
51.431
  0
LINE
  8
0
 10
-60.494
 11
-61.015
 20
51.431
 21
51.32
  0
LINE
  8
0
 10
-61.015
 11
-61.549
 20
51.32
 21
51.32
  0
LINE
  8
0
 10
-61.549
 11
-62.07
 20
51.32
 21
51.431
  0
LINE
  8
0
 10
-62.07
 11
-62.557
 20
51.431
 21
51.648
  0
LINE
  8
0
 10
-62.557
 11
-62.988
 20
51.648
 21
51.961
  0
LINE
  8
0
 10
-62.988
 11
-63.345
 20
51.961
 21
52.358
  0
LINE
  8
0
 10
-63.345
 11
-63.612
 20
52.358
 21
52.819
  0
LINE
  8
0
 10
-63.612
 11
-63.776
 20
52.819
 21
53.326
  0
LINE
  8
0
 10
-63.776
 11
-63.832
 20
53.326
 21
53.856
  0
LINE
  8
0
 10
-56.89
 11
-56.89
 20
-50.123
 21
-49.59
  0
LINE
  8
0
 10
-56.89
 11
-56.779
 20
-49.59
 21
-49.068
  0
LINE
  8
0
 10
-56.779
 11
-56.562
 20
-49.068
 21
-48.581
  0
LINE
  8
0
 10
-56.562
 11
-56.249
 20
-48.581
 21
-48.15
  0
LINE
  8
0
 10
-56.249
 11
-55.853
 20
-48.15
 21
-47.793
  0
LINE
  8
0
 10
-55.853
 11
-55.391
 20
-47.793
 21
-47.527
  0
LINE
  8
0
 10
-55.391
 11
-54.884
 20
-47.527
 21
-47.362
  0
LINE
  8
0
 10
-54.884
 11
-54.354
 20
-47.362
 21
-47.306
  0
LINE
  8
0
 10
-54.354
 11
-53.824
 20
-47.306
 21
-47.362
  0
LINE
  8
0
 10
-53.824
 11
-53.317
 20
-47.362
 21
-47.527
  0
LINE
  8
0
 10
-53.317
 11
-52.855
 20
-47.527
 21
-47.793
  0
LINE
  8
0
 10
-52.855
 11
-52.459
 20
-47.793
 21
-48.15
  0
LINE
  8
0
 10
-52.459
 11
-52.145
 20
-48.15
 21
-48.581
  0
LINE
  8
0
 10
-52.145
 11
-51.929
 20
-48.581
 21
-49.068
  0
LINE
  8
0
 10
-51.929
 11
-51.818
 20
-49.068
 21
-49.59
  0
LINE
  8
0
 10
-51.818
 11
-51.818
 20
-49.59
 21
-50.123
  0
LINE
  8
0
 10
-51.818
 11
-51.929
 20
-50.123
 21
-50.644
  0
LINE
  8
0
 10
-51.929
 11
-52.145
 20
-50.644
 21
-51.131
  0
LINE
  8
0
 10
-52.145
 11
-52.459
 20
-51.131
 21
-51.563
  0
LINE
  8
0
 10
-52.459
 11
-52.855
 20
-51.563
 21
-51.919
  0
LINE
  8
0
 10
-52.855
 11
-53.317
 20
-51.919
 21
-52.186
  0
LINE
  8
0
 10
-53.317
 11
-53.824
 20
-52.186
 21
-52.351
  0
LINE
  8
0
 10
-53.824
 11
-54.354
 20
-52.351
 21
-52.406
  0
LINE
  8
0
 10
-54.354
 11
-54.884
 20
-52.406
 21
-52.351
  0
LINE
  8
0
 10
-54.884
 11
-55.391
 20
-52.351
 21
-52.186
  0
LINE
  8
0
 10
-55.391
 11
-55.853
 20
-52.186
 21
-51.919
  0
LINE
  8
0
 10
-55.853
 11
-56.249
 20
-51.919
 21
-51.563
  0
LINE
  8
0
 10
-56.249
 11
-56.562
 20
-51.563
 21
-51.131
  0
LINE
  8
0
 10
-56.562
 11
-56.779
 20
-51.131
 21
-50.644
  0
LINE
  8
0
 10
-56.779
 11
-56.89
 20
-50.644
 21
-50.123
  0
LINE
  8
0
 10
-43.033
 11
-43.033
 20
-42.123
 21
-41.59
  0
LINE
  8
0
 10
-43.033
 11
-42.923
 20
-41.59
 21
-41.068
  0
LINE
  8
0
 10
-42.923
 11
-42.706
 20
-41.068
 21
-40.581
  0
LINE
  8
0
 10
-42.706
 11
-42.392
 20
-40.581
 21
-40.15
  0
LINE
  8
0
 10
-42.392
 11
-41.996
 20
-40.15
 21
-39.793
  0
LINE
  8
0
 10
-41.996
 11
-41.535
 20
-39.793
 21
-39.527
  0
LINE
  8
0
 10
-41.535
 11
-41.028
 20
-39.527
 21
-39.362
  0
LINE
  8
0
 10
-41.028
 11
-40.497
 20
-39.362
 21
-39.306
  0
LINE
  8
0
 10
-40.497
 11
-39.967
 20
-39.306
 21
-39.362
  0
LINE
  8
0
 10
-39.967
 11
-39.46
 20
-39.362
 21
-39.527
  0
LINE
  8
0
 10
-39.46
 11
-38.999
 20
-39.527
 21
-39.793
  0
LINE
  8
0
 10
-38.999
 11
-38.602
 20
-39.793
 21
-40.15
  0
LINE
  8
0
 10
-38.602
 11
-38.289
 20
-40.15
 21
-40.581
  0
LINE
  8
0
 10
-38.289
 11
-38.072
 20
-40.581
 21
-41.068
  0
LINE
  8
0
 10
-38.072
 11
-37.961
 20
-41.068
 21
-41.59
  0
LINE
  8
0
 10
-37.961
 11
-37.961
 20
-41.59
 21
-42.123
  0
LINE
  8
0
 10
-37.961
 11
-38.072
 20
-42.123
 21
-42.644
  0
LINE
  8
0
 10
-38.072
 11
-38.289
 20
-42.644
 21
-43.131
  0
LINE
  8
0
 10
-38.289
 11
-38.602
 20
-43.131
 21
-43.563
  0
LINE
  8
0
 10
-38.602
 11
-38.999
 20
-43.563
 21
-43.919
  0
LINE
  8
0
 10
-38.999
 11
-39.46
 20
-43.919
 21
-44.186
  0
LINE
  8
0
 10
-39.46
 11
-39.967
 20
-44.186
 21
-44.351
  0
LINE
  8
0
 10
-39.967
 11
-40.497
 20
-44.351
 21
-44.406
  0
LINE
  8
0
 10
-40.497
 11
-41.028
 20
-44.406
 21
-44.351
  0
LINE
  8
0
 10
-41.028
 11
-41.535
 20
-44.351
 21
-44.186
  0
LINE
  8
0
 10
-41.535
 11
-41.996
 20
-44.186
 21
-43.919
  0
LINE
  8
0
 10
-41.996
 11
-42.392
 20
-43.919
 21
-43.563
  0
LINE
  8
0
 10
-42.392
 11
-42.706
 20
-43.563
 21
-43.131
  0
LINE
  8
0
 10
-42.706
 11
-42.923
 20
-43.131
 21
-42.644
  0
LINE
  8
0
 10
-42.923
 11
-43.033
 20
-42.644
 21
-42.123
  0
LINE
  8
0
 10
-34.55
 11
-34.494
 20
-80
 21
-79.47
  0
LINE
  8
0
 10
-34.494
 11
-34.33
 20
-79.47
 21
-78.963
  0
LINE
  8
0
 10
-34.33
 11
-34.063
 20
-78.963
 21
-78.501
  0
LINE
  8
0
 10
-34.063
 11
-33.706
 20
-78.501
 21
-78.105
  0
LINE
  8
0
 10
-33.706
 11
-33.275
 20
-78.105
 21
-77.792
  0
LINE
  8
0
 10
-33.275
 11
-32.788
 20
-77.792
 21
-77.575
  0
LINE
  8
0
 10
-32.788
 11
-32.267
 20
-77.575
 21
-77.464
  0
LINE
  8
0
 10
-32.267
 11
-31.733
 20
-77.464
 21
-77.464
  0
LINE
  8
0
 10
-31.733
 11
-31.212
 20
-77.464
 21
-77.575
  0
LINE
  8
0
 10
-31.212
 11
-30.725
 20
-77.575
 21
-77.792
  0
LINE
  8
0
 10
-30.725
 11
-30.294
 20
-77.792
 21
-78.105
  0
LINE
  8
0
 10
-30.294
 11
-29.937
 20
-78.105
 21
-78.501
  0
LINE
  8
0
 10
-29.937
 11
-29.67
 20
-78.501
 21
-78.963
  0
LINE
  8
0
 10
-29.67
 11
-29.506
 20
-78.963
 21
-79.47
  0
LINE
  8
0
 10
-29.506
 11
-29.45
 20
-79.47
 21
-80
  0
LINE
  8
0
 10
-29.45
 11
-29.506
 20
-80
 21
-80.53
  0
LINE
  8
0
 10
-29.506
 11
-29.67
 20
-80.53
 21
-81.037
  0
LINE
  8
0
 10
-29.67
 11
-29.937
 20
-81.037
 21
-81.499
  0
LINE
  8
0
 10
-29.937
 11
-30.294
 20
-81.499
 21
-81.895
  0
LINE
  8
0
 10
-30.294
 11
-30.725
 20
-81.895
 21
-82.208
  0
LINE
  8
0
 10
-30.725
 11
-31.212
 20
-82.208
 21
-82.425
  0
LINE
  8
0
 10
-31.212
 11
-31.733
 20
-82.425
 21
-82.536
  0
LINE
  8
0
 10
-31.733
 11
-32.267
 20
-82.536
 21
-82.536
  0
LINE
  8
0
 10
-32.267
 11
-32.788
 20
-82.536
 21
-82.425
  0
LINE
  8
0
 10
-32.788
 11
-33.275
 20
-82.425
 21
-82.208
  0
LINE
  8
0
 10
-33.275
 11
-33.706
 20
-82.208
 21
-81.895
  0
LINE
  8
0
 10
-33.706
 11
-34.063
 20
-81.895
 21
-81.499
  0
LINE
  8
0
 10
-34.063
 11
-34.33
 20
-81.499
 21
-81.037
  0
LINE
  8
0
 10
-34.33
 11
-34.494
 20
-81.037
 21
-80.53
  0
LINE
  8
0
 10
-34.494
 11
-34.55
 20
-80.53
 21
-80
  0
LINE
  8
0
 10
-34.55
 11
-34.494
 20
-16
 21
-15.47
  0
LINE
  8
0
 10
-34.494
 11
-34.33
 20
-15.47
 21
-14.963
  0
LINE
  8
0
 10
-34.33
 11
-34.063
 20
-14.963
 21
-14.501
  0
LINE
  8
0
 10
-34.063
 11
-33.706
 20
-14.501
 21
-14.105
  0
LINE
  8
0
 10
-33.706
 11
-33.275
 20
-14.105
 21
-13.792
  0
LINE
  8
0
 10
-33.275
 11
-32.788
 20
-13.792
 21
-13.575
  0
LINE
  8
0
 10
-32.788
 11
-32.267
 20
-13.575
 21
-13.464
  0
LINE
  8
0
 10
-32.267
 11
-31.733
 20
-13.464
 21
-13.464
  0
LINE
  8
0
 10
-31.733
 11
-31.212
 20
-13.464
 21
-13.575
  0
LINE
  8
0
 10
-31.212
 11
-30.725
 20
-13.575
 21
-13.792
  0
LINE
  8
0
 10
-30.725
 11
-30.294
 20
-13.792
 21
-14.105
  0
LINE
  8
0
 10
-30.294
 11
-29.937
 20
-14.105
 21
-14.501
  0
LINE
  8
0
 10
-29.937
 11
-29.67
 20
-14.501
 21
-14.963
  0
LINE
  8
0
 10
-29.67
 11
-29.506
 20
-14.963
 21
-15.47
  0
LINE
  8
0
 10
-29.506
 11
-29.45
 20
-15.47
 21
-16
  0
LINE
  8
0
 10
-29.45
 11
-29.506
 20
-16
 21
-16.53
  0
LINE
  8
0
 10
-29.506
 11
-29.67
 20
-16.53
 21
-17.037
  0
LINE
  8
0
 10
-29.67
 11
-29.937
 20
-17.037
 21
-17.499
  0
LINE
  8
0
 10
-29.937
 11
-30.294
 20
-17.499
 21
-17.895
  0
LINE
  8
0
 10
-30.294
 11
-30.725
 20
-17.895
 21
-18.208
  0
LINE
  8
0
 10
-30.725
 11
-31.212
 20
-18.208
 21
-18.425
  0
LINE
  8
0
 10
-31.212
 11
-31.733
 20
-18.425
 21
-18.536
  0
LINE
  8
0
 10
-31.733
 11
-32.267
 20
-18.536
 21
-18.536
  0
LINE
  8
0
 10
-32.267
 11
-32.788
 20
-18.536
 21
-18.425
  0
LINE
  8
0
 10
-32.788
 11
-33.275
 20
-18.425
 21
-18.208
  0
LINE
  8
0
 10
-33.275
 11
-33.706
 20
-18.208
 21
-17.895
  0
LINE
  8
0
 10
-33.706
 11
-34.063
 20
-17.895
 21
-17.499
  0
LINE
  8
0
 10
-34.063
 11
-34.33
 20
-17.499
 21
-17.037
  0
LINE
  8
0
 10
-34.33
 11
-34.494
 20
-17.037
 21
-16.53
  0
LINE
  8
0
 10
-34.494
 11
-34.55
 20
-16.53
 21
-16
  0
LINE
  8
0
 10
-29.177
 11
-29.177
 20
-34.123
 21
-33.59
  0
LINE
  8
0
 10
-29.177
 11
-29.066
 20
-33.59
 21
-33.068
  0
LINE
  8
0
 10
-29.066
 11
-28.849
 20
-33.068
 21
-32.581
  0
LINE
  8
0
 10
-28.849
 11
-28.536
 20
-32.581
 21
-32.15
  0
LINE
  8
0
 10
-28.536
 11
-28.14
 20
-32.15
 21
-31.793
  0
LINE
  8
0
 10
-28.14
 11
-27.678
 20
-31.793
 21
-31.527
  0
LINE
  8
0
 10
-27.678
 11
-27.171
 20
-31.527
 21
-31.362
  0
LINE
  8
0
 10
-27.171
 11
-26.641
 20
-31.362
 21
-31.306
  0
LINE
  8
0
 10
-26.641
 11
-26.111
 20
-31.306
 21
-31.362
  0
LINE
  8
0
 10
-26.111
 11
-25.604
 20
-31.362
 21
-31.527
  0
LINE
  8
0
 10
-25.604
 11
-25.142
 20
-31.527
 21
-31.793
  0
LINE
  8
0
 10
-25.142
 11
-24.746
 20
-31.793
 21
-32.15
  0
LINE
  8
0
 10
-24.746
 11
-24.433
 20
-32.15
 21
-32.581
  0
LINE
  8
0
 10
-24.433
 11
-24.216
 20
-32.581
 21
-33.068
  0
LINE
  8
0
 10
-24.216
 11
-24.105
 20
-33.068
 21
-33.59
  0
LINE
  8
0
 10
-24.105
 11
-24.105
 20
-33.59
 21
-34.123
  0
LINE
  8
0
 10
-24.105
 11
-24.216
 20
-34.123
 21
-34.644
  0
LINE
  8
0
 10
-24.216
 11
-24.433
 20
-34.644
 21
-35.131
  0
LINE
  8
0
 10
-24.433
 11
-24.746
 20
-35.131
 21
-35.563
  0
LINE
  8
0
 10
-24.746
 11
-25.142
 20
-35.563
 21
-35.919
  0
LINE
  8
0
 10
-25.142
 11
-25.604
 20
-35.919
 21
-36.186
  0
LINE
  8
0
 10
-25.604
 11
-26.111
 20
-36.186
 21
-36.351
  0
LINE
  8
0
 10
-26.111
 11
-26.641
 20
-36.351
 21
-36.406
  0
LINE
  8
0
 10
-26.641
 11
-27.171
 20
-36.406
 21
-36.351
  0
LINE
  8
0
 10
-27.171
 11
-27.678
 20
-36.351
 21
-36.186
  0
LINE
  8
0
 10
-27.678
 11
-28.14
 20
-36.186
 21
-35.919
  0
LINE
  8
0
 10
-28.14
 11
-28.536
 20
-35.919
 21
-35.563
  0
LINE
  8
0
 10
-28.536
 11
-28.849
 20
-35.563
 21
-35.131
  0
LINE
  8
0
 10
-28.849
 11
-29.066
 20
-35.131
 21
-34.644
  0
LINE
  8
0
 10
-29.066
 11
-29.177
 20
-34.644
 21
-34.123
  0
LINE
  8
0
 10
-18.55
 11
-18.494
 20
-80
 21
-79.47
  0
LINE
  8
0
 10
-18.494
 11
-18.33
 20
-79.47
 21
-78.963
  0
LINE
  8
0
 10
-18.33
 11
-18.063
 20
-78.963
 21
-78.501
  0
LINE
  8
0
 10
-18.063
 11
-17.706
 20
-78.501
 21
-78.105
  0
LINE
  8
0
 10
-17.706
 11
-17.275
 20
-78.105
 21
-77.792
  0
LINE
  8
0
 10
-17.275
 11
-16.788
 20
-77.792
 21
-77.575
  0
LINE
  8
0
 10
-16.788
 11
-16.267
 20
-77.575
 21
-77.464
  0
LINE
  8
0
 10
-16.267
 11
-15.733
 20
-77.464
 21
-77.464
  0
LINE
  8
0
 10
-15.733
 11
-15.212
 20
-77.464
 21
-77.575
  0
LINE
  8
0
 10
-15.212
 11
-14.725
 20
-77.575
 21
-77.792
  0
LINE
  8
0
 10
-14.725
 11
-14.294
 20
-77.792
 21
-78.105
  0
LINE
  8
0
 10
-14.294
 11
-13.937
 20
-78.105
 21
-78.501
  0
LINE
  8
0
 10
-13.937
 11
-13.67
 20
-78.501
 21
-78.963
  0
LINE
  8
0
 10
-13.67
 11
-13.506
 20
-78.963
 21
-79.47
  0
LINE
  8
0
 10
-13.506
 11
-13.45
 20
-79.47
 21
-80
  0
LINE
  8
0
 10
-13.45
 11
-13.506
 20
-80
 21
-80.53
  0
LINE
  8
0
 10
-13.506
 11
-13.67
 20
-80.53
 21
-81.037
  0
LINE
  8
0
 10
-13.67
 11
-13.937
 20
-81.037
 21
-81.499
  0
LINE
  8
0
 10
-13.937
 11
-14.294
 20
-81.499
 21
-81.895
  0
LINE
  8
0
 10
-14.294
 11
-14.725
 20
-81.895
 21
-82.208
  0
LINE
  8
0
 10
-14.725
 11
-15.212
 20
-82.208
 21
-82.425
  0
LINE
  8
0
 10
-15.212
 11
-15.733
 20
-82.425
 21
-82.536
  0
LINE
  8
0
 10
-15.733
 11
-16.267
 20
-82.536
 21
-82.536
  0
LINE
  8
0
 10
-16.267
 11
-16.788
 20
-82.536
 21
-82.425
  0
LINE
  8
0
 10
-16.788
 11
-17.275
 20
-82.425
 21
-82.208
  0
LINE
  8
0
 10
-17.275
 11
-17.706
 20
-82.208
 21
-81.895
  0
LINE
  8
0
 10
-17.706
 11
-18.063
 20
-81.895
 21
-81.499
  0
LINE
  8
0
 10
-18.063
 11
-18.33
 20
-81.499
 21
-81.037
  0
LINE
  8
0
 10
-18.33
 11
-18.494
 20
-81.037
 21
-80.53
  0
LINE
  8
0
 10
-18.494
 11
-18.55
 20
-80.53
 21
-80
  0
LINE
  8
0
 10
-18.536
 11
-18.536
 20
7.733
 21
8.267
  0
LINE
  8
0
 10
-18.536
 11
-18.425
 20
8.267
 21
8.788
  0
LINE
  8
0
 10
-18.425
 11
-18.208
 20
8.788
 21
9.275
  0
LINE
  8
0
 10
-18.208
 11
-17.895
 20
9.275
 21
9.706
  0
LINE
  8
0
 10
-17.895
 11
-17.499
 20
9.706
 21
10.063
  0
LINE
  8
0
 10
-17.499
 11
-17.037
 20
10.063
 21
10.33
  0
LINE
  8
0
 10
-17.037
 11
-16.53
 20
10.33
 21
10.494
  0
LINE
  8
0
 10
-16.53
 11
-16
 20
10.494
 21
10.55
  0
LINE
  8
0
 10
-16
 11
-15.47
 20
10.55
 21
10.494
  0
LINE
  8
0
 10
-15.47
 11
-14.963
 20
10.494
 21
10.33
  0
LINE
  8
0
 10
-14.963
 11
-14.501
 20
10.33
 21
10.063
  0
LINE
  8
0
 10
-14.501
 11
-14.105
 20
10.063
 21
9.706
  0
LINE
  8
0
 10
-14.105
 11
-13.792
 20
9.706
 21
9.275
  0
LINE
  8
0
 10
-13.792
 11
-13.575
 20
9.275
 21
8.788
  0
LINE
  8
0
 10
-13.575
 11
-13.464
 20
8.788
 21
8.267
  0
LINE
  8
0
 10
-13.464
 11
-13.464
 20
8.267
 21
7.733
  0
LINE
  8
0
 10
-13.464
 11
-13.575
 20
7.733
 21
7.212
  0
LINE
  8
0
 10
-13.575
 11
-13.792
 20
7.212
 21
6.725
  0
LINE
  8
0
 10
-13.792
 11
-14.105
 20
6.725
 21
6.294
  0
LINE
  8
0
 10
-14.105
 11
-14.501
 20
6.294
 21
5.937
  0
LINE
  8
0
 10
-14.501
 11
-14.963
 20
5.937
 21
5.67
  0
LINE
  8
0
 10
-14.963
 11
-15.47
 20
5.67
 21
5.506
  0
LINE
  8
0
 10
-15.47
 11
-16
 20
5.506
 21
5.45
  0
LINE
  8
0
 10
-16
 11
-16.53
 20
5.45
 21
5.506
  0
LINE
  8
0
 10
-16.53
 11
-17.037
 20
5.506
 21
5.67
  0
LINE
  8
0
 10
-17.037
 11
-17.499
 20
5.67
 21
5.937
  0
LINE
  8
0
 10
-17.499
 11
-17.895
 20
5.937
 21
6.294
  0
LINE
  8
0
 10
-17.895
 11
-18.208
 20
6.294
 21
6.725
  0
LINE
  8
0
 10
-18.208
 11
-18.425
 20
6.725
 21
7.212
  0
LINE
  8
0
 10
-18.425
 11
-18.536
 20
7.212
 21
7.733
  0
LINE
  8
0
 10
-18.536
 11
-18.536
 20
23.733
 21
24.267
  0
LINE
  8
0
 10
-18.536
 11
-18.425
 20
24.267
 21
24.788
  0
LINE
  8
0
 10
-18.425
 11
-18.208
 20
24.788
 21
25.275
  0
LINE
  8
0
 10
-18.208
 11
-17.895
 20
25.275
 21
25.706
  0
LINE
  8
0
 10
-17.895
 11
-17.499
 20
25.706
 21
26.063
  0
LINE
  8
0
 10
-17.499
 11
-17.037
 20
26.063
 21
26.33
  0
LINE
  8
0
 10
-17.037
 11
-16.53
 20
26.33
 21
26.494
  0
LINE
  8
0
 10
-16.53
 11
-16
 20
26.494
 21
26.55
  0
LINE
  8
0
 10
-16
 11
-15.47
 20
26.55
 21
26.494
  0
LINE
  8
0
 10
-15.47
 11
-14.963
 20
26.494
 21
26.33
  0
LINE
  8
0
 10
-14.963
 11
-14.501
 20
26.33
 21
26.063
  0
LINE
  8
0
 10
-14.501
 11
-14.105
 20
26.063
 21
25.706
  0
LINE
  8
0
 10
-14.105
 11
-13.792
 20
25.706
 21
25.275
  0
LINE
  8
0
 10
-13.792
 11
-13.575
 20
25.275
 21
24.788
  0
LINE
  8
0
 10
-13.575
 11
-13.464
 20
24.788
 21
24.267
  0
LINE
  8
0
 10
-13.464
 11
-13.464
 20
24.267
 21
23.733
  0
LINE
  8
0
 10
-13.464
 11
-13.575
 20
23.733
 21
23.212
  0
LINE
  8
0
 10
-13.575
 11
-13.792
 20
23.212
 21
22.725
  0
LINE
  8
0
 10
-13.792
 11
-14.105
 20
22.725
 21
22.294
  0
LINE
  8
0
 10
-14.105
 11
-14.501
 20
22.294
 21
21.937
  0
LINE
  8
0
 10
-14.501
 11
-14.963
 20
21.937
 21
21.67
  0
LINE
  8
0
 10
-14.963
 11
-15.47
 20
21.67
 21
21.506
  0
LINE
  8
0
 10
-15.47
 11
-16
 20
21.506
 21
21.45
  0
LINE
  8
0
 10
-16
 11
-16.53
 20
21.45
 21
21.506
  0
LINE
  8
0
 10
-16.53
 11
-17.037
 20
21.506
 21
21.67
  0
LINE
  8
0
 10
-17.037
 11
-17.499
 20
21.67
 21
21.937
  0
LINE
  8
0
 10
-17.499
 11
-17.895
 20
21.937
 21
22.294
  0
LINE
  8
0
 10
-17.895
 11
-18.208
 20
22.294
 21
22.725
  0
LINE
  8
0
 10
-18.208
 11
-18.425
 20
22.725
 21
23.212
  0
LINE
  8
0
 10
-18.425
 11
-18.536
 20
23.212
 21
23.733
  0
LINE
  8
0
 10
-18.536
 11
-18.536
 20
39.733
 21
40.267
  0
LINE
  8
0
 10
-18.536
 11
-18.425
 20
40.267
 21
40.788
  0
LINE
  8
0
 10
-18.425
 11
-18.208
 20
40.788
 21
41.275
  0
LINE
  8
0
 10
-18.208
 11
-17.895
 20
41.275
 21
41.706
  0
LINE
  8
0
 10
-17.895
 11
-17.499
 20
41.706
 21
42.063
  0
LINE
  8
0
 10
-17.499
 11
-17.037
 20
42.063
 21
42.33
  0
LINE
  8
0
 10
-17.037
 11
-16.53
 20
42.33
 21
42.494
  0
LINE
  8
0
 10
-16.53
 11
-16
 20
42.494
 21
42.55
  0
LINE
  8
0
 10
-16
 11
-15.47
 20
42.55
 21
42.494
  0
LINE
  8
0
 10
-15.47
 11
-14.963
 20
42.494
 21
42.33
  0
LINE
  8
0
 10
-14.963
 11
-14.501
 20
42.33
 21
42.063
  0
LINE
  8
0
 10
-14.501
 11
-14.105
 20
42.063
 21
41.706
  0
LINE
  8
0
 10
-14.105
 11
-13.792
 20
41.706
 21
41.275
  0
LINE
  8
0
 10
-13.792
 11
-13.575
 20
41.275
 21
40.788
  0
LINE
  8
0
 10
-13.575
 11
-13.464
 20
40.788
 21
40.267
  0
LINE
  8
0
 10
-13.464
 11
-13.464
 20
40.267
 21
39.733
  0
LINE
  8
0
 10
-13.464
 11
-13.575
 20
39.733
 21
39.212
  0
LINE
  8
0
 10
-13.575
 11
-13.792
 20
39.212
 21
38.725
  0
LINE
  8
0
 10
-13.792
 11
-14.105
 20
38.725
 21
38.294
  0
LINE
  8
0
 10
-14.105
 11
-14.501
 20
38.294
 21
37.937
  0
LINE
  8
0
 10
-14.501
 11
-14.963
 20
37.937
 21
37.67
  0
LINE
  8
0
 10
-14.963
 11
-15.47
 20
37.67
 21
37.506
  0
LINE
  8
0
 10
-15.47
 11
-16
 20
37.506
 21
37.45
  0
LINE
  8
0
 10
-16
 11
-16.53
 20
37.45
 21
37.506
  0
LINE
  8
0
 10
-16.53
 11
-17.037
 20
37.506
 21
37.67
  0
LINE
  8
0
 10
-17.037
 11
-17.499
 20
37.67
 21
37.937
  0
LINE
  8
0
 10
-17.499
 11
-17.895
 20
37.937
 21
38.294
  0
LINE
  8
0
 10
-17.895
 11
-18.208
 20
38.294
 21
38.725
  0
LINE
  8
0
 10
-18.208
 11
-18.425
 20
38.725
 21
39.212
  0
LINE
  8
0
 10
-18.425
 11
-18.536
 20
39.212
 21
39.733
  0
LINE
  8
0
 10
-18.536
 11
-18.536
 20
55.733
 21
56.267
  0
LINE
  8
0
 10
-18.536
 11
-18.425
 20
56.267
 21
56.788
  0
LINE
  8
0
 10
-18.425
 11
-18.208
 20
56.788
 21
57.275
  0
LINE
  8
0
 10
-18.208
 11
-17.895
 20
57.275
 21
57.706
  0
LINE
  8
0
 10
-17.895
 11
-17.499
 20
57.706
 21
58.063
  0
LINE
  8
0
 10
-17.499
 11
-17.037
 20
58.063
 21
58.33
  0
LINE
  8
0
 10
-17.037
 11
-16.53
 20
58.33
 21
58.494
  0
LINE
  8
0
 10
-16.53
 11
-16
 20
58.494
 21
58.55
  0
LINE
  8
0
 10
-16
 11
-15.47
 20
58.55
 21
58.494
  0
LINE
  8
0
 10
-15.47
 11
-14.963
 20
58.494
 21
58.33
  0
LINE
  8
0
 10
-14.963
 11
-14.501
 20
58.33
 21
58.063
  0
LINE
  8
0
 10
-14.501
 11
-14.105
 20
58.063
 21
57.706
  0
LINE
  8
0
 10
-14.105
 11
-13.792
 20
57.706
 21
57.275
  0
LINE
  8
0
 10
-13.792
 11
-13.575
 20
57.275
 21
56.788
  0
LINE
  8
0
 10
-13.575
 11
-13.464
 20
56.788
 21
56.267
  0
LINE
  8
0
 10
-13.464
 11
-13.464
 20
56.267
 21
55.733
  0
LINE
  8
0
 10
-13.464
 11
-13.575
 20
55.733
 21
55.212
  0
LINE
  8
0
 10
-13.575
 11
-13.792
 20
55.212
 21
54.725
  0
LINE
  8
0
 10
-13.792
 11
-14.105
 20
54.725
 21
54.294
  0
LINE
  8
0
 10
-14.105
 11
-14.501
 20
54.294
 21
53.937
  0
LINE
  8
0
 10
-14.501
 11
-14.963
 20
53.937
 21
53.67
  0
LINE
  8
0
 10
-14.963
 11
-15.47
 20
53.67
 21
53.506
  0
LINE
  8
0
 10
-15.47
 11
-16
 20
53.506
 21
53.45
  0
LINE
  8
0
 10
-16
 11
-16.53
 20
53.45
 21
53.506
  0
LINE
  8
0
 10
-16.53
 11
-17.037
 20
53.506
 21
53.67
  0
LINE
  8
0
 10
-17.037
 11
-17.499
 20
53.67
 21
53.937
  0
LINE
  8
0
 10
-17.499
 11
-17.895
 20
53.937
 21
54.294
  0
LINE
  8
0
 10
-17.895
 11
-18.208
 20
54.294
 21
54.725
  0
LINE
  8
0
 10
-18.208
 11
-18.425
 20
54.725
 21
55.212
  0
LINE
  8
0
 10
-18.425
 11
-18.536
 20
55.212
 21
55.733
  0
LINE
  8
0
 10
-18.536
 11
-18.536
 20
71.733
 21
72.267
  0
LINE
  8
0
 10
-18.536
 11
-18.425
 20
72.267
 21
72.788
  0
LINE
  8
0
 10
-18.425
 11
-18.208
 20
72.788
 21
73.275
  0
LINE
  8
0
 10
-18.208
 11
-17.895
 20
73.275
 21
73.706
  0
LINE
  8
0
 10
-17.895
 11
-17.499
 20
73.706
 21
74.063
  0
LINE
  8
0
 10
-17.499
 11
-17.037
 20
74.063
 21
74.33
  0
LINE
  8
0
 10
-17.037
 11
-16.53
 20
74.33
 21
74.494
  0
LINE
  8
0
 10
-16.53
 11
-16
 20
74.494
 21
74.55
  0
LINE
  8
0
 10
-16
 11
-15.47
 20
74.55
 21
74.494
  0
LINE
  8
0
 10
-15.47
 11
-14.963
 20
74.494
 21
74.33
  0
LINE
  8
0
 10
-14.963
 11
-14.501
 20
74.33
 21
74.063
  0
LINE
  8
0
 10
-14.501
 11
-14.105
 20
74.063
 21
73.706
  0
LINE
  8
0
 10
-14.105
 11
-13.792
 20
73.706
 21
73.275
  0
LINE
  8
0
 10
-13.792
 11
-13.575
 20
73.275
 21
72.788
  0
LINE
  8
0
 10
-13.575
 11
-13.464
 20
72.788
 21
72.267
  0
LINE
  8
0
 10
-13.464
 11
-13.464
 20
72.267
 21
71.733
  0
LINE
  8
0
 10
-13.464
 11
-13.575
 20
71.733
 21
71.212
  0
LINE
  8
0
 10
-13.575
 11
-13.792
 20
71.212
 21
70.725
  0
LINE
  8
0
 10
-13.792
 11
-14.105
 20
70.725
 21
70.294
  0
LINE
  8
0
 10
-14.105
 11
-14.501
 20
70.294
 21
69.937
  0
LINE
  8
0
 10
-14.501
 11
-14.963
 20
69.937
 21
69.67
  0
LINE
  8
0
 10
-14.963
 11
-15.47
 20
69.67
 21
69.506
  0
LINE
  8
0
 10
-15.47
 11
-16
 20
69.506
 21
69.45
  0
LINE
  8
0
 10
-16
 11
-16.53
 20
69.45
 21
69.506
  0
LINE
  8
0
 10
-16.53
 11
-17.037
 20
69.506
 21
69.67
  0
LINE
  8
0
 10
-17.037
 11
-17.499
 20
69.67
 21
69.937
  0
LINE
  8
0
 10
-17.499
 11
-17.895
 20
69.937
 21
70.294
  0
LINE
  8
0
 10
-17.895
 11
-18.208
 20
70.294
 21
70.725
  0
LINE
  8
0
 10
-18.208
 11
-18.425
 20
70.725
 21
71.212
  0
LINE
  8
0
 10
-18.425
 11
-18.536
 20
71.212
 21
71.733
  0
LINE
  8
0
 10
-15.321
 11
-15.321
 20
-26.123
 21
-25.59
  0
LINE
  8
0
 10
-15.321
 11
-15.21
 20
-25.59
 21
-25.068
  0
LINE
  8
0
 10
-15.21
 11
-14.993
 20
-25.068
 21
-24.581
  0
LINE
  8
0
 10
-14.993
 11
-14.68
 20
-24.581
 21
-24.15
  0
LINE
  8
0
 10
-14.68
 11
-14.283
 20
-24.15
 21
-23.793
  0
LINE
  8
0
 10
-14.283
 11
-13.822
 20
-23.793
 21
-23.527
  0
LINE
  8
0
 10
-13.822
 11
-13.315
 20
-23.527
 21
-23.362
  0
LINE
  8
0
 10
-13.315
 11
-12.785
 20
-23.362
 21
-23.306
  0
LINE
  8
0
 10
-12.785
 11
-12.254
 20
-23.306
 21
-23.362
  0
LINE
  8
0
 10
-12.254
 11
-11.747
 20
-23.362
 21
-23.527
  0
LINE
  8
0
 10
-11.747
 11
-11.286
 20
-23.527
 21
-23.793
  0
LINE
  8
0
 10
-11.286
 11
-10.89
 20
-23.793
 21
-24.15
  0
LINE
  8
0
 10
-10.89
 11
-10.576
 20
-24.15
 21
-24.581
  0
LINE
  8
0
 10
-10.576
 11
-10.359
 20
-24.581
 21
-25.068
  0
LINE
  8
0
 10
-10.359
 11
-10.249
 20
-25.068
 21
-25.59
  0
LINE
  8
0
 10
-10.249
 11
-10.249
 20
-25.59
 21
-26.123
  0
LINE
  8
0
 10
-10.249
 11
-10.359
 20
-26.123
 21
-26.644
  0
LINE
  8
0
 10
-10.359
 11
-10.576
 20
-26.644
 21
-27.131
  0
LINE
  8
0
 10
-10.576
 11
-10.89
 20
-27.131
 21
-27.563
  0
LINE
  8
0
 10
-10.89
 11
-11.286
 20
-27.563
 21
-27.919
  0
LINE
  8
0
 10
-11.286
 11
-11.747
 20
-27.919
 21
-28.186
  0
LINE
  8
0
 10
-11.747
 11
-12.254
 20
-28.186
 21
-28.351
  0
LINE
  8
0
 10
-12.254
 11
-12.785
 20
-28.351
 21
-28.406
  0
LINE
  8
0
 10
-12.785
 11
-13.315
 20
-28.406
 21
-28.351
  0
LINE
  8
0
 10
-13.315
 11
-13.822
 20
-28.351
 21
-28.186
  0
LINE
  8
0
 10
-13.822
 11
-14.283
 20
-28.186
 21
-27.919
  0
LINE
  8
0
 10
-14.283
 11
-14.68
 20
-27.919
 21
-27.563
  0
LINE
  8
0
 10
-14.68
 11
-14.993
 20
-27.563
 21
-27.131
  0
LINE
  8
0
 10
-14.993
 11
-15.21
 20
-27.131
 21
-26.644
  0
LINE
  8
0
 10
-15.21
 11
-15.321
 20
-26.644
 21
-26.123
  0
LINE
  8
0
 10
-10.55
 11
-10.494
 20
-80
 21
-79.47
  0
LINE
  8
0
 10
-10.494
 11
-10.33
 20
-79.47
 21
-78.963
  0
LINE
  8
0
 10
-10.33
 11
-10.063
 20
-78.963
 21
-78.501
  0
LINE
  8
0
 10
-10.063
 11
-9.706
 20
-78.501
 21
-78.105
  0
LINE
  8
0
 10
-9.706
 11
-9.275
 20
-78.105
 21
-77.792
  0
LINE
  8
0
 10
-9.275
 11
-8.788
 20
-77.792
 21
-77.575
  0
LINE
  8
0
 10
-8.788
 11
-8.267
 20
-77.575
 21
-77.464
  0
LINE
  8
0
 10
-8.267
 11
-7.733
 20
-77.464
 21
-77.464
  0
LINE
  8
0
 10
-7.733
 11
-7.212
 20
-77.464
 21
-77.575
  0
LINE
  8
0
 10
-7.212
 11
-6.725
 20
-77.575
 21
-77.792
  0
LINE
  8
0
 10
-6.725
 11
-6.294
 20
-77.792
 21
-78.105
  0
LINE
  8
0
 10
-6.294
 11
-5.937
 20
-78.105
 21
-78.501
  0
LINE
  8
0
 10
-5.937
 11
-5.67
 20
-78.501
 21
-78.963
  0
LINE
  8
0
 10
-5.67
 11
-5.506
 20
-78.963
 21
-79.47
  0
LINE
  8
0
 10
-5.506
 11
-5.45
 20
-79.47
 21
-80
  0
LINE
  8
0
 10
-5.45
 11
-5.506
 20
-80
 21
-80.53
  0
LINE
  8
0
 10
-5.506
 11
-5.67
 20
-80.53
 21
-81.037
  0
LINE
  8
0
 10
-5.67
 11
-5.937
 20
-81.037
 21
-81.499
  0
LINE
  8
0
 10
-5.937
 11
-6.294
 20
-81.499
 21
-81.895
  0
LINE
  8
0
 10
-6.294
 11
-6.725
 20
-81.895
 21
-82.208
  0
LINE
  8
0
 10
-6.725
 11
-7.212
 20
-82.208
 21
-82.425
  0
LINE
  8
0
 10
-7.212
 11
-7.733
 20
-82.425
 21
-82.536
  0
LINE
  8
0
 10
-7.733
 11
-8.267
 20
-82.536
 21
-82.536
  0
LINE
  8
0
 10
-8.267
 11
-8.788
 20
-82.536
 21
-82.425
  0
LINE
  8
0
 10
-8.788
 11
-9.275
 20
-82.425
 21
-82.208
  0
LINE
  8
0
 10
-9.275
 11
-9.706
 20
-82.208
 21
-81.895
  0
LINE
  8
0
 10
-9.706
 11
-10.063
 20
-81.895
 21
-81.499
  0
LINE
  8
0
 10
-10.063
 11
-10.33
 20
-81.499
 21
-81.037
  0
LINE
  8
0
 10
-10.33
 11
-10.494
 20
-81.037
 21
-80.53
  0
LINE
  8
0
 10
-10.494
 11
-10.55
 20
-80.53
 21
-80
  0
LINE
  8
0
 10
-2.55
 11
-2.494
 20
-80
 21
-79.47
  0
LINE
  8
0
 10
-2.494
 11
-2.33
 20
-79.47
 21
-78.963
  0
LINE
  8
0
 10
-2.33
 11
-2.063
 20
-78.963
 21
-78.501
  0
LINE
  8
0
 10
-2.063
 11
-1.706
 20
-78.501
 21
-78.105
  0
LINE
  8
0
 10
-1.706
 11
-1.275
 20
-78.105
 21
-77.792
  0
LINE
  8
0
 10
-1.275
 11
-0.788
 20
-77.792
 21
-77.575
  0
LINE
  8
0
 10
-0.788
 11
-0.267
 20
-77.575
 21
-77.464
  0
LINE
  8
0
 10
-0.267
 11
0.267
 20
-77.464
 21
-77.464
  0
LINE
  8
0
 10
0.267
 11
0.788
 20
-77.464
 21
-77.575
  0
LINE
  8
0
 10
0.788
 11
1.275
 20
-77.575
 21
-77.792
  0
LINE
  8
0
 10
1.275
 11
1.706
 20
-77.792
 21
-78.105
  0
LINE
  8
0
 10
1.706
 11
2.063
 20
-78.105
 21
-78.501
  0
LINE
  8
0
 10
2.063
 11
2.33
 20
-78.501
 21
-78.963
  0
LINE
  8
0
 10
2.33
 11
2.494
 20
-78.963
 21
-79.47
  0
LINE
  8
0
 10
2.494
 11
2.55
 20
-79.47
 21
-80
  0
LINE
  8
0
 10
2.55
 11
2.494
 20
-80
 21
-80.53
  0
LINE
  8
0
 10
2.494
 11
2.33
 20
-80.53
 21
-81.037
  0
LINE
  8
0
 10
2.33
 11
2.063
 20
-81.037
 21
-81.499
  0
LINE
  8
0
 10
2.063
 11
1.706
 20
-81.499
 21
-81.895
  0
LINE
  8
0
 10
1.706
 11
1.275
 20
-81.895
 21
-82.208
  0
LINE
  8
0
 10
1.275
 11
0.788
 20
-82.208
 21
-82.425
  0
LINE
  8
0
 10
0.788
 11
0.267
 20
-82.425
 21
-82.536
  0
LINE
  8
0
 10
0.267
 11
-0.267
 20
-82.536
 21
-82.536
  0
LINE
  8
0
 10
-0.267
 11
-0.788
 20
-82.536
 21
-82.425
  0
LINE
  8
0
 10
-0.788
 11
-1.275
 20
-82.425
 21
-82.208
  0
LINE
  8
0
 10
-1.275
 11
-1.706
 20
-82.208
 21
-81.895
  0
LINE
  8
0
 10
-1.706
 11
-2.063
 20
-81.895
 21
-81.499
  0
LINE
  8
0
 10
-2.063
 11
-2.33
 20
-81.499
 21
-81.037
  0
LINE
  8
0
 10
-2.33
 11
-2.494
 20
-81.037
 21
-80.53
  0
LINE
  8
0
 10
-2.494
 11
-2.55
 20
-80.53
 21
-80
  0
LINE
  8
0
 10
-1.464
 11
-1.464
 20
-18.123
 21
-17.59
  0
LINE
  8
0
 10
-1.464
 11
-1.353
 20
-17.59
 21
-17.068
  0
LINE
  8
0
 10
-1.353
 11
-1.137
 20
-17.068
 21
-16.581
  0
LINE
  8
0
 10
-1.137
 11
-0.823
 20
-16.581
 21
-16.15
  0
LINE
  8
0
 10
-0.823
 11
-0.427
 20
-16.15
 21
-15.793
  0
LINE
  8
0
 10
-0.427
 11
0.035
 20
-15.793
 21
-15.527
  0
LINE
  8
0
 10
0.035
 11
0.542
 20
-15.527
 21
-15.362
  0
LINE
  8
0
 10
0.542
 11
1.072
 20
-15.362
 21
-15.306
  0
LINE
  8
0
 10
1.072
 11
1.602
 20
-15.306
 21
-15.362
  0
LINE
  8
0
 10
1.602
 11
2.109
 20
-15.362
 21
-15.527
  0
LINE
  8
0
 10
2.109
 11
2.571
 20
-15.527
 21
-15.793
  0
LINE
  8
0
 10
2.571
 11
2.967
 20
-15.793
 21
-16.15
  0
LINE
  8
0
 10
2.967
 11
3.28
 20
-16.15
 21
-16.581
  0
LINE
  8
0
 10
3.28
 11
3.497
 20
-16.581
 21
-17.068
  0
LINE
  8
0
 10
3.497
 11
3.608
 20
-17.068
 21
-17.59
  0
LINE
  8
0
 10
3.608
 11
3.608
 20
-17.59
 21
-18.123
  0
LINE
  8
0
 10
3.608
 11
3.497
 20
-18.123
 21
-18.644
  0
LINE
  8
0
 10
3.497
 11
3.28
 20
-18.644
 21
-19.131
  0
LINE
  8
0
 10
3.28
 11
2.967
 20
-19.131
 21
-19.563
  0
LINE
  8
0
 10
2.967
 11
2.571
 20
-19.563
 21
-19.919
  0
LINE
  8
0
 10
2.571
 11
2.109
 20
-19.919
 21
-20.186
  0
LINE
  8
0
 10
2.109
 11
1.602
 20
-20.186
 21
-20.351
  0
LINE
  8
0
 10
1.602
 11
1.072
 20
-20.351
 21
-20.406
  0
LINE
  8
0
 10
1.072
 11
0.542
 20
-20.406
 21
-20.351
  0
LINE
  8
0
 10
0.542
 11
0.035
 20
-20.351
 21
-20.186
  0
LINE
  8
0
 10
0.035
 11
-0.427
 20
-20.186
 21
-19.919
  0
LINE
  8
0
 10
-0.427
 11
-0.823
 20
-19.919
 21
-19.563
  0
LINE
  8
0
 10
-0.823
 11
-1.137
 20
-19.563
 21
-19.131
  0
LINE
  8
0
 10
-1.137
 11
-1.353
 20
-19.131
 21
-18.644
  0
LINE
  8
0
 10
-1.353
 11
-1.464
 20
-18.644
 21
-18.123
  0
LINE
  8
0
 10
5.45
 11
5.506
 20
-80
 21
-79.47
  0
LINE
  8
0
 10
5.506
 11
5.67
 20
-79.47
 21
-78.963
  0
LINE
  8
0
 10
5.67
 11
5.937
 20
-78.963
 21
-78.501
  0
LINE
  8
0
 10
5.937
 11
6.294
 20
-78.501
 21
-78.105
  0
LINE
  8
0
 10
6.294
 11
6.725
 20
-78.105
 21
-77.792
  0
LINE
  8
0
 10
6.725
 11
7.212
 20
-77.792
 21
-77.575
  0
LINE
  8
0
 10
7.212
 11
7.733
 20
-77.575
 21
-77.464
  0
LINE
  8
0
 10
7.733
 11
8.267
 20
-77.464
 21
-77.464
  0
LINE
  8
0
 10
8.267
 11
8.788
 20
-77.464
 21
-77.575
  0
LINE
  8
0
 10
8.788
 11
9.275
 20
-77.575
 21
-77.792
  0
LINE
  8
0
 10
9.275
 11
9.706
 20
-77.792
 21
-78.105
  0
LINE
  8
0
 10
9.706
 11
10.063
 20
-78.105
 21
-78.501
  0
LINE
  8
0
 10
10.063
 11
10.33
 20
-78.501
 21
-78.963
  0
LINE
  8
0
 10
10.33
 11
10.494
 20
-78.963
 21
-79.47
  0
LINE
  8
0
 10
10.494
 11
10.55
 20
-79.47
 21
-80
  0
LINE
  8
0
 10
10.55
 11
10.494
 20
-80
 21
-80.53
  0
LINE
  8
0
 10
10.494
 11
10.33
 20
-80.53
 21
-81.037
  0
LINE
  8
0
 10
10.33
 11
10.063
 20
-81.037
 21
-81.499
  0
LINE
  8
0
 10
10.063
 11
9.706
 20
-81.499
 21
-81.895
  0
LINE
  8
0
 10
9.706
 11
9.275
 20
-81.895
 21
-82.208
  0
LINE
  8
0
 10
9.275
 11
8.788
 20
-82.208
 21
-82.425
  0
LINE
  8
0
 10
8.788
 11
8.267
 20
-82.425
 21
-82.536
  0
LINE
  8
0
 10
8.267
 11
7.733
 20
-82.536
 21
-82.536
  0
LINE
  8
0
 10
7.733
 11
7.212
 20
-82.536
 21
-82.425
  0
LINE
  8
0
 10
7.212
 11
6.725
 20
-82.425
 21
-82.208
  0
LINE
  8
0
 10
6.725
 11
6.294
 20
-82.208
 21
-81.895
  0
LINE
  8
0
 10
6.294
 11
5.937
 20
-81.895
 21
-81.499
  0
LINE
  8
0
 10
5.937
 11
5.67
 20
-81.499
 21
-81.037
  0
LINE
  8
0
 10
5.67
 11
5.506
 20
-81.037
 21
-80.53
  0
LINE
  8
0
 10
5.506
 11
5.45
 20
-80.53
 21
-80
  0
LINE
  8
0
 10
12.392
 11
12.392
 20
9.59
 21
10.123
  0
LINE
  8
0
 10
12.392
 11
12.503
 20
10.123
 21
10.644
  0
LINE
  8
0
 10
12.503
 11
12.72
 20
10.644
 21
11.131
  0
LINE
  8
0
 10
12.72
 11
13.033
 20
11.131
 21
11.563
  0
LINE
  8
0
 10
13.033
 11
13.429
 20
11.563
 21
11.919
  0
LINE
  8
0
 10
13.429
 11
13.891
 20
11.919
 21
12.186
  0
LINE
  8
0
 10
13.891
 11
14.398
 20
12.186
 21
12.351
  0
LINE
  8
0
 10
14.398
 11
14.928
 20
12.351
 21
12.406
  0
LINE
  8
0
 10
14.928
 11
15.458
 20
12.406
 21
12.351
  0
LINE
  8
0
 10
15.458
 11
15.965
 20
12.351
 21
12.186
  0
LINE
  8
0
 10
15.965
 11
16.427
 20
12.186
 21
11.919
  0
LINE
  8
0
 10
16.427
 11
16.823
 20
11.919
 21
11.563
  0
LINE
  8
0
 10
16.823
 11
17.137
 20
11.563
 21
11.131
  0
LINE
  8
0
 10
17.137
 11
17.353
 20
11.131
 21
10.644
  0
LINE
  8
0
 10
17.353
 11
17.464
 20
10.644
 21
10.123
  0
LINE
  8
0
 10
17.464
 11
17.464
 20
10.123
 21
9.59
  0
LINE
  8
0
 10
17.464
 11
17.353
 20
9.59
 21
9.068
  0
LINE
  8
0
 10
17.353
 11
17.137
 20
9.068
 21
8.581
  0
LINE
  8
0
 10
17.137
 11
16.823
 20
8.581
 21
8.15
  0
LINE
  8
0
 10
16.823
 11
16.427
 20
8.15
 21
7.793
  0
LINE
  8
0
 10
16.427
 11
15.965
 20
7.793
 21
7.527
  0
LINE
  8
0
 10
15.965
 11
15.458
 20
7.527
 21
7.362
  0
LINE
  8
0
 10
15.458
 11
14.928
 20
7.362
 21
7.306
  0
LINE
  8
0
 10
14.928
 11
14.398
 20
7.306
 21
7.362
  0
LINE
  8
0
 10
14.398
 11
13.891
 20
7.362
 21
7.527
  0
LINE
  8
0
 10
13.891
 11
13.429
 20
7.527
 21
7.793
  0
LINE
  8
0
 10
13.429
 11
13.033
 20
7.793
 21
8.15
  0
LINE
  8
0
 10
13.033
 11
12.72
 20
8.15
 21
8.581
  0
LINE
  8
0
 10
12.72
 11
12.503
 20
8.581
 21
9.068
  0
LINE
  8
0
 10
12.503
 11
12.392
 20
9.068
 21
9.59
  0
LINE
  8
0
 10
13.45
 11
13.506
 20
-80
 21
-79.47
  0
LINE
  8
0
 10
13.506
 11
13.67
 20
-79.47
 21
-78.963
  0
LINE
  8
0
 10
13.67
 11
13.937
 20
-78.963
 21
-78.501
  0
LINE
  8
0
 10
13.937
 11
14.294
 20
-78.501
 21
-78.105
  0
LINE
  8
0
 10
14.294
 11
14.725
 20
-78.105
 21
-77.792
  0
LINE
  8
0
 10
14.725
 11
15.212
 20
-77.792
 21
-77.575
  0
LINE
  8
0
 10
15.212
 11
15.733
 20
-77.575
 21
-77.464
  0
LINE
  8
0
 10
15.733
 11
16.267
 20
-77.464
 21
-77.464
  0
LINE
  8
0
 10
16.267
 11
16.788
 20
-77.464
 21
-77.575
  0
LINE
  8
0
 10
16.788
 11
17.275
 20
-77.575
 21
-77.792
  0
LINE
  8
0
 10
17.275
 11
17.706
 20
-77.792
 21
-78.105
  0
LINE
  8
0
 10
17.706
 11
18.063
 20
-78.105
 21
-78.501
  0
LINE
  8
0
 10
18.063
 11
18.33
 20
-78.501
 21
-78.963
  0
LINE
  8
0
 10
18.33
 11
18.494
 20
-78.963
 21
-79.47
  0
LINE
  8
0
 10
18.494
 11
18.55
 20
-79.47
 21
-80
  0
LINE
  8
0
 10
18.55
 11
18.494
 20
-80
 21
-80.53
  0
LINE
  8
0
 10
18.494
 11
18.33
 20
-80.53
 21
-81.037
  0
LINE
  8
0
 10
18.33
 11
18.063
 20
-81.037
 21
-81.499
  0
LINE
  8
0
 10
18.063
 11
17.706
 20
-81.499
 21
-81.895
  0
LINE
  8
0
 10
17.706
 11
17.275
 20
-81.895
 21
-82.208
  0
LINE
  8
0
 10
17.275
 11
16.788
 20
-82.208
 21
-82.425
  0
LINE
  8
0
 10
16.788
 11
16.267
 20
-82.425
 21
-82.536
  0
LINE
  8
0
 10
16.267
 11
15.733
 20
-82.536
 21
-82.536
  0
LINE
  8
0
 10
15.733
 11
15.212
 20
-82.536
 21
-82.425
  0
LINE
  8
0
 10
15.212
 11
14.725
 20
-82.425
 21
-82.208
  0
LINE
  8
0
 10
14.725
 11
14.294
 20
-82.208
 21
-81.895
  0
LINE
  8
0
 10
14.294
 11
13.937
 20
-81.895
 21
-81.499
  0
LINE
  8
0
 10
13.937
 11
13.67
 20
-81.499
 21
-81.037
  0
LINE
  8
0
 10
13.67
 11
13.506
 20
-81.037
 21
-80.53
  0
LINE
  8
0
 10
13.506
 11
13.45
 20
-80.53
 21
-80
  0
LINE
  8
0
 10
26.249
 11
26.249
 20
1.59
 21
2.123
  0
LINE
  8
0
 10
26.249
 11
26.359
 20
2.123
 21
2.644
  0
LINE
  8
0
 10
26.359
 11
26.576
 20
2.644
 21
3.131
  0
LINE
  8
0
 10
26.576
 11
26.89
 20
3.131
 21
3.563
  0
LINE
  8
0
 10
26.89
 11
27.286
 20
3.563
 21
3.919
  0
LINE
  8
0
 10
27.286
 11
27.747
 20
3.919
 21
4.186
  0
LINE
  8
0
 10
27.747
 11
28.254
 20
4.186
 21
4.351
  0
LINE
  8
0
 10
28.254
 11
28.785
 20
4.351
 21
4.406
  0
LINE
  8
0
 10
28.785
 11
29.315
 20
4.406
 21
4.351
  0
LINE
  8
0
 10
29.315
 11
29.822
 20
4.351
 21
4.186
  0
LINE
  8
0
 10
29.822
 11
30.283
 20
4.186
 21
3.919
  0
LINE
  8
0
 10
30.283
 11
30.68
 20
3.919
 21
3.563
  0
LINE
  8
0
 10
30.68
 11
30.993
 20
3.563
 21
3.131
  0
LINE
  8
0
 10
30.993
 11
31.21
 20
3.131
 21
2.644
  0
LINE
  8
0
 10
31.21
 11
31.321
 20
2.644
 21
2.123
  0
LINE
  8
0
 10
31.321
 11
31.321
 20
2.123
 21
1.59
  0
LINE
  8
0
 10
31.321
 11
31.21
 20
1.59
 21
1.068
  0
LINE
  8
0
 10
31.21
 11
30.993
 20
1.068
 21
0.581
  0
LINE
  8
0
 10
30.993
 11
30.68
 20
0.581
 21
0.15
  0
LINE
  8
0
 10
30.68
 11
30.283
 20
0.15
 21
-0.207
  0
LINE
  8
0
 10
30.283
 11
29.822
 20
-0.207
 21
-0.473
  0
LINE
  8
0
 10
29.822
 11
29.315
 20
-0.473
 21
-0.638
  0
LINE
  8
0
 10
29.315
 11
28.785
 20
-0.638
 21
-0.694
  0
LINE
  8
0
 10
28.785
 11
28.254
 20
-0.694
 21
-0.638
  0
LINE
  8
0
 10
28.254
 11
27.747
 20
-0.638
 21
-0.473
  0
LINE
  8
0
 10
27.747
 11
27.286
 20
-0.473
 21
-0.207
  0
LINE
  8
0
 10
27.286
 11
26.89
 20
-0.207
 21
0.15
  0
LINE
  8
0
 10
26.89
 11
26.576
 20
0.15
 21
0.581
  0
LINE
  8
0
 10
26.576
 11
26.359
 20
0.581
 21
1.068
  0
LINE
  8
0
 10
26.359
 11
26.249
 20
1.068
 21
1.59
  0
LINE
  8
0
 10
29.45
 11
29.506
 20
-80
 21
-79.47
  0
LINE
  8
0
 10
29.506
 11
29.67
 20
-79.47
 21
-78.963
  0
LINE
  8
0
 10
29.67
 11
29.937
 20
-78.963
 21
-78.501
  0
LINE
  8
0
 10
29.937
 11
30.294
 20
-78.501
 21
-78.105
  0
LINE
  8
0
 10
30.294
 11
30.725
 20
-78.105
 21
-77.792
  0
LINE
  8
0
 10
30.725
 11
31.212
 20
-77.792
 21
-77.575
  0
LINE
  8
0
 10
31.212
 11
31.733
 20
-77.575
 21
-77.464
  0
LINE
  8
0
 10
31.733
 11
32.267
 20
-77.464
 21
-77.464
  0
LINE
  8
0
 10
32.267
 11
32.788
 20
-77.464
 21
-77.575
  0
LINE
  8
0
 10
32.788
 11
33.275
 20
-77.575
 21
-77.792
  0
LINE
  8
0
 10
33.275
 11
33.706
 20
-77.792
 21
-78.105
  0
LINE
  8
0
 10
33.706
 11
34.063
 20
-78.105
 21
-78.501
  0
LINE
  8
0
 10
34.063
 11
34.33
 20
-78.501
 21
-78.963
  0
LINE
  8
0
 10
34.33
 11
34.494
 20
-78.963
 21
-79.47
  0
LINE
  8
0
 10
34.494
 11
34.55
 20
-79.47
 21
-80
  0
LINE
  8
0
 10
34.55
 11
34.494
 20
-80
 21
-80.53
  0
LINE
  8
0
 10
34.494
 11
34.33
 20
-80.53
 21
-81.037
  0
LINE
  8
0
 10
34.33
 11
34.063
 20
-81.037
 21
-81.499
  0
LINE
  8
0
 10
34.063
 11
33.706
 20
-81.499
 21
-81.895
  0
LINE
  8
0
 10
33.706
 11
33.275
 20
-81.895
 21
-82.208
  0
LINE
  8
0
 10
33.275
 11
32.788
 20
-82.208
 21
-82.425
  0
LINE
  8
0
 10
32.788
 11
32.267
 20
-82.425
 21
-82.536
  0
LINE
  8
0
 10
32.267
 11
31.733
 20
-82.536
 21
-82.536
  0
LINE
  8
0
 10
31.733
 11
31.212
 20
-82.536
 21
-82.425
  0
LINE
  8
0
 10
31.212
 11
30.725
 20
-82.425
 21
-82.208
  0
LINE
  8
0
 10
30.725
 11
30.294
 20
-82.208
 21
-81.895
  0
LINE
  8
0
 10
30.294
 11
29.937
 20
-81.895
 21
-81.499
  0
LINE
  8
0
 10
29.937
 11
29.67
 20
-81.499
 21
-81.037
  0
LINE
  8
0
 10
29.67
 11
29.506
 20
-81.037
 21
-80.53
  0
LINE
  8
0
 10
29.506
 11
29.45
 20
-80.53
 21
-80
  0
LINE
  8
0
 10
29.45
 11
29.506
 20
-16
 21
-15.47
  0
LINE
  8
0
 10
29.506
 11
29.67
 20
-15.47
 21
-14.963
  0
LINE
  8
0
 10
29.67
 11
29.937
 20
-14.963
 21
-14.501
  0
LINE
  8
0
 10
29.937
 11
30.294
 20
-14.501
 21
-14.105
  0
LINE
  8
0
 10
30.294
 11
30.725
 20
-14.105
 21
-13.792
  0
LINE
  8
0
 10
30.725
 11
31.212
 20
-13.792
 21
-13.575
  0
LINE
  8
0
 10
31.212
 11
31.733
 20
-13.575
 21
-13.464
  0
LINE
  8
0
 10
31.733
 11
32.267
 20
-13.464
 21
-13.464
  0
LINE
  8
0
 10
32.267
 11
32.788
 20
-13.464
 21
-13.575
  0
LINE
  8
0
 10
32.788
 11
33.275
 20
-13.575
 21
-13.792
  0
LINE
  8
0
 10
33.275
 11
33.706
 20
-13.792
 21
-14.105
  0
LINE
  8
0
 10
33.706
 11
34.063
 20
-14.105
 21
-14.501
  0
LINE
  8
0
 10
34.063
 11
34.33
 20
-14.501
 21
-14.963
  0
LINE
  8
0
 10
34.33
 11
34.494
 20
-14.963
 21
-15.47
  0
LINE
  8
0
 10
34.494
 11
34.55
 20
-15.47
 21
-16
  0
LINE
  8
0
 10
34.55
 11
34.494
 20
-16
 21
-16.53
  0
LINE
  8
0
 10
34.494
 11
34.33
 20
-16.53
 21
-17.037
  0
LINE
  8
0
 10
34.33
 11
34.063
 20
-17.037
 21
-17.499
  0
LINE
  8
0
 10
34.063
 11
33.706
 20
-17.499
 21
-17.895
  0
LINE
  8
0
 10
33.706
 11
33.275
 20
-17.895
 21
-18.208
  0
LINE
  8
0
 10
33.275
 11
32.788
 20
-18.208
 21
-18.425
  0
LINE
  8
0
 10
32.788
 11
32.267
 20
-18.425
 21
-18.536
  0
LINE
  8
0
 10
32.267
 11
31.733
 20
-18.536
 21
-18.536
  0
LINE
  8
0
 10
31.733
 11
31.212
 20
-18.536
 21
-18.425
  0
LINE
  8
0
 10
31.212
 11
30.725
 20
-18.425
 21
-18.208
  0
LINE
  8
0
 10
30.725
 11
30.294
 20
-18.208
 21
-17.895
  0
LINE
  8
0
 10
30.294
 11
29.937
 20
-17.895
 21
-17.499
  0
LINE
  8
0
 10
29.937
 11
29.67
 20
-17.499
 21
-17.037
  0
LINE
  8
0
 10
29.67
 11
29.506
 20
-17.037
 21
-16.53
  0
LINE
  8
0
 10
29.506
 11
29.45
 20
-16.53
 21
-16
  0
LINE
  8
0
 10
40.105
 11
40.105
 20
-6.41
 21
-5.877
  0
LINE
  8
0
 10
40.105
 11
40.216
 20
-5.877
 21
-5.356
  0
LINE
  8
0
 10
40.216
 11
40.433
 20
-5.356
 21
-4.869
  0
LINE
  8
0
 10
40.433
 11
40.746
 20
-4.869
 21
-4.437
  0
LINE
  8
0
 10
40.746
 11
41.142
 20
-4.437
 21
-4.081
  0
LINE
  8
0
 10
41.142
 11
41.604
 20
-4.081
 21
-3.814
  0
LINE
  8
0
 10
41.604
 11
42.111
 20
-3.814
 21
-3.649
  0
LINE
  8
0
 10
42.111
 11
42.641
 20
-3.649
 21
-3.594
  0
LINE
  8
0
 10
42.641
 11
43.171
 20
-3.594
 21
-3.649
  0
LINE
  8
0
 10
43.171
 11
43.678
 20
-3.649
 21
-3.814
  0
LINE
  8
0
 10
43.678
 11
44.14
 20
-3.814
 21
-4.081
  0
LINE
  8
0
 10
44.14
 11
44.536
 20
-4.081
 21
-4.437
  0
LINE
  8
0
 10
44.536
 11
44.849
 20
-4.437
 21
-4.869
  0
LINE
  8
0
 10
44.849
 11
45.066
 20
-4.869
 21
-5.356
  0
LINE
  8
0
 10
45.066
 11
45.177
 20
-5.356
 21
-5.877
  0
LINE
  8
0
 10
45.177
 11
45.177
 20
-5.877
 21
-6.41
  0
LINE
  8
0
 10
45.177
 11
45.066
 20
-6.41
 21
-6.932
  0
LINE
  8
0
 10
45.066
 11
44.849
 20
-6.932
 21
-7.419
  0
LINE
  8
0
 10
44.849
 11
44.536
 20
-7.419
 21
-7.85
  0
LINE
  8
0
 10
44.536
 11
44.14
 20
-7.85
 21
-8.207
  0
LINE
  8
0
 10
44.14
 11
43.678
 20
-8.207
 21
-8.473
  0
LINE
  8
0
 10
43.678
 11
43.171
 20
-8.473
 21
-8.638
  0
LINE
  8
0
 10
43.171
 11
42.641
 20
-8.638
 21
-8.694
  0
LINE
  8
0
 10
42.641
 11
42.111
 20
-8.694
 21
-8.638
  0
LINE
  8
0
 10
42.111
 11
41.604
 20
-8.638
 21
-8.473
  0
LINE
  8
0
 10
41.604
 11
41.142
 20
-8.473
 21
-8.207
  0
LINE
  8
0
 10
41.142
 11
40.746
 20
-8.207
 21
-7.85
  0
LINE
  8
0
 10
40.746
 11
40.433
 20
-7.85
 21
-7.419
  0
LINE
  8
0
 10
40.433
 11
40.216
 20
-7.419
 21
-6.932
  0
LINE
  8
0
 10
40.216
 11
40.105
 20
-6.932
 21
-6.41
  0
LINE
  8
0
 10
53.961
 11
53.961
 20
-14.41
 21
-13.877
  0
LINE
  8
0
 10
53.961
 11
54.072
 20
-13.877
 21
-13.356
  0
LINE
  8
0
 10
54.072
 11
54.289
 20
-13.356
 21
-12.869
  0
LINE
  8
0
 10
54.289
 11
54.602
 20
-12.869
 21
-12.437
  0
LINE
  8
0
 10
54.602
 11
54.999
 20
-12.437
 21
-12.081
  0
LINE
  8
0
 10
54.999
 11
55.46
 20
-12.081
 21
-11.814
  0
LINE
  8
0
 10
55.46
 11
55.967
 20
-11.814
 21
-11.649
  0
LINE
  8
0
 10
55.967
 11
56.497
 20
-11.649
 21
-11.594
  0
LINE
  8
0
 10
56.497
 11
57.028
 20
-11.594
 21
-11.649
  0
LINE
  8
0
 10
57.028
 11
57.535
 20
-11.649
 21
-11.814
  0
LINE
  8
0
 10
57.535
 11
57.996
 20
-11.814
 21
-12.081
  0
LINE
  8
0
 10
57.996
 11
58.392
 20
-12.081
 21
-12.437
  0
LINE
  8
0
 10
58.392
 11
58.706
 20
-12.437
 21
-12.869
  0
LINE
  8
0
 10
58.706
 11
58.923
 20
-12.869
 21
-13.356
  0
LINE
  8
0
 10
58.923
 11
59.033
 20
-13.356
 21
-13.877
  0
LINE
  8
0
 10
59.033
 11
59.033
 20
-13.877
 21
-14.41
  0
LINE
  8
0
 10
59.033
 11
58.923
 20
-14.41
 21
-14.932
  0
LINE
  8
0
 10
58.923
 11
58.706
 20
-14.932
 21
-15.419
  0
LINE
  8
0
 10
58.706
 11
58.392
 20
-15.419
 21
-15.85
  0
LINE
  8
0
 10
58.392
 11
57.996
 20
-15.85
 21
-16.207
  0
LINE
  8
0
 10
57.996
 11
57.535
 20
-16.207
 21
-16.473
  0
LINE
  8
0
 10
57.535
 11
57.028
 20
-16.473
 21
-16.638
  0
LINE
  8
0
 10
57.028
 11
56.497
 20
-16.638
 21
-16.694
  0
LINE
  8
0
 10
56.497
 11
55.967
 20
-16.694
 21
-16.638
  0
LINE
  8
0
 10
55.967
 11
55.46
 20
-16.638
 21
-16.473
  0
LINE
  8
0
 10
55.46
 11
54.999
 20
-16.473
 21
-16.207
  0
LINE
  8
0
 10
54.999
 11
54.602
 20
-16.207
 21
-15.85
  0
LINE
  8
0
 10
54.602
 11
54.289
 20
-15.85
 21
-15.419
  0
LINE
  8
0
 10
54.289
 11
54.072
 20
-15.419
 21
-14.932
  0
LINE
  8
0
 10
54.072
 11
53.961
 20
-14.932
 21
-14.41
  0
LINE
  8
0
 10
58.732
 11
58.788
 20
53.856
 21
54.387
  0
LINE
  8
0
 10
58.788
 11
58.952
 20
54.387
 21
54.894
  0
LINE
  8
0
 10
58.952
 11
59.219
 20
54.894
 21
55.355
  0
LINE
  8
0
 10
59.219
 11
59.576
 20
55.355
 21
55.751
  0
LINE
  8
0
 10
59.576
 11
60.007
 20
55.751
 21
56.065
  0
LINE
  8
0
 10
60.007
 11
60.494
 20
56.065
 21
56.282
  0
LINE
  8
0
 10
60.494
 11
61.015
 20
56.282
 21
56.392
  0
LINE
  8
0
 10
61.015
 11
61.549
 20
56.392
 21
56.392
  0
LINE
  8
0
 10
61.549
 11
62.07
 20
56.392
 21
56.282
  0
LINE
  8
0
 10
62.07
 11
62.557
 20
56.282
 21
56.065
  0
LINE
  8
0
 10
62.557
 11
62.988
 20
56.065
 21
55.751
  0
LINE
  8
0
 10
62.988
 11
63.345
 20
55.751
 21
55.355
  0
LINE
  8
0
 10
63.345
 11
63.612
 20
55.355
 21
54.894
  0
LINE
  8
0
 10
63.612
 11
63.776
 20
54.894
 21
54.387
  0
LINE
  8
0
 10
63.776
 11
63.832
 20
54.387
 21
53.856
  0
LINE
  8
0
 10
63.832
 11
63.776
 20
53.856
 21
53.326
  0
LINE
  8
0
 10
63.776
 11
63.612
 20
53.326
 21
52.819
  0
LINE
  8
0
 10
63.612
 11
63.345
 20
52.819
 21
52.358
  0
LINE
  8
0
 10
63.345
 11
62.988
 20
52.358
 21
51.961
  0
LINE
  8
0
 10
62.988
 11
62.557
 20
51.961
 21
51.648
  0
LINE
  8
0
 10
62.557
 11
62.07
 20
51.648
 21
51.431
  0
LINE
  8
0
 10
62.07
 11
61.549
 20
51.431
 21
51.32
  0
LINE
  8
0
 10
61.549
 11
61.015
 20
51.32
 21
51.32
  0
LINE
  8
0
 10
61.015
 11
60.494
 20
51.32
 21
51.431
  0
LINE
  8
0
 10
60.494
 11
60.007
 20
51.431
 21
51.648
  0
LINE
  8
0
 10
60.007
 11
59.576
 20
51.648
 21
51.961
  0
LINE
  8
0
 10
59.576
 11
59.219
 20
51.961
 21
52.358
  0
LINE
  8
0
 10
59.219
 11
58.952
 20
52.358
 21
52.819
  0
LINE
  8
0
 10
58.952
 11
58.788
 20
52.819
 21
53.326
  0
LINE
  8
0
 10
58.788
 11
58.732
 20
53.326
 21
53.856
  0
LINE
  8
0
 10
62.732
 11
62.788
 20
46.928
 21
47.458
  0
LINE
  8
0
 10
62.788
 11
62.952
 20
47.458
 21
47.965
  0
LINE
  8
0
 10
62.952
 11
63.219
 20
47.965
 21
48.427
  0
LINE
  8
0
 10
63.219
 11
63.576
 20
48.427
 21
48.823
  0
LINE
  8
0
 10
63.576
 11
64.007
 20
48.823
 21
49.137
  0
LINE
  8
0
 10
64.007
 11
64.494
 20
49.137
 21
49.353
  0
LINE
  8
0
 10
64.494
 11
65.015
 20
49.353
 21
49.464
  0
LINE
  8
0
 10
65.015
 11
65.549
 20
49.464
 21
49.464
  0
LINE
  8
0
 10
65.549
 11
66.07
 20
49.464
 21
49.353
  0
LINE
  8
0
 10
66.07
 11
66.557
 20
49.353
 21
49.137
  0
LINE
  8
0
 10
66.557
 11
66.988
 20
49.137
 21
48.823
  0
LINE
  8
0
 10
66.988
 11
67.345
 20
48.823
 21
48.427
  0
LINE
  8
0
 10
67.345
 11
67.612
 20
48.427
 21
47.965
  0
LINE
  8
0
 10
67.612
 11
67.776
 20
47.965
 21
47.458
  0
LINE
  8
0
 10
67.776
 11
67.832
 20
47.458
 21
46.928
  0
LINE
  8
0
 10
67.832
 11
67.776
 20
46.928
 21
46.398
  0
LINE
  8
0
 10
67.776
 11
67.612
 20
46.398
 21
45.891
  0
LINE
  8
0
 10
67.612
 11
67.345
 20
45.891
 21
45.429
  0
LINE
  8
0
 10
67.345
 11
66.988
 20
45.429
 21
45.033
  0
LINE
  8
0
 10
66.988
 11
66.557
 20
45.033
 21
44.72
  0
LINE
  8
0
 10
66.557
 11
66.07
 20
44.72
 21
44.503
  0
LINE
  8
0
 10
66.07
 11
65.549
 20
44.503
 21
44.392
  0
LINE
  8
0
 10
65.549
 11
65.015
 20
44.392
 21
44.392
  0
LINE
  8
0
 10
65.015
 11
64.494
 20
44.392
 21
44.503
  0
LINE
  8
0
 10
64.494
 11
64.007
 20
44.503
 21
44.72
  0
LINE
  8
0
 10
64.007
 11
63.576
 20
44.72
 21
45.033
  0
LINE
  8
0
 10
63.576
 11
63.219
 20
45.033
 21
45.429
  0
LINE
  8
0
 10
63.219
 11
62.952
 20
45.429
 21
45.891
  0
LINE
  8
0
 10
62.952
 11
62.788
 20
45.891
 21
46.398
  0
LINE
  8
0
 10
62.788
 11
62.732
 20
46.398
 21
46.928
  0
LINE
  8
0
 10
66.732
 11
66.788
 20
40
 21
40.53
  0
LINE
  8
0
 10
66.788
 11
66.952
 20
40.53
 21
41.037
  0
LINE
  8
0
 10
66.952
 11
67.219
 20
41.037
 21
41.499
  0
LINE
  8
0
 10
67.219
 11
67.576
 20
41.499
 21
41.895
  0
LINE
  8
0
 10
67.576
 11
68.007
 20
41.895
 21
42.208
  0
LINE
  8
0
 10
68.007
 11
68.494
 20
42.208
 21
42.425
  0
LINE
  8
0
 10
68.494
 11
69.015
 20
42.425
 21
42.536
  0
LINE
  8
0
 10
69.015
 11
69.549
 20
42.536
 21
42.536
  0
LINE
  8
0
 10
69.549
 11
70.07
 20
42.536
 21
42.425
  0
LINE
  8
0
 10
70.07
 11
70.557
 20
42.425
 21
42.208
  0
LINE
  8
0
 10
70.557
 11
70.988
 20
42.208
 21
41.895
  0
LINE
  8
0
 10
70.988
 11
71.345
 20
41.895
 21
41.499
  0
LINE
  8
0
 10
71.345
 11
71.612
 20
41.499
 21
41.037
  0
LINE
  8
0
 10
71.612
 11
71.776
 20
41.037
 21
40.53
  0
LINE
  8
0
 10
71.776
 11
71.832
 20
40.53
 21
40
  0
LINE
  8
0
 10
71.832
 11
71.776
 20
40
 21
39.47
  0
LINE
  8
0
 10
71.776
 11
71.612
 20
39.47
 21
38.963
  0
LINE
  8
0
 10
71.612
 11
71.345
 20
38.963
 21
38.501
  0
LINE
  8
0
 10
71.345
 11
70.988
 20
38.501
 21
38.105
  0
LINE
  8
0
 10
70.988
 11
70.557
 20
38.105
 21
37.792
  0
LINE
  8
0
 10
70.557
 11
70.07
 20
37.792
 21
37.575
  0
LINE
  8
0
 10
70.07
 11
69.549
 20
37.575
 21
37.464
  0
LINE
  8
0
 10
69.549
 11
69.015
 20
37.464
 21
37.464
  0
LINE
  8
0
 10
69.015
 11
68.494
 20
37.464
 21
37.575
  0
LINE
  8
0
 10
68.494
 11
68.007
 20
37.575
 21
37.792
  0
LINE
  8
0
 10
68.007
 11
67.576
 20
37.792
 21
38.105
  0
LINE
  8
0
 10
67.576
 11
67.219
 20
38.105
 21
38.501
  0
LINE
  8
0
 10
67.219
 11
66.952
 20
38.501
 21
38.963
  0
LINE
  8
0
 10
66.952
 11
66.788
 20
38.963
 21
39.47
  0
LINE
  8
0
 10
66.788
 11
66.732
 20
39.47
 21
40
  0
LINE
  8
0
 10
67.818
 11
67.818
 20
-22.41
 21
-21.877
  0
LINE
  8
0
 10
67.818
 11
67.929
 20
-21.877
 21
-21.356
  0
LINE
  8
0
 10
67.929
 11
68.145
 20
-21.356
 21
-20.869
  0
LINE
  8
0
 10
68.145
 11
68.459
 20
-20.869
 21
-20.437
  0
LINE
  8
0
 10
68.459
 11
68.855
 20
-20.437
 21
-20.081
  0
LINE
  8
0
 10
68.855
 11
69.317
 20
-20.081
 21
-19.814
  0
LINE
  8
0
 10
69.317
 11
69.824
 20
-19.814
 21
-19.649
  0
LINE
  8
0
 10
69.824
 11
70.354
 20
-19.649
 21
-19.594
  0
LINE
  8
0
 10
70.354
 11
70.884
 20
-19.594
 21
-19.649
  0
LINE
  8
0
 10
70.884
 11
71.391
 20
-19.649
 21
-19.814
  0
LINE
  8
0
 10
71.391
 11
71.853
 20
-19.814
 21
-20.081
  0
LINE
  8
0
 10
71.853
 11
72.249
 20
-20.081
 21
-20.437
  0
LINE
  8
0
 10
72.249
 11
72.562
 20
-20.437
 21
-20.869
  0
LINE
  8
0
 10
72.562
 11
72.779
 20
-20.869
 21
-21.356
  0
LINE
  8
0
 10
72.779
 11
72.89
 20
-21.356
 21
-21.877
  0
LINE
  8
0
 10
72.89
 11
72.89
 20
-21.877
 21
-22.41
  0
LINE
  8
0
 10
72.89
 11
72.779
 20
-22.41
 21
-22.932
  0
LINE
  8
0
 10
72.779
 11
72.562
 20
-22.932
 21
-23.419
  0
LINE
  8
0
 10
72.562
 11
72.249
 20
-23.419
 21
-23.85
  0
LINE
  8
0
 10
72.249
 11
71.853
 20
-23.85
 21
-24.207
  0
LINE
  8
0
 10
71.853
 11
71.391
 20
-24.207
 21
-24.473
  0
LINE
  8
0
 10
71.391
 11
70.884
 20
-24.473
 21
-24.638
  0
LINE
  8
0
 10
70.884
 11
70.354
 20
-24.638
 21
-24.694
  0
LINE
  8
0
 10
70.354
 11
69.824
 20
-24.694
 21
-24.638
  0
LINE
  8
0
 10
69.824
 11
69.317
 20
-24.638
 21
-24.473
  0
LINE
  8
0
 10
69.317
 11
68.855
 20
-24.473
 21
-24.207
  0
LINE
  8
0
 10
68.855
 11
68.459
 20
-24.207
 21
-23.85
  0
LINE
  8
0
 10
68.459
 11
68.145
 20
-23.85
 21
-23.419
  0
LINE
  8
0
 10
68.145
 11
67.929
 20
-23.419
 21
-22.932
  0
LINE
  8
0
 10
67.929
 11
67.818
 20
-22.932
 21
-22.41
  0
LINE
  8
0
 10
70.732
 11
70.788
 20
33.072
 21
33.602
  0
LINE
  8
0
 10
70.788
 11
70.952
 20
33.602
 21
34.109
  0
LINE
  8
0
 10
70.952
 11
71.219
 20
34.109
 21
34.571
  0
LINE
  8
0
 10
71.219
 11
71.576
 20
34.571
 21
34.967
  0
LINE
  8
0
 10
71.576
 11
72.007
 20
34.967
 21
35.28
  0
LINE
  8
0
 10
72.007
 11
72.494
 20
35.28
 21
35.497
  0
LINE
  8
0
 10
72.494
 11
73.015
 20
35.497
 21
35.608
  0
LINE
  8
0
 10
73.015
 11
73.549
 20
35.608
 21
35.608
  0
LINE
  8
0
 10
73.549
 11
74.07
 20
35.608
 21
35.497
  0
LINE
  8
0
 10
74.07
 11
74.557
 20
35.497
 21
35.28
  0
LINE
  8
0
 10
74.557
 11
74.988
 20
35.28
 21
34.967
  0
LINE
  8
0
 10
74.988
 11
75.345
 20
34.967
 21
34.571
  0
LINE
  8
0
 10
75.345
 11
75.612
 20
34.571
 21
34.109
  0
LINE
  8
0
 10
75.612
 11
75.776
 20
34.109
 21
33.602
  0
LINE
  8
0
 10
75.776
 11
75.832
 20
33.602
 21
33.072
  0
LINE
  8
0
 10
75.832
 11
75.776
 20
33.072
 21
32.542
  0
LINE
  8
0
 10
75.776
 11
75.612
 20
32.542
 21
32.035
  0
LINE
  8
0
 10
75.612
 11
75.345
 20
32.035
 21
31.573
  0
LINE
  8
0
 10
75.345
 11
74.988
 20
31.573
 21
31.177
  0
LINE
  8
0
 10
74.988
 11
74.557
 20
31.177
 21
30.863
  0
LINE
  8
0
 10
74.557
 11
74.07
 20
30.863
 21
30.647
  0
LINE
  8
0
 10
74.07
 11
73.549
 20
30.647
 21
30.536
  0
LINE
  8
0
 10
73.549
 11
73.015
 20
30.536
 21
30.536
  0
LINE
  8
0
 10
73.015
 11
72.494
 20
30.536
 21
30.647
  0
LINE
  8
0
 10
72.494
 11
72.007
 20
30.647
 21
30.863
  0
LINE
  8
0
 10
72.007
 11
71.576
 20
30.863
 21
31.177
  0
LINE
  8
0
 10
71.576
 11
71.219
 20
31.177
 21
31.573
  0
LINE
  8
0
 10
71.219
 11
70.952
 20
31.573
 21
32.035
  0
LINE
  8
0
 10
70.952
 11
70.788
 20
32.035
 21
32.542
  0
LINE
  8
0
 10
70.788
 11
70.732
 20
32.542
 21
33.072
  0
LINE
  8
0
 10
74.732
 11
74.788
 20
26.144
 21
26.674
  0
LINE
  8
0
 10
74.788
 11
74.952
 20
26.674
 21
27.181
  0
LINE
  8
0
 10
74.952
 11
75.219
 20
27.181
 21
27.642
  0
LINE
  8
0
 10
75.219
 11
75.576
 20
27.642
 21
28.039
  0
LINE
  8
0
 10
75.576
 11
76.007
 20
28.039
 21
28.352
  0
LINE
  8
0
 10
76.007
 11
76.494
 20
28.352
 21
28.569
  0
LINE
  8
0
 10
76.494
 11
77.015
 20
28.569
 21
28.68
  0
LINE
  8
0
 10
77.015
 11
77.549
 20
28.68
 21
28.68
  0
LINE
  8
0
 10
77.549
 11
78.07
 20
28.68
 21
28.569
  0
LINE
  8
0
 10
78.07
 11
78.557
 20
28.569
 21
28.352
  0
LINE
  8
0
 10
78.557
 11
78.988
 20
28.352
 21
28.039
  0
LINE
  8
0
 10
78.988
 11
79.345
 20
28.039
 21
27.642
  0
LINE
  8
0
 10
79.345
 11
79.612
 20
27.642
 21
27.181
  0
LINE
  8
0
 10
79.612
 11
79.776
 20
27.181
 21
26.674
  0
LINE
  8
0
 10
79.776
 11
79.832
 20
26.674
 21
26.144
  0
LINE
  8
0
 10
79.832
 11
79.776
 20
26.144
 21
25.613
  0
LINE
  8
0
 10
79.776
 11
79.612
 20
25.613
 21
25.106
  0
LINE
  8
0
 10
79.612
 11
79.345
 20
25.106
 21
24.645
  0
LINE
  8
0
 10
79.345
 11
78.988
 20
24.645
 21
24.249
  0
LINE
  8
0
 10
78.988
 11
78.557
 20
24.249
 21
23.935
  0
LINE
  8
0
 10
78.557
 11
78.07
 20
23.935
 21
23.718
  0
LINE
  8
0
 10
78.07
 11
77.549
 20
23.718
 21
23.608
  0
LINE
  8
0
 10
77.549
 11
77.015
 20
23.608
 21
23.608
  0
LINE
  8
0
 10
77.015
 11
76.494
 20
23.608
 21
23.718
  0
LINE
  8
0
 10
76.494
 11
76.007
 20
23.718
 21
23.935
  0
LINE
  8
0
 10
76.007
 11
75.576
 20
23.935
 21
24.249
  0
LINE
  8
0
 10
75.576
 11
75.219
 20
24.249
 21
24.645
  0
LINE
  8
0
 10
75.219
 11
74.952
 20
24.645
 21
25.106
  0
LINE
  8
0
 10
74.952
 11
74.788
 20
25.106
 21
25.613
  0
LINE
  8
0
 10
74.788
 11
74.732
 20
25.613
 21
26.144
  0
ENDSEC
  0
SECTION
  2
OBJECTS
  0
DICTIONARY
  0
ENDSEC
  0
EOF
